<?xml version="1.0" encoding="utf-8"?>
<!-- Generator: Adobe Illustrator 27.1.1, SVG Export Plug-In . SVG Version: 6.00 Build 0)  -->
<svg version="1.1" id="Laag_1" xmlns="http://www.w3.org/2000/svg" xmlns:xlink="http://www.w3.org/1999/xlink" x="0px" y="0px"
	 viewBox="0 0 680 947" style="enable-background:new 0 0 680 947;" xml:space="preserve">
<style type="text/css">
	.st0{opacity:0.5;fill:#CCD6F6;}
	.st1{fill:url(#XMLID_00000109012414934604278810000008731443517472608409_);}
	.st2{fill:url(#XMLID_00000021089356578965248990000006265669712417959867_);}
	.st3{fill:url(#XMLID_00000049198840991907916550000009981570530050650510_);}
	.st4{fill:url(#XMLID_00000048478371648444320020000003881351182065866430_);}
	.st5{fill:url(#XMLID_00000161599849408863880150000007014675509496190611_);}
	.st6{fill:url(#XMLID_00000003789783249378014760000012986581758201692827_);}
	.st7{fill:#64FFDA;}
	.st8{fill:#43AC9C;}
	.st9{fill:#00865F;}
	.st10{fill:#0A192F;}
	.st11{fill:#535E6D;}
	.st12{fill:#475263;}
	.st13{fill:#FDF2DB;}
	.st14{fill:#FDFDFD;}
	.st15{fill:#FDEFD4;}
	.st16{fill:#E3AC0C;}
	.st17{fill:#826506;}
	.st18{fill:#FFBF3F;}
	.st19{fill:#FDF1D7;}
	.st20{fill:#FFFFFF;}
	.st21{fill:#F9D995;}
	.st22{fill:url(#SVGID_1_);}
</style>
<path class="st0" d="M265.88,725.41c-4.86,0.57-9.67,1.4-14.5,2.18c-2.62,0.42-5.25,0.82-7.89,1.12c-2.3,0.26-4.72,0.18-7,0.55
	c-0.98,0.16-1.81,0.6-2.82,0.71c-1.21,0.14-2.42,0.25-3.63,0.38c-2.43,0.25-4.85,0.51-7.28,0.75c-4.87,0.49-9.74,0.96-14.62,1.34
	c-19.66,1.53-39.71,1.7-58.94-3.22c-9.14-2.34-18.25-5.49-26.46-10.15c-0.93-0.53-1.66-1.22-2.51-1.85
	c-0.92-0.68-2.1-1.13-3.08-1.75c-2.19-1.39-4.21-3.02-6.2-4.68c-3.73-3.11-7.55-6.27-10.37-10.27c-5.6-7.91-9.74-16.51-11.75-26.03
	c-1.91-9.08-1.93-18.51-0.55-27.67c1.36-9.07,4.07-17.96,7.03-26.62c2.96-8.65,6.44-17.11,10.36-25.37
	c7.76-16.35,17.19-31.86,27.33-46.83c2.62-3.87,5.29-7.71,7.99-11.52c2.66-3.76,4.98-7.75,7.75-11.42
	c2.89-3.82,5.82-7.46,8.25-11.58c2.48-4.2,5.97-8,8.9-11.91c11.95-15.94,23.41-32.38,34.13-49.17c2.57-4.02,5.1-8.07,7.62-12.13
	c1.29-2.08,2.58-4.16,3.86-6.24c1.19-1.93,2.76-3.91,3.57-6.04c0.47-1.21,0.71-2.33,1.39-3.47c0.65-1.1,1.37-2.16,2.04-3.25
	c1.32-2.15,2.79-4.26,3.97-6.49c1.11-2.12,1.95-4.37,3.05-6.49c1.19-2.31,2.47-4.57,3.69-6.87c2.4-4.53,4.8-9.07,7.05-13.67
	c1.02-2.09,1.66-4.37,2.62-6.51c1.04-2.31,2.05-4.63,3.05-6.95c3.91-9.1,7.53-18.33,10.87-27.66c0.85-2.38,1.69-4.78,2.5-7.17
	c0.67-1.98,0.98-4.18,1.74-6.1c0.48-1.21-1.47-1.74-1.95-0.54c-0.77,1.93-1.07,4.11-1.74,6.1c-0.9,2.64-1.81,5.27-2.76,7.89
	c-1.7,4.74-3.48,9.45-5.33,14.14c-1.96,4.96-4,9.88-6.13,14.76c-2,4.58-3.75,9.34-6.01,13.79c-2.32,4.57-4.69,9.12-7.12,13.64
	c-2.4,4.48-4.31,9.24-7.04,13.54c-1.3,2.05-2.52,4.14-3.83,6.18c-1.42,2.22-2.01,4.71-3.4,6.96c-2.58,4.17-5.15,8.34-7.75,12.49
	c-10.73,17.19-22.28,33.76-34,50.28c-2.9,4.09-5.94,8.09-8.96,12.09c-1.5,1.98-3.01,3.97-4.5,5.95c-1.53,2.03-2.6,4.32-4.12,6.37
	c-2.89,3.9-6.05,7.58-8.62,11.71c-2.43,3.9-5.17,7.59-7.79,11.36c-20.96,30.08-39.93,62.75-48.26,98.81
	c-4.06,17.6-3.3,36.43,4.98,52.73c2.15,4.23,4.76,8.63,7.87,12.22c3.06,3.54,6.66,6.56,10.29,9.5c7.27,5.91,15.45,10.39,24.19,13.73
	c0.86,0.33,1.76,0.42,2.63,0.7c1.18,0.39,2.34,0.84,3.52,1.23c2.34,0.77,4.71,1.47,7.09,2.09c4.96,1.29,9.99,2.24,15.06,2.92
	c9.61,1.3,19.33,1.6,29.02,1.33c9.9-0.28,19.78-1.14,29.63-2.13c4.55-0.46,9.4-0.54,13.82-1.66c2.2-0.56,4.61-0.49,6.89-0.74
	c2.57-0.27,5.14-0.64,7.69-1.04c5.15-0.81,10.27-1.74,15.45-2.34C267.16,727.28,267.18,725.26,265.88,725.41L265.88,725.41z"/>
<g id="Table_00000080200149056287094410000013101127772724191163_">
	<g id="XMLID_00000069399878125672726030000009355077482140171673_">
		
			<linearGradient id="XMLID_00000150068284096099580720000007481751508634578574_" gradientUnits="userSpaceOnUse" x1="269.8685" y1="1060.9976" x2="269.8685" y2="750.7158">
			<stop  offset="0.164" style="stop-color:#FFFFFF"/>
			<stop  offset="0.3721" style="stop-color:#D6D6D6"/>
			<stop  offset="0.7294" style="stop-color:#BDBCBC"/>
			<stop  offset="1" style="stop-color:#FFFFFF"/>
		</linearGradient>
		
			<path id="XMLID_00000081629143721495419130000015404035971840182714_" style="fill:url(#XMLID_00000150068284096099580720000007481751508634578574_);" d="
			M259.55,691.24V939c0,1.59,1.12,3.53,2.5,4.33l5.32,3.07c1.38,0.8,3.62,0.8,5,0l5.32-3.07c1.38-0.8,2.5-2.74,2.5-4.33V691.24
			c0-1.59-1.12-2.24-2.5-1.44l-5.32,3.07c-1.38,0.8-3.62,0.8-5,0l-5.32-3.07C260.67,689,259.55,689.64,259.55,691.24z"/>
		
			<linearGradient id="XMLID_00000123399217512998361390000013758743035400044949_" gradientUnits="userSpaceOnUse" x1="275.0272" y1="513.468" x2="275.0272" y2="935.2719">
			<stop  offset="0.164" style="stop-color:#FFFFFF"/>
			<stop  offset="0.3721" style="stop-color:#D6D6D6"/>
			<stop  offset="0.7294" style="stop-color:#BDBCBC"/>
			<stop  offset="1" style="stop-color:#FFFFFF"/>
		</linearGradient>
		
			<path id="XMLID_00000125565703054682747070000014586936455778807989_" style="fill:url(#XMLID_00000123399217512998361390000013758743035400044949_);" d="
			M272.37,946.4l5.32-3.07c1.38-0.8,2.5-2.74,2.5-4.33V691.24c0-1.59-1.12-2.24-2.5-1.44l-5.32,3.07c-1.38,0.8-2.5,2.74-2.5,4.33
			l0,247.77C269.87,946.55,270.99,947.2,272.37,946.4z"/>
	</g>
	<g id="XMLID_00000005255151289057773450000017572342221367732894_">
		
			<linearGradient id="XMLID_00000045584788845829501220000016281311500712709045_" gradientUnits="userSpaceOnUse" x1="447.3736" y1="818.3808" x2="705.0825" y2="556.9668">
			<stop  offset="0.164" style="stop-color:#FFFFFF"/>
			<stop  offset="0.3721" style="stop-color:#D6D6D6"/>
			<stop  offset="0.7294" style="stop-color:#BDBCBC"/>
			<stop  offset="1" style="stop-color:#FFFFFF"/>
		</linearGradient>
		
			<path id="XMLID_00000054985848781586526630000006076463405485985444_" style="fill:url(#XMLID_00000045584788845829501220000016281311500712709045_);" d="
			M657.53,470.32v247.77c0,1.59,1.12,3.53,2.5,4.33l5.32,3.07c1.38,0.8,3.62,0.8,5,0l5.32-3.07c1.38-0.8,2.5-2.74,2.5-4.33V470.32
			c0-1.59-1.12-2.24-2.5-1.44l-5.32,3.07c-1.38,0.8-3.62,0.8-5,0l-5.32-3.07C658.65,468.08,657.53,468.73,657.53,470.32z"/>
		
			<linearGradient id="XMLID_00000013895073203559908250000000254117482213210799_" gradientUnits="userSpaceOnUse" x1="673.0071" y1="322.7785" x2="673.0071" y2="641.493">
			<stop  offset="0.164" style="stop-color:#FFFFFF"/>
			<stop  offset="0.3721" style="stop-color:#D6D6D6"/>
			<stop  offset="0.7294" style="stop-color:#BDBCBC"/>
			<stop  offset="1" style="stop-color:#FFFFFF"/>
		</linearGradient>
		
			<path id="XMLID_00000101088824101474610010000016640705443587401344_" style="fill:url(#XMLID_00000013895073203559908250000000254117482213210799_);" d="
			M670.35,725.49l5.32-3.07c1.38-0.8,2.5-2.74,2.5-4.33V470.32c0-1.59-1.12-2.24-2.5-1.44l-5.32,3.07c-1.38,0.8-2.5,2.74-2.5,4.33
			l0,247.77C667.85,725.64,668.97,726.29,670.35,725.49z"/>
	</g>
	<g id="XMLID_00000181768431521598175690000005695774847679029125_">
		
			<linearGradient id="XMLID_00000150096406389658871870000011386605391089387152_" gradientUnits="userSpaceOnUse" x1="24.6724" y1="413.0109" x2="24.6724" y2="676.0398">
			<stop  offset="0.164" style="stop-color:#FFFFFF"/>
			<stop  offset="0.3721" style="stop-color:#D6D6D6"/>
			<stop  offset="0.7294" style="stop-color:#BDBCBC"/>
			<stop  offset="1" style="stop-color:#FFFFFF"/>
		</linearGradient>
		
			<path id="XMLID_00000054254401226705781140000004809295087903226514_" style="fill:url(#XMLID_00000150096406389658871870000011386605391089387152_);" d="
			M14.36,559.36v247.77c0,1.59,1.12,3.53,2.5,4.33l5.32,3.07c1.38,0.8,3.62,0.8,5,0l5.32-3.07c1.38-0.8,2.5-2.74,2.5-4.33V559.36
			c0-1.59-1.12-2.24-2.5-1.44l-5.32,3.07c-1.38,0.8-3.62,0.8-5,0l-5.32-3.07C15.47,557.12,14.36,557.77,14.36,559.36z"/>
		
			<linearGradient id="XMLID_00000153676833694186306880000018192422969127164288_" gradientUnits="userSpaceOnUse" x1="29.8311" y1="934.4676" x2="29.8311" y2="612.9525">
			<stop  offset="0.164" style="stop-color:#FFFFFF"/>
			<stop  offset="0.3721" style="stop-color:#D6D6D6"/>
			<stop  offset="0.7294" style="stop-color:#BDBCBC"/>
			<stop  offset="1" style="stop-color:#FFFFFF"/>
		</linearGradient>
		
			<path id="XMLID_00000133489559157673436700000010958853322960690076_" style="fill:url(#XMLID_00000153676833694186306880000018192422969127164288_);" d="
			M27.17,814.53l5.32-3.07c1.38-0.8,2.5-2.74,2.5-4.33V559.36c0-1.59-1.12-2.24-2.5-1.44l-5.32,3.07c-1.38,0.8-2.5,2.74-2.5,4.33
			l0,247.77C24.67,814.68,25.79,815.33,27.17,814.53z"/>
	</g>
	<g id="XMLID_00000110451209567308249760000009015298718181467298_">
		<g>
			<g id="XMLID_00000043428296340180126350000010089973709674744981_">
				<path id="XMLID_00000101101262631228232240000016959568445334531770_" class="st7" d="M14.21,555.63v-1.81
					c0-2.9,2.04-6.43,4.55-7.88l399.79-230.59c2.51-1.45,6.59-1.45,9.1,0l245.94,142.04c2.51,1.45,4.55,4.98,4.55,7.88v1.81
					c0,2.9-2.04,6.43-4.55,7.88L273.81,705.56c-2.51,1.45-6.59,1.45-9.1,0L18.76,563.52C16.25,562.06,14.21,558.54,14.21,555.63z"/>
				<path id="XMLID_00000030483553903728934550000002761441214472706480_" class="st7" d="M14.21,555.63v-1.81
					c0-2.9,2.04-6.43,4.55-7.88l399.79-230.59c2.51-1.45,6.59-1.45,9.1,0l245.94,142.04c2.51,1.45,4.55,4.98,4.55,7.88v1.81
					c0,2.9-2.04,6.43-4.55,7.88L273.81,705.56c-2.51,1.45-6.59,1.45-9.1,0L18.76,563.52C16.25,562.06,14.21,558.54,14.21,555.63z"/>
			</g>
			<g>
				<path id="XMLID_00000109722981682053475250000000367680240828695226_" class="st8" d="M18.76,551.19L264.7,693.24
					c2.51,1.45,6.59,1.45,9.1,0l399.79-230.59c2.51-1.45,2.51-3.8,0-5.25L427.65,315.35c-2.51-1.45-6.59-1.45-9.1,0L18.76,545.94
					C16.25,547.39,16.25,549.74,18.76,551.19z"/>
				<path id="XMLID_00000027569738297601569050000013599544857113687728_" class="st8" d="M18.76,551.19L264.7,693.24
					c2.51,1.45,6.59,1.45,9.1,0l399.79-230.59c2.51-1.45,2.51-3.8,0-5.25L427.65,315.35c-2.51-1.45-6.59-1.45-9.1,0L18.76,545.94
					C16.25,547.39,16.25,549.74,18.76,551.19z"/>
			</g>
		</g>
	</g>
</g>
<g>
	<polygon class="st7" points="86.39,450.47 83.42,452.19 83.42,451.37 85.57,450.13 85.57,447.98 86.39,447.5 	"/>
	<path class="st7" d="M78.66,454.94l-4.77,2.75v-0.82l4.77-2.75V454.94z M69.12,460.44l-4.77,2.75v-0.82l4.77-2.75V460.44z
		 M59.59,465.95l-4.77,2.75v-0.82l4.77-2.75V465.95z M50.06,471.45l-4.77,2.75v-0.82l4.77-2.75V471.45z M40.53,476.95l-4.77,2.75
		v-0.82l4.77-2.75V476.95z M31,482.46l-4.77,2.75v-0.82l4.77-2.75V482.46z"/>
	<polygon class="st7" points="21.47,487.96 18.49,489.68 18.49,486.7 19.31,486.23 19.31,488.38 21.47,487.14 	"/>
	<path class="st7" d="M19.31,481.47l-0.82,0.47v-4.77l0.82-0.47V481.47z M19.31,471.93l-0.82,0.47v-4.77l0.82-0.47V471.93z
		 M19.31,462.4l-0.82,0.47v-4.77l0.82-0.47V462.4z M19.31,452.87l-0.82,0.47v-4.77l0.82-0.47V452.87z M19.31,443.34l-0.82,0.47
		v-4.77l0.82-0.47V443.34z M19.31,433.81l-0.82,0.47v-4.77l0.82-0.47V433.81z"/>
	<polygon class="st7" points="19.31,424.28 18.49,424.75 18.49,421.78 21.47,420.06 21.47,420.88 19.31,422.12 	"/>
	<path class="st7" d="M78.66,387.86l-4.77,2.75v-0.82l4.77-2.75V387.86z M69.12,393.37l-4.77,2.75v-0.82l4.77-2.75V393.37z
		 M59.59,398.87l-4.77,2.75v-0.82l4.77-2.75V398.87z M50.06,404.37l-4.77,2.75v-0.82l4.77-2.75V404.37z M40.53,409.88l-4.77,2.75
		v-0.82l4.77-2.75V409.88z M31,415.38l-4.77,2.75v-0.82l4.77-2.75V415.38z"/>
	<polygon class="st7" points="86.39,385.55 85.57,386.02 85.57,383.87 83.42,385.11 83.42,384.29 86.39,382.58 	"/>
	<path class="st7" d="M86.39,442.74l-0.82,0.47v-4.77l0.82-0.47V442.74z M86.39,433.21l-0.82,0.47v-4.77l0.82-0.47V433.21z
		 M86.39,423.67l-0.82,0.47v-4.77l0.82-0.47V423.67z M86.39,414.14l-0.82,0.47v-4.77l0.82-0.47V414.14z M86.39,404.61l-0.82,0.47
		v-4.77l0.82-0.47V404.61z M86.39,395.08l-0.82,0.47v-4.77l0.82-0.47V395.08z"/>
</g>
<path id="Icon_ionic-ios-add_00000084502595258801606610000018270277208745701026_" class="st7" d="M71.79,422.11l-14.65,8.46
	v-14.65c0-1.34-1.09-1.8-2.43-1.03c-1.34,0.77-2.43,2.49-2.43,3.83v14.65l-14.65,8.46c-1.34,0.77-2.43,2.49-2.43,3.83
	s1.09,1.8,2.43,1.03l14.65-8.46v14.65c0,1.34,1.09,1.8,2.43,1.03c1.34-0.77,2.43-2.49,2.43-3.83l0,0v-14.65l14.65-8.46
	c1.34-0.77,2.43-2.49,2.43-3.83C74.22,421.8,73.13,421.34,71.79,422.11L71.79,422.11z"/>
<g>
	<polygon class="st7" points="86.39,366.73 83.42,368.45 83.42,367.63 85.57,366.39 85.57,364.23 86.39,363.76 	"/>
	<path class="st7" d="M78.66,371.2l-4.77,2.75v-0.82l4.77-2.75V371.2z M69.12,376.7l-4.77,2.75v-0.82l4.77-2.75V376.7z
		 M59.59,382.21l-4.77,2.75v-0.82l4.77-2.75V382.21z M50.06,387.71l-4.77,2.75v-0.82l4.77-2.75V387.71z M40.53,393.21l-4.77,2.75
		v-0.82l4.77-2.75V393.21z M31,398.71l-4.77,2.75v-0.82L31,397.9V398.71z"/>
	<polygon class="st7" points="21.47,404.22 18.49,405.93 18.49,402.96 19.31,402.49 19.31,404.64 21.47,403.4 	"/>
	<path class="st7" d="M19.31,397.72l-0.82,0.47v-4.77l0.82-0.47V397.72z M19.31,388.19l-0.82,0.47v-4.77l0.82-0.47V388.19z
		 M19.31,378.66l-0.82,0.47v-4.77l0.82-0.47V378.66z M19.31,369.13l-0.82,0.47v-4.77l0.82-0.47V369.13z M19.31,359.6l-0.82,0.47
		v-4.77l0.82-0.47V359.6z M19.31,350.06l-0.82,0.47v-4.77l0.82-0.47V350.06z"/>
	<polygon class="st7" points="19.31,340.53 18.49,341.01 18.49,338.04 21.47,336.32 21.47,337.14 19.31,338.38 	"/>
	<path class="st7" d="M78.66,304.12l-4.77,2.75v-0.82l4.77-2.75V304.12z M69.12,309.62l-4.77,2.75v-0.82l4.77-2.75V309.62z
		 M59.59,315.13l-4.77,2.75v-0.82l4.77-2.75V315.13z M50.06,320.63l-4.77,2.75v-0.82l4.77-2.75V320.63z M40.53,326.13l-4.77,2.75
		v-0.82l4.77-2.75V326.13z M31,331.64l-4.77,2.75v-0.82l4.77-2.75V331.64z"/>
	<polygon class="st7" points="86.39,301.81 85.57,302.28 85.57,300.13 83.42,301.37 83.42,300.55 86.39,298.83 	"/>
	<path class="st7" d="M86.39,359l-0.82,0.47v-4.77l0.82-0.47V359z M86.39,349.46l-0.82,0.47v-4.77l0.82-0.47V349.46z M86.39,339.93
		l-0.82,0.47v-4.77l0.82-0.47V339.93z M86.39,330.4l-0.82,0.47v-4.77l0.82-0.47V330.4z M86.39,320.87l-0.82,0.47v-4.77l0.82-0.47
		V320.87z M86.39,311.34l-0.82,0.47v-4.77l0.82-0.47V311.34z"/>
</g>
<path id="Icon_ionic-ios-add_00000087410738618710522130000009804099331918862253_" class="st7" d="M71.79,338.37l-14.65,8.46
	v-14.65c0-1.34-1.09-1.8-2.43-1.03c-1.34,0.77-2.43,2.49-2.43,3.83v14.65l-14.65,8.46c-1.34,0.77-2.43,2.49-2.43,3.83
	s1.09,1.8,2.43,1.03l14.65-8.46v14.65c0,1.34,1.09,1.8,2.43,1.03c1.34-0.77,2.43-2.49,2.43-3.83l0,0v-14.65l14.65-8.46
	c1.34-0.77,2.43-2.49,2.43-3.83C74.22,338.05,73.13,337.59,71.79,338.37L71.79,338.37z"/>
<g>
	<path class="st9" d="M140.24,313.75c0,2.21-1.34,4.77-3,5.72c-1.65,0.95-3-0.06-3-2.26c0-2.21,1.34-4.77,3-5.72
		C138.9,310.53,140.24,311.54,140.24,313.75z"/>
</g>
<g>
	<g>
		<path id="XMLID_00000119113166380117133140000006699327684600411572_" class="st10" d="M160.64,586.19
			c1.24,4.96,7.07,7.04,9.93,8.69l97.21,55.87c2.86,1.65,7.93,2.89,10.8,1.24l197.16-112.31c2.86-1.65,5.21-5.01,5.21-8.12
			c0-3.1-1.24-4.97-1.24-2.48l-108.18-65.62c-2.86-1.65-7.51-1.65-10.37,0L162.32,578.25C159.46,579.91,159.74,582.58,160.64,586.19
			z"/>
		<path id="XMLID_00000161592844131393220550000006391198789036386959_" class="st11" d="M162.32,584.24l106.7,61.48
			c2.86,1.65,7.51,1.65,10.37,0l196.58-111.67c2.86-1.65,6.35-4.97,3.49-6.62l-107.95-63.96c-2.86-1.65-7.51-1.65-10.37,0
			L162.32,578.25C159.46,579.91,159.46,582.59,162.32,584.24z"/>
	</g>
</g>
<ellipse class="st10" cx="238.45" cy="602.75" rx="14.84" ry="9.13"/>
<ellipse class="st12" cx="238.45" cy="602.75" rx="9.74" ry="5.99"/>
<polygon class="st7" points="220.75,564.94 211.8,559.92 223.44,553.22 223.78,553.8 213.16,559.91 221.08,564.35 "/>
<polygon class="st7" points="310.96,616.97 298.66,610.13 298.98,609.54 310.96,616.2 324.12,609.03 324.45,609.63 "/>
<polygon class="st7" points="455.15,535.59 454.8,535.01 463.75,529.58 454.81,524.68 455.14,524.09 465.09,529.55 "/>
<polygon class="st7" points="375.21,477.24 365.27,471.61 356.1,477.24 355.75,476.66 365.26,470.83 375.55,476.66 "/>
<path id="XMLID_00000057150086924400662790000008194263625490680753_" class="st13" d="M427.62,448.08l95.39,55.09
	c0.97,0.56,2.56,0.56,3.53,0l58.78-33.71c0.97-0.56,0.97-1.48,0-2.04l-95.39-55.09c-0.97-0.56-2.56-0.56-3.53,0l-58.78,33.71
	C426.64,446.6,426.64,447.52,427.62,448.08z"/>
<path id="XMLID_00000150791696454873217250000007686841256238605477_" class="st14" d="M465.06,438.3l95.39,55.09
	c0.97,0.56,2.56,0.56,3.53,0l58.78-33.71c0.97-0.56,0.97-1.48,0-2.04l-95.39-55.09c-0.97-0.56-2.56-0.56-3.53,0l-58.78,33.71
	C464.08,436.82,464.08,437.73,465.06,438.3z"/>
<ellipse class="st10" cx="130.98" cy="539.64" rx="32.5" ry="20"/>
<ellipse class="st11" cx="131.85" cy="537.04" rx="32.5" ry="20"/>
<ellipse class="st15" cx="131.76" cy="533.55" rx="22.88" ry="14.08"/>
<polyline class="st15" points="108.88,533.57 108.88,500.19 154.64,500.19 154.64,533.57 "/>
<ellipse class="st15" cx="131.76" cy="500.19" rx="22.88" ry="14.08"/>
<ellipse class="st16" cx="131.76" cy="500.19" rx="19.69" ry="12.12"/>
<path class="st15" d="M109.44,525.33c-0.51,0-2.62-0.12-4.53-1.96c-2.1-2.02-3.16-5.3-3.16-9.74c0-1.05-0.01-2.05-0.02-2.99
	c-0.06-5.78-0.1-9.6,2.51-11.5c2.26-1.64,5.26-0.64,6.25-0.31l-1.49,4.48c-1.37-0.46-1.88-0.37-1.98-0.34
	c-0.64,0.71-0.6,4.54-0.56,7.63c0.01,0.96,0.02,1.97,0.02,3.04c0,5.4,1.87,6.92,2.98,6.98c-0.06,0-0.09,0-0.09,0l0.17,4.72
	C109.52,525.33,109.49,525.33,109.44,525.33z"/>
<path class="st17" d="M116.31,507.7c0,0,18.26-9.84,30.9,0c0,0-4.24,4.61-15.87,4.61C121.88,512.31,116.31,507.7,116.31,507.7z"/>
<path class="st0" d="M259.95,322.9c4.69-16.95,8.17-34.24,9.97-51.74c0.91-8.8,1.39-17.65,1.39-26.49c0-4.34-0.11-8.67-0.34-13
	c-0.11-2.06-0.36-4.07-0.63-6.11c-0.31-2.34-0.37-4.7-0.54-7.06c-0.63-8.65-1.84-17.25-3.42-25.77c-1.65-8.87-3.51-17.8-6.21-26.42
	c-2.52-8.05-5.29-15.98-8.69-23.71c-3.42-7.78-7.51-15.23-11.88-22.5c-4.3-7.16-8.82-14.07-13.94-20.68
	c-1.21-1.56-2.39-3.17-3.7-4.64c-1.24-1.39-2.67-2.59-3.84-4.02c-2.75-3.36-5.84-6.4-8.84-9.53c-5.84-6.08-12.42-11.54-19.17-16.59
	c-3.29-2.46-6.66-4.83-10.08-7.12c-1.72-1.15-3.46-2.28-5.21-3.39c-0.85-0.54-1.73-1.27-2.65-1.66c-0.93-0.4-1.92-0.58-2.85-1.02
	c-1.62-0.77-3.12-1.79-4.63-2.75c-1.88-1.2-3.94-2.14-5.95-3.11c-3.6-1.74-7.26-3.36-10.97-4.85c-7.76-3.13-15.75-5.69-23.91-7.57
	c-7.98-1.84-16.13-3.03-24.31-3.47c-4.16-0.23-8.33-0.26-12.49-0.09c-3.68,0.15-7.26,0.92-10.85,1.68
	c-14.15,2.96-28.14,7.34-40.85,14.34c-6.23,3.44-12.12,7.52-17.44,12.26c-5.12,4.55-9.94,9.65-13.08,15.8
	c-5.79,11.34-5.91,24.78-1.98,36.73c1.99,6.06,4.99,11.78,8.86,16.85c1.82,2.38,3.82,4.77,6.1,6.74c2.82,2.44,6.15,4.45,9.42,6.21
	c12.97,6.96,27.78,9.39,42.3,10.48c8.44,0.64,16.91,1.03,25.36,0.33c8.45-0.7,16.78-2.26,24.92-4.62
	c8.14-2.37,16.06-5.11,23.81-8.57c7.79-3.47,15.24-7.5,22.58-11.84c14.72-8.71,28.28-18.9,41.81-29.32
	c6.86-5.29,13.62-10.8,20.8-15.65c7.04-4.76,14.26-9.47,22.07-12.85c8.11-3.52,16.57-6.2,25.46-6.65
	c8.86-0.44,17.63,1.15,25.61,5.04c3.9,1.9,7.64,3.88,11.07,6.55c3.31,2.57,6.52,5.18,9.27,8.35c2.6,2.98,4.85,6.24,6.97,9.57
	c2.13,3.35,4.44,6.54,6.12,10.14c7.03,15.06,10.26,31.56,11.76,48.02c0.72,7.94,1.06,15.9,1.29,23.86c0.04,1.3,2.06,1.3,2.02,0
	c-0.45-16.02-1.39-32.13-4.9-47.81c-1.74-7.74-4.12-15.32-7.29-22.59c-0.82-1.87-1.69-3.72-2.61-5.55c-0.83-1.64-2.12-3.03-3.1-4.62
	c-2.01-3.29-4.12-6.52-6.48-9.58c-9.67-12.51-24.94-21.45-40.69-23.16c-16.67-1.8-33,4.27-47.06,12.78
	c-14.65,8.87-27.85,19.78-41.44,30.15c-13.28,10.14-27.16,19.28-41.81,27.31c-7.44,4.08-15.29,7.58-23.25,10.49
	c-7.79,2.85-15.98,5.27-24.15,6.77c-16.28,3-33.06,2.51-49.41,0.22c-7.24-1.01-14.43-2.58-21.3-5.12
	c-6.72-2.49-13.92-5.97-19.05-11.08c-9.1-9.05-14.88-21.66-15.66-34.49c-0.38-6.27,0.45-12.6,2.71-18.47
	c2.51-6.51,6.82-11.81,11.8-16.62c10.48-10.13,23.44-17.26,37.09-22.15c6.79-2.43,13.76-4.34,20.8-5.89
	c3.55-0.78,7.24-1.75,10.88-1.98c4.05-0.26,8.14-0.23,12.2-0.07c16.38,0.67,32.54,4.42,47.79,10.37c4.04,1.58,8.02,3.32,11.93,5.2
	c1.76,0.85,3.57,1.67,5.27,2.64c1.73,0.99,3.31,2.2,5.08,3.11c1.63,0.84,3.39,1.29,4.95,2.27c1.93,1.22,3.85,2.45,5.75,3.72
	c3.43,2.28,6.8,4.64,10.1,7.09c6.79,5.04,13.39,10.54,19.25,16.64c2.86,2.97,5.79,5.87,8.43,9.04c1.22,1.47,2.6,2.74,3.9,4.14
	c1.32,1.43,2.48,3,3.67,4.54c5.14,6.62,9.67,13.56,13.99,20.74c4.37,7.27,8.47,14.73,11.88,22.5c7.02,15.98,11.59,32.83,14.76,49.96
	c1.6,8.67,2.8,17.41,3.38,26.2c0.28,4.19,0.9,8.34,1.11,12.53c0.22,4.44,0.32,8.88,0.3,13.32c-0.08,17.5-2.02,34.95-5.41,52.11
	c-1.64,8.28-3.62,16.49-5.87,24.62C257.65,323.62,259.61,324.15,259.95,322.9L259.95,322.9z"/>
<path class="st0" d="M656.34,307.73c-7.04-42.52-26.2-82.44-52.01-116.66c-4.04-5.35-8.25-10.52-12.62-15.54
	c0.08-0.11,0.17-0.21,0.25-0.32c9.27-11.83,16.83-25.17,23.94-38.37c7.92-14.71,15.18-29.97,20.33-45.89
	c4.3-13.29,6.82-26.65,3.91-40.48c-4.31-20.5-15.76-39.9-36.29-47.25c-17.68-6.34-37.66-2.61-53.92,5.96
	c-16.84,8.88-31.26,23.73-37.23,42.06c-7.78,23.88,2.03,46.93,17.48,65.35c13.7,16.33,30.68,29.59,45.69,44.65
	c4.59,4.6,9.02,9.36,13.31,14.25c-8.76,10.84-19.19,20.33-30.91,27.89c-4.49,2.9-9.17,5.59-14,7.9
	c-5.86-9.07-13.14-17.31-20.76-24.85c-3.38-3.34-7.13-6.21-10.81-9.24c-3.74-3.07-7.63-5.97-11.75-8.51
	c-7.9-4.86-16.97-8.61-26.39-8.39c-8.35,0.19-16.77,3.35-21.71,10.32c-5.54,7.83-5.81,17.89-3.27,26.85
	c5.36,18.84,23.31,26.95,41.5,28.21c17.76,1.23,36.24-4.05,52.4-11.77c8.84,14.45,14.19,31.15,13.02,48.2
	c-1.49,21.72-13.09,40.55-27,56.64c-12.62,14.6-27.52,26.95-43.11,38.24c-16.37,11.86-33.24,22.96-50.84,32.89
	c-18.83,10.61-38.61,19.32-58.69,27.26c-16.25,6.43-33.32,11.97-47.06,23.18c-13.71,11.18-24.55,29.14-19.84,47.34
	c1.64,6.36,5.23,13.59,10.03,18.16c4.62,4.4,10.52,4.97,16.56,3.81c1.28-0.24,0.74-2.19-0.54-1.95c-4.14,0.79-8.5,0.87-12.21-1.42
	c-3.24-2.01-5.45-5.3-7.3-8.56c-5.11-9.01-7.05-18.62-4.24-28.77c5.54-19.99,23.8-32.59,41.79-40.54
	c18.44-8.15,37.54-14.61,55.84-23.12c19.41-9.03,38.4-19.62,56.09-31.63c31.63-21.46,65.92-45.34,83.69-80.38
	c4.46-8.79,7.49-18.29,8.58-28.1c1.18-10.62-0.37-20.7-3.29-30.89c-2.16-7.56-5.5-14.64-9.6-21.27c1.57-0.77,3.11-1.57,4.63-2.38
	c15.61-8.38,29.38-19.85,40.54-33.59c10,11.58,19.12,23.92,27.2,36.92c23.63,37.99,39.05,81.9,39.55,126.98
	c0.49,44.92-13.43,90.41-40.8,126.21c-13.24,17.32-29.84,32.1-48.5,43.43c-18.68,11.34-38.57,21.84-54.32,37.2
	c-7.2,7.02-13,15.15-17.27,24.3c-4.21,9.01-7.22,19.31-6.68,29.35c0.49,9.17,3.15,18.07,8.72,25.48
	c5.76,7.67,14.26,12.89,22.73,17.1c9.91,4.93,20.36,8.85,29.58,15.05c8.92,6,17.22,12.16,23.81,20.77
	c13.16,17.21,18.61,42.01,5.07,60.7c-10.76,14.86-29.45,21.93-47.12,23.86c-22.39,2.44-45.08-2.86-66.22-9.82
	c-10.75-3.54-21.22-7.65-31.67-11.96c-10.58-4.36-21.54-7.87-32.29-11.75c-20.92-7.55-43.09-11.55-65.32-11.64
	c-11.1-0.05-22.18,0.7-33.24,1.56c-4.86,0.38-9.78,0.6-14.6,1.34c-3.02,0.46-5.98,1.28-9,1.75v1.96c0.13,0.03,0.26,0.04,0.41,0.02
	c2.94-0.45,5.81-1.24,8.74-1.71c5.43-0.88,11.02-1.07,16.5-1.49c11.5-0.88,23.03-1.58,34.57-1.36c11.59,0.22,22.99,1.58,34.34,3.95
	c10.73,2.24,20.87,5.8,31.31,9.01c10.78,3.31,21.75,7.56,32.05,12.15c9.7,4.32,20.04,7.69,30.14,10.93
	c20.23,6.49,41.92,11.28,63.28,9.19c15.83-1.55,32.13-6.91,43.84-18.06c13.59-12.94,17.15-32.04,11.59-49.71
	c-2.78-8.85-7.69-16.73-13.72-23.73c-6.59-7.66-14.71-13.24-23.07-18.78c-17.12-11.33-41.01-15.01-52.33-33.82
	c-11.49-19.11-5.16-43.44,6.75-60.77c12.61-18.34,32.3-29.94,51.01-41.23c17.64-10.65,35.42-21.42,49.31-36.88
	c3.51-3.91,7.17-7.53,10.47-11.68c3.04-3.83,5.97-7.75,8.74-11.78c6.12-8.88,11.49-18.24,15.93-28.07
	C657.53,393.19,663.3,349.78,656.34,307.73z M533.63,215.6c-5.16,1.71-10.21,3.68-15.45,5.25c-5.61,1.68-11.73,2.32-17.55,2.73
	c-20.79,1.49-44.2-5.94-49.6-28.46c-2.49-10.4-0.4-23.29,9.6-29.11c9.51-5.54,21.27-4.2,30.96,0.03
	c9.72,4.24,17.07,11.1,25.32,17.49c7.46,5.77,14.01,13.16,19.81,20.63c1.99,2.57,3.88,5.24,5.65,8
	C539.51,213.46,536.6,214.62,533.63,215.6z M590.35,174c-9.01-10.22-18.66-19.83-28.74-29.15c-15.13-13.98-31.12-27.8-41.38-45.96
	c-10.42-18.46-11.09-40.03-0.48-58.56c9.61-16.78,26.38-29.34,44.75-35.03c17.72-5.49,38.02-4.32,52.82,7.79
	c8.39,6.86,14.14,16.36,17.71,26.51c2.14,6.1,3.86,12.67,4.42,19.12c0.59,6.81-0.46,13.7-1.99,20.32
	c-3.72,16.12-10.49,31.53-17.86,46.28c-6.67,13.34-14.07,26.34-22.21,38.84C595.2,167.54,592.85,170.83,590.35,174z"/>
<g>
	<path id="XMLID_00000137099272579825281270000014953306425208462211_" class="st18" d="M111.73,438.25l282.88-162.49
		c3.39-1.95,6.43-7.34,6.43-11.25l-0.09-221.3c0-3.91-2.74-5.49-6.13-3.54L111.73,203.11c-3.39,1.95-6.13,6.71-6.13,10.62l0,220.99
		C105.6,438.62,108.34,440.21,111.73,438.25z"/>
	<path id="XMLID_00000031919443258433569470000012493985616076723858_" class="st19" d="M113.7,422.19l0-205.73
		c0-2.4,1.69-5.33,3.77-6.53L389.06,53.13c2.08-1.2,3.77-0.23,3.77,2.18l0.01,205.73c0,2.4-1.69,5.33-3.77,6.53l-271.61,156.8
		C115.38,425.57,113.7,424.59,113.7,422.19z"/>
	<path id="XMLID_00000019649028235095999810000009297326441966356098_" class="st20" d="M129.85,327.2l0-104.37
		c0-0.73,0.51-1.62,1.15-1.99l82.82-47.82c0.63-0.37,1.15-0.07,1.15,0.66l0,104.37c0,0.73-0.51,1.62-1.15,1.99L131,327.87
		C130.37,328.23,129.85,327.94,129.85,327.2z"/>
	<path id="XMLID_00000162340707438208178030000017067351572543029417_" class="st21" d="M300.95,172.79l0-35.58
		c0-0.25,0.18-0.55,0.39-0.68l28.23-16.3c0.22-0.12,0.39-0.02,0.39,0.23l0,35.58c0,0.25-0.18,0.55-0.39,0.68l-28.24,16.3
		C301.12,173.14,300.95,173.04,300.95,172.79z"/>
	<path id="XMLID_00000113338224108767450370000006484731749488664472_" class="st10" d="M320.46,189.05l0-35.58
		c0-0.25,0.18-0.55,0.39-0.68l28.23-16.3c0.22-0.12,0.39-0.02,0.39,0.23l0,35.58c0,0.25-0.18,0.55-0.39,0.68l-28.24,16.3
		C320.64,189.4,320.46,189.3,320.46,189.05z"/>
	<path id="XMLID_00000124874378905934892740000016215951786460478086_" class="st21" d="M353.64,225.48l0-35.58
		c0-0.25,0.18-0.55,0.39-0.68l28.23-16.3c0.22-0.12,0.39-0.02,0.39,0.23l0,35.58c0,0.25-0.18,0.55-0.39,0.68l-28.24,16.3
		C353.82,225.83,353.64,225.73,353.64,225.48z"/>
	<path id="XMLID_00000058569062877002557270000007717402841972677017_" class="st20" d="M310.71,290.54l0-35.58
		c0-0.25,0.18-0.55,0.39-0.68l28.23-16.3c0.22-0.12,0.39-0.02,0.39,0.23l0,35.58c0,0.25-0.18,0.55-0.39,0.68l-28.24,16.3
		C310.88,290.89,310.71,290.79,310.71,290.54z"/>
	<g>
		<g>
			<path class="st10" d="M140.24,224.62c0,2.21-1.34,4.77-3,5.72c-1.65,0.95-3-0.06-3-2.26c0-2.21,1.34-4.77,3-5.72
				C138.9,221.4,140.24,222.42,140.24,224.62z"/>
		</g>
	</g>
	<g>
		<g>
			<path class="st10" d="M211.8,182.99c0,2.21-1.34,4.77-3,5.72c-1.65,0.95-3-0.06-3-2.26c0-2.21,1.34-4.77,3-5.72
				C210.46,179.77,211.8,180.78,211.8,182.99z"/>
		</g>
	</g>
	<g>
		<g>
			<path class="st10" d="M271.36,185.45c0-0.19-0.13-0.27-0.3-0.17l-21.63,12.49c-0.17,0.1-0.3,0.33-0.3,0.52l0,72.8
				c0,0.19,0.13,0.27,0.3,0.17l21.63-12.49c0.17-0.1,0.3-0.33,0.3-0.52L271.36,185.45z M260.85,204.58
				c-2.03,1.17-3.67-0.07-3.67-2.78c0-2.71,1.65-5.85,3.67-7.02c2.03-1.17,3.67,0.07,3.67,2.78
				C264.53,200.26,262.88,203.41,260.85,204.58z"/>
		</g>
	</g>
	<g>
		<g>
			<path class="st10" d="M211.8,272.11c0,2.21-1.34,4.77-3,5.72c-1.65,0.95-3-0.06-3-2.26c0-2.21,1.34-4.77,3-5.72
				C210.46,268.89,211.8,269.91,211.8,272.11z"/>
		</g>
	</g>
	<path class="st8" d="M156.75,241.05c-2.13,1.5-3.78,3.58-4.78,5.98c-0.49,1.18-0.81,2.42-0.95,3.68c-0.15,1.31-0.07,2.71,0.89,3.7
		c0.75,0.77,1.85,1.14,2.91,1.15c1.21,0.02,2.32-0.46,3.25-1.22c1.01-0.82,1.75-1.95,2.33-3.1c0.66-1.31,1.16-2.71,1.51-4.14
		c0.33-1.37,0.64-2.85,0.36-4.26c-0.23-1.15-0.92-2.16-2.16-2.29c-0.65-0.06-0.64,0.95,0,1.01c0.8,0.08,1.1,1.02,1.21,1.7
		c0.17,1.06-0.07,2.17-0.3,3.2c-0.51,2.28-1.38,4.81-3.01,6.55c-0.69,0.74-1.58,1.36-2.6,1.5c-0.86,0.12-1.83-0.06-2.53-0.6
		c-0.94-0.73-0.97-1.93-0.86-3.02c0.11-1.09,0.38-2.17,0.77-3.19c0.88-2.31,2.46-4.37,4.48-5.8
		C157.79,241.55,157.28,240.67,156.75,241.05L156.75,241.05z"/>
	<path class="st8" d="M157.15,258.74c-0.23,6.03-0.46,12.06-0.69,18.1c-0.07,1.73-0.13,3.46-0.2,5.19c-0.02,0.65,0.99,0.65,1.01,0
		c0.23-6.03,0.46-12.06,0.69-18.1c0.07-1.73,0.13-3.46,0.2-5.19C158.19,258.09,157.18,258.09,157.15,258.74L157.15,258.74z"/>
	<path class="st8" d="M165.3,253.47c-2,2.82-3.99,5.63-5.99,8.45c-0.41,0.58-0.8,1.21-1.33,1.69c-0.57,0.51-1.27,0.58-1.99,0.41
		c-0.79-0.19-1.54-0.53-2.29-0.82c-0.77-0.3-1.55-0.6-2.32-0.9c-1.81-0.7-3.61-1.4-5.42-2.1c-0.61-0.24-0.87,0.74-0.27,0.98
		c1.7,0.66,3.41,1.32,5.11,1.98c0.83,0.32,1.65,0.64,2.48,0.96c0.8,0.31,1.61,0.68,2.45,0.88c0.76,0.18,1.55,0.19,2.27-0.17
		c0.61-0.3,1.06-0.83,1.46-1.36c1.08-1.44,2.08-2.93,3.12-4.4c1.2-1.69,2.4-3.39,3.6-5.08C166.55,253.44,165.68,252.94,165.3,253.47
		L165.3,253.47z"/>
	<path class="st8" d="M151.98,295.05c1.7-4.39,3.39-8.78,5.09-13.16c-0.28,0.07-0.56,0.15-0.85,0.22c2.63,2.71,5.26,5.42,7.89,8.13
		c0.45,0.47,1.17-0.25,0.72-0.72c-2.63-2.71-5.26-5.42-7.89-8.13c-0.29-0.3-0.71-0.12-0.85,0.22c-1.7,4.39-3.39,8.78-5.09,13.16
		C150.77,295.39,151.75,295.66,151.98,295.05L151.98,295.05z"/>
	<path class="st8" d="M156.13,226.66c0.62,1.61,1.23,3.23,1.85,4.84c0.3,0.78,0.59,1.56,0.89,2.34c0.24,0.6,0.59,1.17,1.32,1.14
		c0.74-0.03,1.41-0.68,1.98-1.07c0.69-0.48,1.39-0.95,2.08-1.43c1.43-0.98,2.86-1.97,4.29-2.95c0.53-0.37,0.03-1.24-0.51-0.87
		c-1.25,0.86-2.49,1.71-3.74,2.57c-1.25,0.86-2.47,1.79-3.77,2.58c-0.25,0.16-0.44,0.25-0.6-0.03c-0.17-0.3-0.27-0.67-0.39-0.99
		c-0.27-0.7-0.54-1.4-0.8-2.11c-0.55-1.43-1.09-2.86-1.64-4.29C156.88,225.79,155.9,226.05,156.13,226.66L156.13,226.66z"/>
	<path class="st16" d="M174.39,255.02c-0.71,0.36-1.41,0.73-2.12,1.09c0.12,0.03,0.23,0.06,0.35,0.09c-0.62-0.82,0.06-2,0.96-2.26
		c0.63-0.18,1.31-0.01,1.88,0.27c0.56,0.28,0.97,0.72,1.47,1.08c0.38,0.27,0.85,0.43,1.3,0.22c0.42-0.2,0.66-0.63,0.85-1.03
		c0.55-1.16,0.93-2.41,1.11-3.68c0.09-0.62,0.14-1.25,0.14-1.88c0-0.48-0.01-1.02-0.32-1.41c-0.66-0.82-1.71-0.2-2.25,0.43
		c-0.58,0.69-1.03,1.79-0.82,2.71c0.22,0.95,1.12,1.28,2,1.26c1.04-0.02,2.38-0.38,3.03,0.7c0.56,0.94,0.38,2.23,0.17,3.24
		c0.08-0.06,0.16-0.12,0.24-0.19c-0.42,0.01-0.68-0.38-0.71-0.77c-0.03-0.43,0.21-0.85,0.41-1.21c0.4-0.72,0.82-1.43,1.23-2.15
		c0.86-1.49,1.71-2.99,2.57-4.48c0.07-0.12,0.03-0.28-0.09-0.35c-0.87-0.48-1.95,0.12-2.23,1.03c-0.31,1,0.5,1.91,1.41,2.2
		c1.1,0.34,2.19-0.24,2.87-1.09c0.85-1.07,1.02-2.46,1.17-3.77c-0.17,0-0.34,0-0.51,0c-0.1,0.92,0.9,1.49,1.72,1.41
		c1.1-0.11,1.71-1.25,2.15-2.13c-0.16-0.04-0.31-0.09-0.47-0.13c0.14,1.48,2.02,2.23,3.24,1.5c1.51-0.9,1.21-3.21-0.01-4.21
		c-0.08,0.14-0.16,0.28-0.25,0.42c1.07,0.34,1.85,1.24,2.07,2.34c0.04,0.22,0.36,0.24,0.46,0.06c0.83-1.47,1.34-3.07,1.54-4.75
		c-0.08,0.08-0.17,0.17-0.25,0.25c1.38,0.14,2.37,1.63,2.02,2.95c-0.06,0.23,0.26,0.45,0.42,0.25c1.05-1.29,1.58-2.91,1.47-4.58
		c-0.02-0.27-0.42-0.36-0.5-0.07c-0.14,0.58,0.18,1.08,0.69,1.35c0.58,0.3,1.22,0.22,1.73-0.18c1.28-0.99,1-2.94,2.24-3.94
		c-0.14-0.06-0.29-0.12-0.43-0.18c-0.02,0.88,0.16,2.63,1.42,2.55c0.8-0.05,1.62-1.14,0.79-1.72c-0.27-0.19-0.52,0.25-0.26,0.44
		c0.24,0.17,0.01,0.46-0.15,0.59c-0.24,0.2-0.53,0.25-0.78,0.05c-0.54-0.42-0.53-1.29-0.52-1.91c0-0.24-0.27-0.31-0.43-0.18
		c-0.94,0.76-1.04,1.98-1.53,3.01c-0.24,0.5-0.65,1.11-1.27,1.15c-0.48,0.03-1.15-0.33-1.01-0.89c-0.17-0.02-0.33-0.04-0.5-0.07
		c0.1,1.53-0.36,3.03-1.33,4.22c0.14,0.08,0.28,0.16,0.42,0.25c0.44-1.66-0.81-3.42-2.5-3.59c-0.15-0.01-0.24,0.13-0.25,0.25
		c-0.19,1.58-0.69,3.1-1.47,4.49c0.15,0.02,0.31,0.04,0.46,0.06c-0.25-1.27-1.19-2.3-2.42-2.69c-0.23-0.07-0.44,0.26-0.25,0.42
		c0.94,0.77,1.33,2.56,0.19,3.36c-0.86,0.6-2.46,0.13-2.56-1.01c-0.02-0.23-0.35-0.37-0.47-0.13c-0.34,0.68-0.73,1.5-1.47,1.81
		c-0.59,0.24-1.54-0.09-1.46-0.83c0.03-0.32-0.47-0.32-0.51,0c-0.12,1-0.23,2.05-0.72,2.95c-0.4,0.73-1.1,1.42-1.97,1.5
		c-0.74,0.08-1.65-0.38-1.8-1.17c-0.14-0.78,0.78-1.62,1.52-1.21c-0.03-0.12-0.06-0.23-0.09-0.35c-1.08,1.88-2.15,3.76-3.23,5.64
		c-0.42,0.73-1.07,1.57-1.04,2.46c0.02,0.66,0.52,1.29,1.21,1.27c0.11,0,0.22-0.08,0.24-0.19c0.29-1.42,0.51-3.66-1.08-4.42
		c-0.82-0.4-1.74-0.17-2.61-0.15c-0.45,0.01-0.95-0.03-1.27-0.4c-0.4-0.45-0.29-1.11-0.11-1.64c0.16-0.46,0.39-0.9,0.73-1.25
		c0.39-0.39,1.16-0.83,1.44-0.07c0.19,0.51,0.1,1.19,0.06,1.72c-0.04,0.63-0.13,1.26-0.27,1.88c-0.13,0.59-0.31,1.18-0.52,1.74
		c-0.19,0.49-0.43,1.33-0.91,1.63c-0.53,0.33-1.04-0.27-1.42-0.58c-0.42-0.35-0.89-0.65-1.4-0.84c-0.95-0.36-2.09-0.31-2.81,0.47
		c-0.59,0.64-0.85,1.65-0.29,2.4c0.09,0.11,0.21,0.16,0.35,0.09c0.71-0.36,1.41-0.73,2.12-1.09
		C174.93,255.3,174.68,254.87,174.39,255.02L174.39,255.02z"/>
	<path class="st16" d="M174.81,265.07c0.92-0.45,1.95-1,2.36-2.01c0.33-0.8,0-1.84-0.76-2.28c-0.81-0.46-1.69,0.13-1.85,0.98
		c-0.2,1.05,0.54,1.86,1.38,2.35c0.89,0.51,1.99,0.92,3.03,0.76c1.05-0.16,1.66-1,1.87-1.99c0.23-1.05,0.11-2.22,1.01-2.98
		c0.36-0.31,0.93-0.55,1.31-0.13c0.35,0.4,0.37,0.99,0.86,1.29c0.92,0.57,1.78-0.54,2.07-1.3c0.3-0.78,0.15-2.69,1.34-2.75
		c-0.07-0.13-0.15-0.25-0.22-0.38c-0.44,0.68-0.91,1.48-0.7,2.32c0.16,0.64,0.71,1.2,1.41,1.1c0.67-0.09,1.14-0.75,1.23-1.38
		c0.13-0.9-0.46-1.71-0.97-2.39c0,0.09,0,0.17,0,0.26c0.91-1.23,2.27-2.04,3.78-2.3c-0.1-0.04-0.19-0.08-0.29-0.12
		c0.28,0.65,0.42,1.33,0.41,2.04c0,0.15,0.12,0.24,0.25,0.25c2.53,0.27,3.66-2.42,4.29-4.37c-0.15,0.02-0.31,0.04-0.46,0.06
		c0.21,0.47,0.42,0.94,0.63,1.41c0.15-0.09,0.29-0.17,0.44-0.26c-0.45-0.86,0.14-2.11,1.13-2.25c1.09-0.15,1.93,1.12,1.58,2.09
		c0.17,0.02,0.33,0.04,0.5,0.07c0.04-0.93,0.18-2.23,1.1-2.73c0.63-0.34,1.82-0.07,1.78,0.8c-0.01,0.2,0.22,0.31,0.38,0.22
		c1.4-0.8,2.1-2.53,1.64-4.08c-0.08-0.28-0.48-0.21-0.5,0.07c-0.05,0.8-0.63,1.5-0.6,2.31c0.03,0.55,0.35,1.2,0.91,1.37
		c0.71,0.21,1.17-0.48,1.47-1.01c0.43-0.77,0.68-1.61,0.77-2.48c0.03-0.32-0.47-0.32-0.51,0c-0.06,0.55-0.86,3.72-1.79,2.87
		c-0.43-0.39-0.37-0.97-0.2-1.46c0.18-0.54,0.42-1.03,0.46-1.6c-0.17,0.02-0.33,0.04-0.5,0.07c0.4,1.34-0.2,2.82-1.41,3.51
		c0.13,0.07,0.25,0.15,0.38,0.22c0.05-1.12-1.28-1.66-2.23-1.37c-1.34,0.42-1.62,2.1-1.67,3.3c-0.01,0.3,0.4,0.32,0.5,0.07
		c0.47-1.32-0.71-2.92-2.14-2.72c-1.35,0.18-2.11,1.83-1.5,3c0.15,0.29,0.57,0.04,0.44-0.26c-0.21-0.47-0.42-0.94-0.63-1.41
		c-0.1-0.21-0.4-0.13-0.46,0.06c-0.56,1.75-1.52,4.25-3.81,4c0.08,0.08,0.17,0.17,0.25,0.25c0.01-0.8-0.16-1.56-0.48-2.3
		c-0.05-0.11-0.18-0.13-0.29-0.12c-1.64,0.29-3.09,1.2-4.08,2.54c-0.05,0.06-0.05,0.19,0,0.26c0.36,0.47,0.75,0.98,0.88,1.57
		c0.11,0.52-0.09,1.25-0.67,1.42c-0.57,0.17-0.95-0.42-0.99-0.91c-0.05-0.63,0.36-1.23,0.69-1.73c0.1-0.16-0.03-0.39-0.22-0.38
		c-1.83,0.1-1.35,2.61-2.13,3.67c-0.22,0.3-0.63,0.7-1.03,0.45c-0.4-0.25-0.44-0.87-0.75-1.21c-0.5-0.54-1.25-0.43-1.81-0.04
		c-0.68,0.48-1.02,1.18-1.15,1.99c-0.14,0.88-0.12,2.01-0.85,2.64c-0.8,0.69-2.03,0.37-2.9-0.01c-0.83-0.37-1.94-1.01-1.78-2.08
		c0.07-0.48,0.48-0.94,1-0.74c0.46,0.17,0.74,0.74,0.75,1.2c0.04,1.16-1.38,1.83-2.24,2.26
		C174.27,264.78,174.52,265.21,174.81,265.07L174.81,265.07z"/>
	<path class="st18" d="M267.67,189.33c0-1.8-1.46-3.25-3.25-3.25s-3.25,1.46-3.25,3.25c0,0.78,0.29,1.49,0.75,2.05l-2.7,5.11
		c0,0,0.41,2.73,3.78,1.69l2.16-5.69C266.6,192.16,267.67,190.87,267.67,189.33z"/>
</g>
<path class="st8" d="M168.09,214.4c-2.5,6.49-5.28,12.87-8.32,19.13c-0.28,0.58,0.59,1.1,0.87,0.51c2.39-4.92,4.63-9.91,6.69-14.98
	c0.59-1.46,1.17-2.92,1.74-4.39C169.3,214.07,168.32,213.8,168.09,214.4L168.09,214.4z"/>
<linearGradient id="SVGID_1_" gradientUnits="userSpaceOnUse" x1="385.5548" y1="499.2189" x2="361.7825" y2="546.7634">
	<stop  offset="0.1611" style="stop-color:#5B6574"/>
	<stop  offset="0.3603" style="stop-color:#0A192F"/>
	<stop  offset="0.7179" style="stop-color:#3B4759"/>
	<stop  offset="1" style="stop-color:#0A192F"/>
</linearGradient>
<path class="st22" d="M341.38,516.57l60.23,32.17c0.07,0.04,0.14,0.05,0.22,0.04c0.8-0.1,5.34-0.93,4.78-6.91
	c-0.01-0.13-0.09-0.24-0.2-0.3l-59.07-30.66c-0.03-0.02-0.06-0.03-0.1-0.03l-9.98-2.06c-0.32-0.07-0.57,0.29-0.4,0.57l4.37,7.05
	C341.27,516.49,341.32,516.54,341.38,516.57z"/>
</svg>
