<?xml version="1.0" encoding="utf-8"?>
<!-- Generator: Adobe Illustrator 25.4.1, SVG Export Plug-In . SVG Version: 6.00 Build 0)  -->
<svg version="1.1" id="Laag_1" xmlns="http://www.w3.org/2000/svg" xmlns:xlink="http://www.w3.org/1999/xlink" x="0px" y="0px"
	 viewBox="0 0 361.5 370.8" style="enable-background:new 0 0 361.5 370.8;" xml:space="preserve">
<style type="text/css">
	.st0{fill:#CCD6F6;}
	.st1{fill:#FFBF3F;}
	.st2{fill:#E3AC0C;}
	.st3{opacity:0.93;fill:#FFFFFF;}
	.st4{fill:#F9D995;}
	.st5{fill:#FFFFFF;}
	.st6{fill:#43AC9C;}
	.st7{fill:#00865F;}
	.st8{fill:#64FFDA;}
	.st9{opacity:0.5;fill:#FFFFFF;}
	.st10{opacity:0.2;fill:#00865F;}
	.st11{fill:#37474F;}
	.st12{opacity:0.2;fill:#64FFDA;}
	.st13{fill:#11543E;}
</style>
<g>
	<g id="Laptop_00000134220047914483552280000005058326724383598487_">
		<g>
			<polygon class="st0" points="107.2,257.8 103.7,257.8 103.7,254.3 104.5,254.3 104.5,257 107.2,257 			"/>
			<path class="st0" d="M351.5,257.8h-6.4V257h6.4V257.8z M338.7,257.8h-6.4V257h6.4V257.8z M325.8,257.8h-6.4V257h6.4V257.8z
				 M313,257.8h-6.4V257h6.4V257.8z M300.1,257.8h-6.4V257h6.4V257.8z M287.2,257.8h-6.4V257h6.4V257.8z M274.4,257.8H268V257h6.4
				V257.8z M261.5,257.8h-6.4V257h6.4V257.8z M248.7,257.8h-6.4V257h6.4V257.8z M235.8,257.8h-6.4V257h6.4V257.8z M223,257.8h-6.4
				V257h6.4V257.8z M210.1,257.8h-6.4V257h6.4V257.8z M197.2,257.8h-6.4V257h6.4V257.8z M184.4,257.8H178V257h6.4V257.8z
				 M171.5,257.8h-6.4V257h6.4V257.8z M158.7,257.8h-6.4V257h6.4V257.8z M145.8,257.8h-6.4V257h6.4V257.8z M132.9,257.8h-6.4V257
				h6.4V257.8z M120.1,257.8h-6.4V257h6.4V257.8z"/>
			<polygon class="st0" points="361.5,257.8 358,257.8 358,257 360.7,257 360.7,254.3 361.5,254.3 			"/>
			<path class="st0" d="M361.5,247.8h-0.8v-6.4h0.8V247.8z M361.5,235h-0.8v-6.4h0.8V235z M361.5,222.1h-0.8v-6.4h0.8V222.1z
				 M361.5,209.3h-0.8v-6.4h0.8V209.3z M361.5,196.4h-0.8V190h0.8V196.4z M361.5,183.5h-0.8v-6.4h0.8V183.5z M361.5,170.7h-0.8v-6.4
				h0.8V170.7z M361.5,157.8h-0.8v-6.4h0.8V157.8z M361.5,145h-0.8v-6.4h0.8V145z M361.5,132.1h-0.8v-6.4h0.8V132.1z M361.5,119.3
				h-0.8v-6.4h0.8V119.3z M361.5,106.4h-0.8V100h0.8V106.4z M361.5,93.5h-0.8v-6.4h0.8V93.5z M361.5,80.7h-0.8v-6.4h0.8V80.7z
				 M361.5,67.8h-0.8v-6.4h0.8V67.8z M361.5,55h-0.8v-6.4h0.8V55z M361.5,42.1h-0.8v-6.4h0.8V42.1z M361.5,29.2h-0.8v-6.4h0.8V29.2z
				 M361.5,16.4h-0.8V10h0.8V16.4z"/>
			<polygon class="st0" points="361.5,3.5 360.7,3.5 360.7,0.8 358,0.8 358,0 361.5,0 			"/>
			<path class="st0" d="M351.5,0.8h-6.4V0h6.4V0.8z M338.7,0.8h-6.4V0h6.4V0.8z M325.8,0.8h-6.4V0h6.4V0.8z M313,0.8h-6.4V0h6.4V0.8
				z M300.1,0.8h-6.4V0h6.4V0.8z M287.2,0.8h-6.4V0h6.4V0.8z M274.4,0.8H268V0h6.4V0.8z M261.5,0.8h-6.4V0h6.4V0.8z M248.7,0.8h-6.4
				V0h6.4V0.8z M235.8,0.8h-6.4V0h6.4V0.8z M223,0.8h-6.4V0h6.4V0.8z M210.1,0.8h-6.4V0h6.4V0.8z M197.2,0.8h-6.4V0h6.4V0.8z
				 M184.4,0.8H178V0h6.4V0.8z M171.5,0.8h-6.4V0h6.4V0.8z M158.7,0.8h-6.4V0h6.4V0.8z M145.8,0.8h-6.4V0h6.4V0.8z M132.9,0.8h-6.4
				V0h6.4V0.8z M120.1,0.8h-6.4V0h6.4V0.8z"/>
			<polygon class="st0" points="104.5,3.5 103.7,3.5 103.7,0 107.2,0 107.2,0.8 104.5,0.8 			"/>
			<path class="st0" d="M104.5,247.8h-0.8v-6.4h0.8V247.8z M104.5,235h-0.8v-6.4h0.8V235z M104.5,222.1h-0.8v-6.4h0.8V222.1z
				 M104.5,209.3h-0.8v-6.4h0.8V209.3z M104.5,196.4h-0.8V190h0.8V196.4z M104.5,183.5h-0.8v-6.4h0.8V183.5z M104.5,170.7h-0.8v-6.4
				h0.8V170.7z M104.5,157.8h-0.8v-6.4h0.8V157.8z M104.5,145h-0.8v-6.4h0.8V145z M104.5,132.1h-0.8v-6.4h0.8V132.1z M104.5,119.3
				h-0.8v-6.4h0.8V119.3z M104.5,106.4h-0.8V100h0.8V106.4z M104.5,93.5h-0.8v-6.4h0.8V93.5z M104.5,80.7h-0.8v-6.4h0.8V80.7z
				 M104.5,67.8h-0.8v-6.4h0.8V67.8z M104.5,55h-0.8v-6.4h0.8V55z M104.5,42.1h-0.8v-6.4h0.8V42.1z M104.5,29.2h-0.8v-6.4h0.8V29.2z
				 M104.5,16.4h-0.8V10h0.8V16.4z"/>
		</g>
		<g>
			<polygon class="st0" points="17.7,317.5 14.1,317.5 14.1,314 14.9,314 14.9,316.8 17.7,316.8 			"/>
			<path class="st0" d="M262,317.5h-6.4v-0.8h6.4V317.5z M249.1,317.5h-6.4v-0.8h6.4V317.5z M236.3,317.5h-6.4v-0.8h6.4V317.5z
				 M223.4,317.5H217v-0.8h6.4V317.5z M210.5,317.5h-6.4v-0.8h6.4V317.5z M197.7,317.5h-6.4v-0.8h6.4V317.5z M184.8,317.5h-6.4v-0.8
				h6.4V317.5z M172,317.5h-6.4v-0.8h6.4V317.5z M159.1,317.5h-6.4v-0.8h6.4V317.5z M146.2,317.5h-6.4v-0.8h6.4V317.5z M133.4,317.5
				H127v-0.8h6.4V317.5z M120.5,317.5h-6.4v-0.8h6.4V317.5z M107.7,317.5h-6.4v-0.8h6.4V317.5z M94.8,317.5h-6.4v-0.8h6.4V317.5z
				 M82,317.5h-6.4v-0.8H82V317.5z M69.1,317.5h-6.4v-0.8h6.4V317.5z M56.2,317.5h-6.4v-0.8h6.4V317.5z M43.4,317.5H37v-0.8h6.4
				V317.5z M30.5,317.5h-6.4v-0.8h6.4V317.5z"/>
			<polygon class="st0" points="271.9,317.5 268.4,317.5 268.4,316.8 271.1,316.8 271.1,314 271.9,314 			"/>
			<path class="st0" d="M271.9,307.6h-0.8v-6.4h0.8V307.6z M271.9,294.7h-0.8v-6.4h0.8V294.7z M271.9,281.9h-0.8v-6.4h0.8V281.9z
				 M271.9,269h-0.8v-6.4h0.8V269z M271.9,256.1h-0.8v-6.4h0.8V256.1z M271.9,243.3h-0.8v-6.4h0.8V243.3z M271.9,230.4h-0.8V224h0.8
				V230.4z M271.9,217.6h-0.8v-6.4h0.8V217.6z M271.9,204.7h-0.8v-6.4h0.8V204.7z M271.9,191.9h-0.8v-6.4h0.8V191.9z M271.9,179
				h-0.8v-6.4h0.8V179z M271.9,166.1h-0.8v-6.4h0.8V166.1z M271.9,153.3h-0.8v-6.4h0.8V153.3z M271.9,140.4h-0.8V134h0.8V140.4z
				 M271.9,127.6h-0.8v-6.4h0.8V127.6z M271.9,114.7h-0.8v-6.4h0.8V114.7z M271.9,101.8h-0.8v-6.4h0.8V101.8z M271.9,89h-0.8v-6.4
				h0.8V89z M271.9,76.1h-0.8v-6.4h0.8V76.1z"/>
			<polygon class="st0" points="271.9,63.3 271.1,63.3 271.1,60.5 268.4,60.5 268.4,59.7 271.9,59.7 			"/>
			<path class="st0" d="M262,60.5h-6.4v-0.8h6.4V60.5z M249.1,60.5h-6.4v-0.8h6.4V60.5z M236.3,60.5h-6.4v-0.8h6.4V60.5z
				 M223.4,60.5H217v-0.8h6.4V60.5z M210.5,60.5h-6.4v-0.8h6.4V60.5z M197.7,60.5h-6.4v-0.8h6.4V60.5z M184.8,60.5h-6.4v-0.8h6.4
				V60.5z M172,60.5h-6.4v-0.8h6.4V60.5z M159.1,60.5h-6.4v-0.8h6.4V60.5z M146.2,60.5h-6.4v-0.8h6.4V60.5z M133.4,60.5H127v-0.8
				h6.4V60.5z M120.5,60.5h-6.4v-0.8h6.4V60.5z M107.7,60.5h-6.4v-0.8h6.4V60.5z M94.8,60.5h-6.4v-0.8h6.4V60.5z M82,60.5h-6.4v-0.8
				H82V60.5z M69.1,60.5h-6.4v-0.8h6.4V60.5z M56.2,60.5h-6.4v-0.8h6.4V60.5z M43.4,60.5h-6.4v-0.8h6.4V60.5z M30.5,60.5h-6.4v-0.8
				h6.4V60.5z"/>
			<polygon class="st0" points="14.9,63.3 14.1,63.3 14.1,59.7 17.7,59.7 17.7,60.5 14.9,60.5 			"/>
			<path class="st0" d="M14.9,307.6h-0.8v-6.4h0.8V307.6z M14.9,294.7h-0.8v-6.4h0.8V294.7z M14.9,281.9h-0.8v-6.4h0.8V281.9z
				 M14.9,269h-0.8v-6.4h0.8V269z M14.9,256.1h-0.8v-6.4h0.8V256.1z M14.9,243.3h-0.8v-6.4h0.8V243.3z M14.9,230.4h-0.8V224h0.8
				V230.4z M14.9,217.6h-0.8v-6.4h0.8V217.6z M14.9,204.7h-0.8v-6.4h0.8V204.7z M14.9,191.9h-0.8v-6.4h0.8V191.9z M14.9,179h-0.8
				v-6.4h0.8V179z M14.9,166.1h-0.8v-6.4h0.8V166.1z M14.9,153.3h-0.8v-6.4h0.8V153.3z M14.9,140.4h-0.8V134h0.8V140.4z M14.9,127.6
				h-0.8v-6.4h0.8V127.6z M14.9,114.7h-0.8v-6.4h0.8V114.7z M14.9,101.8h-0.8v-6.4h0.8V101.8z M14.9,89h-0.8v-6.4h0.8V89z
				 M14.9,76.1h-0.8v-6.4h0.8V76.1z"/>
		</g>
		<g>
			<g>
				<path class="st1" d="M318.7,294.5V141c0-3.3-2.3-7.2-5.1-8.8L115.5,19.5c2.2-1.6,7.1-3.7,9.7-2.1l193.2,113
					c2.8,1.6,5.1,5.6,5.1,8.8l0,151.1c0,3.3,0,5.6-2.5,7.4c-2.7,1.9-5.6,2.7-9.9-0.2l-193.2-113l195.7,113
					C317,298.4,318.7,296.3,318.7,294.5z"/>
				<path class="st2" d="M116,19.2c1.3-0.5,1.8-1.2,8.1,2.4l189.5,110.6c2.8,1.6,5.1,5.6,5.1,8.8v153.5c0,3-3.3,3.8-5.1,2.9
					l-195.7-113c-2.8-1.6-5.1-5.6-5.1-8.8V25.4c0-0.9,0-1.6,0.1-2.3C113.3,21.2,115,19.6,116,19.2z"/>
			</g>
			<path id="XMLID_00000057859951386447674450000016514166363198603696_" class="st3" d="M315.7,144.6v146.2c0,1.3-0.1,4.3-2.8,2.7
				L121.3,182.4c-2.7-1.6-4.9-5.4-4.9-8.6V27.7c0-3.2,2.2-4.4,4.9-2.9l189.5,109.4C313.5,135.8,315.7,139.6,315.7,144.6z"/>
		</g>
		<g>
			<g>
				<path id="XMLID_00000008144927599332233370000017899833034045623179_" class="st2" d="M315.3,305.2c-1.2,4.9-7,6.9-9.8,8.6
					l-95.7,55c-2.8,1.6-7.8,2.8-10.6,1.2L5.1,259.5c-2.8-1.6-5.1-4.9-5.1-8c0-3.1,1.2-4.9,1.2-2.4l106.5-64.6
					c2.8-1.6,7.4-1.6,10.2,0l195.7,113C316.4,299,316.1,301.7,315.3,305.2z"/>
				<path id="XMLID_00000063621838272456657040000004914846107390721194_" class="st4" d="M313.6,303.3l-105,60.5
					c-2.8,1.6-7.4,1.6-10.2,0L4.9,253.9c-2.8-1.6-6.2-4.9-3.4-6.5l106.2-63c2.8-1.6,7.4-1.6,10.2,0l195.7,113
					C316.4,299,316.4,301.7,313.6,303.3z"/>
			</g>
			<g id="XMLID_00000093891248006479391180000001694495464750616724_">
				<path id="XMLID_00000037665129427233324280000007427604284934888844_" class="st5" d="M296.2,300.1L114.6,195.2
					c-1.4-0.8-3.5-0.9-4.7-0.3l-47.3,27.3c-1.2,0.7-1,1.9,0.4,2.7l181.4,104.7c1.4,0.8,3.5,0.9,4.7,0.3l47.5-27.2
					C297.8,302.1,297.6,300.9,296.2,300.1z"/>
				<path class="st1" d="M132.6,215l5.7,3.3c0.2,0.1,0.6,0.2,0.8,0l5-2.9c0.2-0.1,0.2-0.3-0.1-0.5l-5.7-3.3c-0.2-0.1-0.6-0.2-0.8,0
					l-5,2.9C132.3,214.6,132.4,214.8,132.6,215z"/>
				<path class="st1" d="M239.8,312.8l5-2.9c0.2-0.1,0.5-0.1,0.8,0l5.7,3.3c0.2,0.2,0.3,0.4,0.1,0.5l-5,2.9c-0.2,0.1-0.6,0.1-0.8,0
					l-5.7-3.3C239.7,313.1,239.6,312.9,239.8,312.8z"/>
				<path class="st1" d="M272.5,304.4l5-2.9c0.2-0.1,0.6-0.1,0.8,0l5.7,3.3c0.2,0.1,0.3,0.3,0.1,0.5l-5,2.9c-0.2,0.1-0.6,0.1-0.8,0
					l-5.7-3.3C272.3,304.7,272.3,304.5,272.5,304.4z"/>
				<path class="st1" d="M115.9,204.9l5-2.9c0.2-0.1,0.5-0.1,0.8,0l5.7,3.3c0.2,0.1,0.3,0.3,0.1,0.5l-5,2.9
					c-0.2,0.1-0.6,0.1-0.8-0.1l-5.7-3.3C115.7,205.2,115.7,205,115.9,204.9z"/>
				<path class="st1" d="M124.2,209.7l5-2.9c0.2-0.1,0.5-0.1,0.8,0l5.7,3.3c0.2,0.1,0.3,0.3,0.1,0.5l-5,2.9
					c-0.2,0.1-0.6,0.1-0.8-0.1l-5.7-3.3C124,210,124,209.8,124.2,209.7z"/>
				<path class="st1" d="M237.3,274.7l5-2.9c0.2-0.1,0.5-0.1,0.8,0l5.7,3.3c0.2,0.1,0.3,0.3,0.1,0.5l-5,2.9c-0.2,0.1-0.6,0.1-0.8,0
					l-5.7-3.3C237.1,275,237.1,274.8,237.3,274.7z"/>
				<path class="st1" d="M107.5,200l5-2.9c0.2-0.1,0.5-0.1,0.8,0l5.7,3.3c0.2,0.1,0.3,0.3,0.1,0.5l-5,2.9c-0.2,0.1-0.6,0.1-0.8-0.1
					l-5.7-3.3C107.4,200.4,107.3,200.2,107.5,200z"/>
				<path class="st1" d="M263,289.6l5-2.9c0.2-0.1,0.5-0.1,0.8,0l5.7,3.3c0.2,0.1,0.3,0.3,0.1,0.5l-5,2.9c-0.2,0.1-0.6,0.1-0.8,0
					l-5.7-3.3C262.8,290,262.8,289.8,263,289.6z"/>
				<path class="st1" d="M271.7,294.2l5-2.9c0.2-0.1,0.5-0.1,0.8,0l5.7,3.3c0.2,0.1,0.3,0.3,0.1,0.5l-5,2.9
					c-0.2,0.1-0.6,0.1-0.8-0.1l-5.7-3.3C271.6,294.5,271.5,294.3,271.7,294.2z"/>
				<path class="st1" d="M254.7,284.8l5-2.9c0.2-0.1,0.5-0.1,0.8,0l5.7,3.3c0.2,0.1,0.3,0.3,0.1,0.5l-5,2.9
					c-0.2,0.1-0.6,0.1-0.8-0.1l-5.7-3.3C254.5,285.2,254.4,285,254.7,284.8z"/>
				<path class="st1" d="M280.6,299.5l5-2.9c0.2-0.1,0.5-0.1,0.8,0l5.7,3.3c0.2,0.1,0.3,0.3,0.1,0.5l-5,2.9
					c-0.2,0.1-0.6,0.1-0.8-0.1l-5.7-3.3C280.5,299.9,280.5,299.7,280.6,299.5z"/>
				<path class="st1" d="M229,269.9l5-2.9c0.2-0.1,0.5-0.1,0.8,0l5.7,3.3c0.2,0.1,0.3,0.3,0.1,0.5l-5,2.9c-0.2,0.1-0.6,0.1-0.8,0
					l-5.7-3.3C228.8,270.2,228.8,270,229,269.9z"/>
				<path class="st1" d="M245.6,279.5l5-2.9c0.2-0.1,0.5-0.1,0.8,0l5.7,3.3c0.2,0.1,0.3,0.3,0.1,0.5l-5,2.9c-0.2,0.1-0.6,0.1-0.8,0
					l-5.7-3.3C245.5,279.8,245.4,279.6,245.6,279.5z"/>
				<path class="st1" d="M102.6,234.7l5-2.9c0.2-0.1,0.6-0.1,0.8,0.1l5.7,3.3c0.2,0.1,0.3,0.3,0.1,0.5l-5,2.9
					c-0.2,0.1-0.5,0.1-0.8,0l-5.7-3.3C102.5,235,102.4,234.8,102.6,234.7z"/>
				<path class="st1" d="M119.3,244.3l5-2.9c0.2-0.1,0.5-0.1,0.8,0.1l5.7,3.3c0.2,0.1,0.3,0.3,0.1,0.5l-5,2.9
					c-0.2,0.1-0.6,0.1-0.8,0l-5.7-3.3C119.1,244.7,119.1,244.5,119.3,244.3z"/>
				<path class="st1" d="M111,239.5l5-2.9c0.2-0.1,0.5-0.1,0.8,0.1l5.7,3.3c0.2,0.1,0.3,0.3,0.1,0.5l-5,2.9c-0.2,0.1-0.6,0.1-0.8,0
					L111,240C110.8,239.9,110.8,239.6,111,239.5z"/>
				<path class="st1" d="M144.3,258.8l5-2.9c0.2-0.1,0.5-0.1,0.8,0.1l5.7,3.3c0.2,0.1,0.3,0.3,0.1,0.5l-5,2.9
					c-0.2,0.1-0.6,0.1-0.8,0l-5.7-3.3C144.2,259.1,144.1,258.9,144.3,258.8z"/>
				<path class="st1" d="M127.6,249.2l5-2.9c0.2-0.1,0.5-0.1,0.8,0.1l5.7,3.3c0.2,0.1,0.3,0.3,0.1,0.5l-5,2.9
					c-0.2,0.1-0.6,0.1-0.8,0l-5.7-3.3C127.5,249.5,127.4,249.3,127.6,249.2z"/>
				<path class="st1" d="M136,254l5-2.9c0.2-0.1,0.5-0.1,0.8,0.1l5.7,3.3c0.2,0.1,0.3,0.3,0.1,0.5l-5,2.9c-0.2,0.1-0.6,0.1-0.8,0
					l-5.7-3.3C135.8,254.3,135.8,254.1,136,254z"/>
				<path class="st1" d="M204.8,293.4l5-2.9c0.2-0.1,0.6-0.1,0.8,0l5.7,3.3c0.2,0.1,0.3,0.3,0.1,0.5l-5,2.9
					c-0.2,0.1-0.6,0.1-0.8-0.1l-5.7-3.3C204.7,293.7,204.6,293.5,204.8,293.4z"/>
				<path class="st1" d="M94.3,229.9l5-2.9c0.2-0.1,0.6-0.1,0.8,0.1l5.7,3.3c0.2,0.1,0.3,0.3,0.1,0.5l-5,2.9c-0.2,0.1-0.5,0.1-0.8,0
					l-5.7-3.3C94.1,230.2,94.1,230,94.3,229.9z"/>
				<path class="st1" d="M239,303.6l5-2.9c0.2-0.1,0.5-0.1,0.8,0l5.7,3.3c0.2,0.1,0.3,0.3,0.1,0.5l-5,2.9c-0.2,0.1-0.6,0.1-0.8-0.1
					l-5.7-3.3C238.8,303.9,238.8,303.7,239,303.6z"/>
				<path class="st1" d="M231.1,308.2l5-2.9c0.2-0.1,0.5-0.1,0.8,0l5.7,3.3c0.2,0.2,0.3,0.4,0.1,0.5l-5,2.9
					c-0.2,0.1-0.6,0.1-0.8-0.1l-5.7-3.3C230.9,308.5,230.9,308.3,231.1,308.2z"/>
				<path class="st1" d="M75,218.7l5-2.9c0.2-0.1,0.6-0.1,0.8,0l16.7,9.6c0.2,0.1,0.3,0.3,0.1,0.5l-5,2.9c-0.2,0.1-0.5,0.1-0.8,0
					l-16.7-9.6C74.8,219.1,74.8,218.9,75,218.7z"/>
				<path class="st1" d="M177.7,277.7l5-2.9c0.2-0.1,0.6-0.1,0.8,0l15.8,9.2c0.2,0.1,0.3,0.3,0.1,0.5l-5,2.9c-0.2,0.1-0.5,0.1-0.8,0
					l-15.8-9.2C177.5,278,177.5,277.8,177.7,277.7z"/>
				<path class="st1" d="M212.3,279.5l5-2.9c0.2-0.1,0.5-0.1,0.8,0.1l5.7,3.3c0.2,0.1,0.3,0.3,0.1,0.5l-5,2.9
					c-0.2,0.1-0.6,0.1-0.8,0l-5.7-3.3C212.2,279.8,212.1,279.6,212.3,279.5z"/>
				<path class="st1" d="M222.8,303.4l5-2.9c0.2-0.1,0.5-0.1,0.8,0l5.7,3.3c0.2,0.2,0.3,0.4,0.1,0.5l-5,2.9
					c-0.2,0.1-0.6,0.1-0.8-0.1l-5.7-3.3C222.6,303.7,222.5,303.5,222.8,303.4z"/>
				<path class="st1" d="M196.9,298l5-2.9c0.2-0.1,0.6-0.1,0.8,0l5.7,3.3c0.2,0.2,0.3,0.4,0.1,0.5l-5,2.9c-0.2,0.1-0.5,0.1-0.8-0.1
					l-5.7-3.3C196.8,298.3,196.7,298.1,196.9,298z"/>
				<path class="st1" d="M78.5,229.9l5-2.9c0.2-0.1,0.6-0.1,0.8,0l7,4.1c0.2,0.1,0.3,0.3,0.1,0.5l-5,2.9c-0.2,0.1-0.5,0.1-0.8,0
					l-7-4.1C78.3,230.2,78.3,230,78.5,229.9z"/>
				<path class="st1" d="M166.7,280.8l5-2.9c0.2-0.1,0.6-0.1,0.8,0l7,4.1c0.2,0.1,0.3,0.3,0.1,0.5l-5,2.9c-0.2,0.1-0.5,0.1-0.8,0
					l-7-4.1C166.5,281.2,166.5,280.9,166.7,280.8z"/>
				<path class="st1" d="M97.8,241.1l5-2.9c0.2-0.1,0.6-0.1,0.8,0l7,4.1c0.2,0.1,0.3,0.3,0.1,0.5l-5,2.9c-0.2,0.1-0.6,0.1-0.8,0
					l-7-4.1C97.6,241.4,97.6,241.2,97.8,241.1z"/>
				<path class="st1" d="M157,275.3l5-2.9c0.2-0.1,0.6-0.1,0.8,0l7,4.1c0.2,0.1,0.3,0.3,0.1,0.5l-5,2.9c-0.2,0.1-0.5,0.1-0.8,0
					l-7-4.1C156.9,275.6,156.8,275.4,157,275.3z"/>
				<path class="st1" d="M107.4,246.6l5-2.9c0.2-0.1,0.5-0.1,0.8,0.1l47,27.1c0.2,0.1,0.3,0.3,0.1,0.5l-5,2.9
					c-0.2,0.1-0.5,0.1-0.8-0.1l-47-27.1C107.3,246.9,107.2,246.7,107.4,246.6z"/>
				<path class="st1" d="M67.1,223.3l5-2.9c0.2-0.1,0.6-0.1,0.8,0l8.8,5.1c0.2,0.1,0.3,0.3,0.1,0.5l-5,2.9c-0.2,0.1-0.5,0.1-0.8,0
					l-8.8-5.1C66.9,223.6,66.9,223.4,67.1,223.3z"/>
				<path class="st1" d="M88.1,235.5l5-2.9c0.2-0.1,0.6-0.1,0.8,0.1l7,4c0.2,0.2,0.3,0.4,0.1,0.5l-5,2.9c-0.2,0.1-0.5,0.1-0.8-0.1
					l-7-4C88,235.8,87.9,235.6,88.1,235.5z"/>
				<path class="st1" d="M240.8,322.7l12.9-7.5c0.2-0.1,0.5-0.1,0.8,0l5.7,3.3c0.2,0.2,0.3,0.4,0.1,0.5l-12.9,7.5
					c-0.2,0.1-0.6,0.1-0.8,0l-5.7-3.3C240.7,323,240.7,322.8,240.8,322.7z"/>
				<path class="st1" d="M231.9,317.4l5-2.9c0.2-0.1,0.5-0.1,0.8,0l5.7,3.3c0.2,0.1,0.3,0.3,0.1,0.5l-5,2.9c-0.2,0.1-0.6,0.1-0.8,0
					l-5.7-3.3C231.7,317.7,231.7,317.5,231.9,317.4z"/>
				<path class="st1" d="M205.3,302.8l5-2.9c0.2-0.1,0.6-0.1,0.8,0l5.7,3.3c0.2,0.2,0.3,0.4,0.1,0.5l-5,2.9
					c-0.2,0.1-0.5,0.1-0.8-0.1l-5.7-3.3C205.1,303.1,205.1,302.9,205.3,302.8z"/>
				<path class="st1" d="M152.7,263.6l5-2.9c0.2-0.1,0.5-0.1,0.8,0.1l5.7,3.3c0.2,0.1,0.3,0.3,0.1,0.5l-5,2.9
					c-0.2,0.1-0.6,0.1-0.8,0l-5.7-3.3C152.5,263.9,152.5,263.7,152.7,263.6z"/>
				<path class="st1" d="M188.6,293.2l5-2.9c0.2-0.1,0.5-0.1,0.8,0l5.7,3.3c0.2,0.2,0.3,0.4,0.1,0.5l-5,2.9
					c-0.2,0.1-0.6,0.1-0.8-0.1l-5.7-3.3C188.4,293.5,188.4,293.3,188.6,293.2z"/>
				<path class="st1" d="M214.8,308l5-2.9c0.2-0.1,0.5-0.1,0.8,0l14.1,8.1c0.2,0.1,0.3,0.3,0.1,0.5l-5,2.9c-0.2,0.1-0.6,0.1-0.8,0
					l-14-8.1C214.7,308.3,214.6,308.1,214.8,308z"/>
				<path class="st1" d="M189.8,247.6l5-2.9c0.2-0.1,0.6-0.1,0.8,0l5.7,3.3c0.2,0.2,0.3,0.4,0.1,0.5l-5,2.9
					c-0.2,0.1-0.5,0.1-0.8-0.1l-5.7-3.3C189.7,247.9,189.6,247.7,189.8,247.6z"/>
				<path class="st1" d="M181.5,242.8l5-2.9c0.2-0.1,0.6-0.1,0.8,0l5.7,3.3c0.2,0.2,0.3,0.4,0.1,0.5l-5,2.9
					c-0.2,0.1-0.5,0.1-0.8-0.1l-5.7-3.3C181.3,243.1,181.3,242.9,181.5,242.8z"/>
				<path class="st1" d="M176.3,286.4l5-2.9c0.2-0.1,0.6-0.1,0.8,0.1l8.8,5.1c0.2,0.1,0.3,0.3,0.1,0.5l-5,2.9
					c-0.2,0.1-0.5,0.1-0.8-0.1l-8.8-5.1C176.2,286.7,176.1,286.5,176.3,286.4z"/>
				<path class="st1" d="M169.5,235.8l5-2.9c0.2-0.1,0.5-0.1,0.8,0.1l5.7,3.3c0.2,0.1,0.3,0.3,0.1,0.5l-5,2.9
					c-0.2,0.1-0.6,0.1-0.8,0l-5.7-3.3C169.4,236.2,169.3,236,169.5,235.8z"/>
				<path class="st1" d="M152.9,226.2l5-2.9c0.2-0.1,0.6-0.1,0.8,0.1l5.7,3.3c0.2,0.1,0.3,0.3,0.1,0.5l-5,2.9
					c-0.2,0.1-0.6,0.1-0.8,0l-5.7-3.3C152.7,226.5,152.7,226.3,152.9,226.2z"/>
				<path class="st1" d="M198.2,252.4l5-2.9c0.2-0.1,0.6-0.1,0.8,0l5.7,3.3c0.2,0.2,0.3,0.4,0.1,0.5l-5,2.9
					c-0.2,0.1-0.5,0.1-0.8-0.1l-5.7-3.3C198,252.7,198,252.5,198.2,252.4z"/>
				<path class="st1" d="M161.2,231l5-2.9c0.2-0.1,0.5-0.1,0.8,0.1l5.7,3.3c0.2,0.1,0.3,0.3,0.1,0.5l-5,2.9c-0.2,0.1-0.6,0.1-0.8,0
					l-5.7-3.3C161,231.3,161,231.1,161.2,231z"/>
				<path class="st1" d="M144.5,221.4l5-2.9c0.2-0.1,0.6-0.1,0.8,0.1l5.7,3.3c0.2,0.1,0.3,0.3,0.1,0.5l-5,2.9
					c-0.2,0.1-0.5,0.1-0.8,0l-5.7-3.3C144.3,221.7,144.3,221.5,144.5,221.4z"/>
				<path class="st1" d="M190,276l5-2.9c0.2-0.1,0.6-0.1,0.8,0l11,6.3c0.2,0.1,0.3,0.3,0.1,0.5l-5,2.9c-0.2,0.1-0.5,0.1-0.8,0
					l-11-6.3C189.8,276.3,189.8,276.1,190,276z"/>
				<path class="st1" d="M206.5,257.2l5-2.9c0.2-0.1,0.6-0.1,0.8,0l5.7,3.3c0.2,0.2,0.3,0.4,0.1,0.5l-5,2.9
					c-0.2,0.1-0.6,0.1-0.8-0.1l-5.7-3.3C206.3,257.5,206.3,257.3,206.5,257.2z"/>
				<path class="st1" d="M218.5,264.1l5-2.9c0.2-0.1,0.6-0.1,0.8,0.1l7,4c0.2,0.2,0.3,0.4,0.1,0.5l-5,2.9c-0.2,0.1-0.5,0.1-0.8-0.1
					l-7-4C218.3,264.4,218.3,264.2,218.5,264.1z"/>
				<path class="st1" d="M200.1,272.7l5-2.9c0.2-0.1,0.6-0.1,0.8,0l8.8,5.1c0.2,0.1,0.3,0.3,0.1,0.5l-5,2.9c-0.2,0.1-0.5,0.1-0.8,0
					l-8.8-5.1C199.9,273,199.9,272.8,200.1,272.7z"/>
				<path class="st1" d="M211.1,269.9l5-2.9c0.2-0.1,0.6-0.1,0.8,0.1l5.7,3.3c0.2,0.1,0.3,0.3,0.1,0.5l-5,2.9
					c-0.2,0.1-0.5,0.1-0.8,0l-5.7-3.3C210.9,270.2,210.9,270,211.1,269.9z"/>
				<path class="st1" d="M161,268.4l5-2.9c0.2-0.1,0.6-0.1,0.8,0.1l5.7,3.3c0.2,0.1,0.3,0.3,0.1,0.5l-5,2.9c-0.2,0.1-0.5,0.1-0.8,0
					l-5.7-3.3C160.8,268.7,160.8,268.5,161,268.4z"/>
				<path class="st1" d="M150.1,243.8l5-2.9c0.2-0.1,0.5-0.1,0.8,0l5.7,3.3c0.2,0.1,0.3,0.3,0.1,0.5l-5,2.9c-0.2,0.1-0.6,0.1-0.8,0
					l-5.7-3.3C149.9,244.1,149.8,243.9,150.1,243.8z"/>
				<path class="st1" d="M158.4,248.6l5-2.9c0.2-0.1,0.5-0.1,0.8,0l5.7,3.3c0.2,0.1,0.3,0.3,0.1,0.5l-5,2.9c-0.2,0.1-0.6,0.1-0.8,0
					l-5.7-3.3C158.2,248.9,158.2,248.7,158.4,248.6z"/>
				<path class="st1" d="M125,229.4l5-2.9c0.2-0.1,0.6-0.1,0.8,0.1l5.7,3.3c0.2,0.1,0.3,0.3,0.1,0.5l-5,2.9c-0.2,0.1-0.5,0.1-0.8,0
					l-5.7-3.3C124.9,229.7,124.8,229.5,125,229.4z"/>
				<path class="st1" d="M141.7,239l5-2.9c0.2-0.1,0.5-0.1,0.8,0l5.7,3.3c0.2,0.1,0.3,0.3,0.1,0.5l-5,2.9c-0.2,0.1-0.6,0.1-0.8,0
					l-5.7-3.3C141.6,239.3,141.5,239.1,141.7,239z"/>
				<path class="st1" d="M133.4,234.2l5-2.9c0.2-0.1,0.5-0.1,0.8,0.1l5.7,3.3c0.2,0.1,0.3,0.3,0.1,0.5l-5,2.9
					c-0.2,0.1-0.6,0.1-0.8,0l-5.7-3.3C133.2,234.5,133.2,234.3,133.4,234.2z"/>
				<path class="st1" d="M166.7,253.4l5-2.9c0.2-0.1,0.5-0.1,0.8,0l5.7,3.3c0.2,0.1,0.3,0.3,0.1,0.5l-5,2.9c-0.2,0.1-0.6,0.1-0.8,0
					l-5.7-3.3C166.6,253.8,166.5,253.6,166.7,253.4z"/>
				<path class="st1" d="M175.1,258.3l5-2.9c0.2-0.1,0.5-0.1,0.8,0l5.7,3.3c0.2,0.1,0.3,0.3,0.1,0.5l-5,2.9c-0.2,0.1-0.6,0.1-0.8,0
					l-5.7-3.3C174.9,258.6,174.9,258.4,175.1,258.3z"/>
				<path class="st1" d="M148.3,251.9l5-2.9c0.2-0.1,0.5-0.1,0.8,0l5.7,3.3c0.2,0.2,0.3,0.4,0.1,0.5l-5,2.9
					c-0.2,0.1-0.6,0.1-0.8-0.1l-5.7-3.3C148.1,252.3,148.1,252,148.3,251.9z"/>
				<path class="st1" d="M156.6,256.7l5-2.9c0.2-0.1,0.5-0.1,0.8,0l5.7,3.3c0.2,0.2,0.3,0.4,0.1,0.5l-5,2.9
					c-0.2,0.1-0.6,0.1-0.8-0.1l-5.7-3.3C156.5,257.1,156.4,256.9,156.6,256.7z"/>
				<path class="st1" d="M165,261.6l5-2.9c0.2-0.1,0.5-0.1,0.8,0l5.7,3.3c0.2,0.2,0.3,0.4,0.1,0.5l-5,2.9c-0.2,0.1-0.6,0.1-0.8-0.1
					L165,262C164.8,261.9,164.8,261.7,165,261.6z"/>
				<path class="st1" d="M183.4,263.1l5-2.9c0.2-0.1,0.6-0.1,0.8,0l5.7,3.3c0.2,0.1,0.3,0.3,0.1,0.5l-5,2.9c-0.2,0.1-0.5,0.1-0.8,0
					l-5.7-3.3C183.2,263.4,183.2,263.2,183.4,263.1z"/>
				<path class="st1" d="M173.3,266.4l5-2.9c0.2-0.1,0.6-0.1,0.8,0l5.7,3.3c0.2,0.2,0.3,0.4,0.1,0.5l-5,2.9
					c-0.2,0.1-0.5,0.1-0.8-0.1l-5.7-3.3C173.1,266.7,173.1,266.5,173.3,266.4z"/>
				<path class="st1" d="M108.4,219.7l5-2.9c0.2-0.1,0.6-0.1,0.8,0.1l5.7,3.3c0.2,0.1,0.3,0.3,0.1,0.5l-5,2.9
					c-0.2,0.1-0.5,0.1-0.8,0l-5.7-3.3C108.2,220.1,108.2,219.9,108.4,219.7z"/>
				<path class="st1" d="M230.7,298.8l5-2.9c0.2-0.1,0.5-0.1,0.8,0l5.7,3.3c0.2,0.1,0.3,0.4,0.1,0.5l-5,2.9
					c-0.2,0.1-0.6,0.1-0.8-0.1l-5.7-3.3C230.5,299.1,230.5,298.9,230.7,298.8z"/>
				<path class="st1" d="M116.7,224.6l5-2.9c0.2-0.1,0.6-0.1,0.8,0.1l5.7,3.3c0.2,0.1,0.3,0.3,0.1,0.5l-5,2.9
					c-0.2,0.1-0.5,0.1-0.8,0l-5.7-3.3C116.5,224.9,116.5,224.7,116.7,224.6z"/>
				<path class="st1" d="M246.9,299l5-2.9c0.2-0.1,0.5-0.1,0.8,0l5.7,3.3c0.2,0.1,0.3,0.3,0.1,0.5l-5,2.9c-0.2,0.1-0.6,0.1-0.8-0.1
					l-5.7-3.3C246.8,299.4,246.7,299.2,246.9,299z"/>
				<path class="st1" d="M256.7,313.5l12.9-7.5c0.2-0.1,0.5-0.1,0.8,0l5.7,3.3c0.2,0.1,0.3,0.3,0.1,0.5l-12.9,7.5
					c-0.2,0.1-0.6,0.1-0.8-0.1l-5.7-3.3C256.5,313.9,256.5,313.6,256.7,313.5z"/>
				<path class="st1" d="M255.6,303.6l5-2.9c0.2-0.1,0.5-0.1,0.8,0l5.7,3.3c0.2,0.1,0.3,0.3,0.1,0.5l-5,2.9
					c-0.2,0.1-0.6,0.1-0.8-0.1l-5.7-3.3C255.5,303.9,255.4,303.7,255.6,303.6z"/>
				<path class="st1" d="M238.6,294.2l5-2.9c0.2-0.1,0.5-0.1,0.8,0l5.7,3.3c0.2,0.1,0.3,0.3,0.1,0.5l-5,2.9
					c-0.2,0.1-0.6,0.1-0.8-0.1l-5.7-3.3C238.4,294.6,238.4,294.4,238.6,294.2z"/>
				<path class="st1" d="M247.7,308.2l5-2.9c0.2-0.1,0.5-0.1,0.8,0l5.7,3.3c0.2,0.1,0.3,0.4,0.1,0.5l-5,2.9
					c-0.2,0.1-0.6,0.1-0.8-0.1l-5.7-3.3C247.6,308.5,247.5,308.3,247.7,308.2z"/>
				<path class="st1" d="M131.6,242.3l5-2.9c0.2-0.1,0.5-0.1,0.8,0l5.7,3.3c0.2,0.2,0.3,0.4,0.1,0.5l-5,2.9c-0.2,0.1-0.6,0.1-0.8,0
					l-5.7-3.3C131.4,242.6,131.4,242.4,131.6,242.3z"/>
				<path class="st1" d="M263.5,299l5-2.9c0.2-0.1,0.5-0.1,0.8,0l5.7,3.3c0.2,0.1,0.3,0.3,0.1,0.5l-5,2.9c-0.2,0.1-0.6,0.1-0.8,0
					l-5.7-3.3C263.4,299.4,263.3,299.2,263.5,299z"/>
				<path class="st1" d="M100,214.9l5-2.9c0.2-0.1,0.6-0.1,0.8,0.1l5.7,3.3c0.2,0.1,0.3,0.3,0.1,0.5l-5,2.9c-0.2,0.1-0.5,0.1-0.8,0
					l-5.7-3.3C99.9,215.2,99.8,215,100,214.9z"/>
				<path class="st1" d="M90.9,209.8l5-2.9c0.2-0.1,0.6-0.1,0.8,0.1l5.7,3.3c0.2,0.1,0.3,0.3,0.1,0.5l-5,2.9c-0.2,0.1-0.5,0.1-0.8,0
					l-5.7-3.3C90.7,210.2,90.7,210,90.9,209.8z"/>
				<path class="st1" d="M246.5,289.7l5-2.9c0.2-0.1,0.5-0.1,0.8,0.1l5.7,3.3c0.2,0.1,0.3,0.3,0.1,0.5l-5,2.9
					c-0.2,0.1-0.6,0.1-0.8,0l-5.7-3.3C246.3,290,246.3,289.8,246.5,289.7z"/>
				<path class="st1" d="M220.2,274.9l5-2.9c0.2-0.1,0.5-0.1,0.8,0.1l5.7,3.3c0.2,0.1,0.3,0.3,0.1,0.5l-5,2.9
					c-0.2,0.1-0.6,0.1-0.8,0l-5.7-3.3C220.1,275.2,220,275,220.2,274.9z"/>
				<path class="st1" d="M254.8,294.5l5-2.9c0.2-0.1,0.5-0.1,0.8,0.1l5.7,3.3c0.2,0.1,0.3,0.3,0.1,0.5l-5,2.9
					c-0.2,0.1-0.6,0.1-0.8,0l-5.7-3.3C254.7,294.8,254.6,294.6,254.8,294.5z"/>
				<path class="st1" d="M139.9,247.1l5-2.9c0.2-0.1,0.5-0.1,0.8,0l5.7,3.3c0.2,0.2,0.3,0.4,0.1,0.5l-5,2.9c-0.2,0.1-0.6,0.1-0.8,0
					l-5.7-3.3C139.8,247.4,139.7,247.2,139.9,247.1z"/>
				<path class="st1" d="M177.7,250.6l5-2.9c0.2-0.1,0.5-0.1,0.8,0.1l5.7,3.3c0.2,0.1,0.3,0.3,0.1,0.5l-5,2.9
					c-0.2,0.1-0.6,0.1-0.8,0l-5.7-3.3C177.6,251,177.5,250.8,177.7,250.6z"/>
				<path class="st1" d="M169.4,245.8l5-2.9c0.2-0.1,0.5-0.1,0.8,0.1l5.7,3.3c0.2,0.1,0.3,0.3,0.1,0.5l-5,2.9
					c-0.2,0.1-0.6,0.1-0.8,0l-5.7-3.3C169.2,246.2,169.2,245.9,169.4,245.8z"/>
				<path class="st1" d="M161,241l5-2.9c0.2-0.1,0.5-0.1,0.8,0.1l5.7,3.3c0.2,0.1,0.3,0.3,0.1,0.5l-5,2.9c-0.2,0.1-0.6,0.1-0.8,0
					l-5.7-3.3C160.9,241.3,160.8,241.1,161,241z"/>
				<path class="st1" d="M144.4,231.4l5-2.9c0.2-0.1,0.5-0.1,0.8,0.1l5.7,3.3c0.2,0.1,0.3,0.3,0.1,0.5l-5,2.9
					c-0.2,0.1-0.6,0.1-0.8,0l-5.7-3.3C144.2,231.7,144.2,231.5,144.4,231.4z"/>
				<path class="st1" d="M186.1,255.5l5-2.9c0.2-0.1,0.6-0.1,0.8,0.1l5.7,3.3c0.2,0.1,0.3,0.3,0.1,0.5l-5,2.9
					c-0.2,0.1-0.6,0.1-0.8,0l-5.7-3.3C185.9,255.8,185.9,255.6,186.1,255.5z"/>
				<path class="st1" d="M152.7,236.2l5-2.9c0.2-0.1,0.5-0.1,0.8,0.1l5.7,3.3c0.2,0.1,0.3,0.3,0.1,0.5l-5,2.9
					c-0.2,0.1-0.6,0.1-0.8,0l-5.7-3.3C152.5,236.5,152.5,236.3,152.7,236.2z"/>
				<path class="st1" d="M194.4,260.3l5-2.9c0.2-0.1,0.6-0.1,0.8,0.1l5.7,3.3c0.2,0.1,0.3,0.3,0.1,0.5l-5,2.9
					c-0.2,0.1-0.5,0.1-0.8,0l-5.7-3.3C194.2,260.6,194.2,260.4,194.4,260.3z"/>
				<path class="st1" d="M169.3,273.2l5-2.9c0.2-0.1,0.6-0.1,0.8,0.1l5.7,3.3c0.2,0.1,0.3,0.3,0.1,0.5l-5,2.9
					c-0.2,0.1-0.5,0.1-0.8,0l-5.7-3.3C169.2,273.5,169.1,273.3,169.3,273.2z"/>
				<path class="st1" d="M191.7,267.9l5-2.9c0.2-0.1,0.6-0.1,0.8,0l5.7,3.3c0.2,0.1,0.3,0.3,0.1,0.5l-5,2.9c-0.2,0.1-0.5,0.1-0.8,0
					l-5.7-3.3C191.6,268.2,191.5,268,191.7,267.9z"/>
				<path class="st1" d="M202.7,265.1l5-2.9c0.2-0.1,0.6-0.1,0.8,0.1l5.7,3.3c0.2,0.1,0.3,0.3,0.1,0.5l-5,2.9
					c-0.2,0.1-0.5,0.1-0.8,0l-5.7-3.3C202.6,265.4,202.5,265.2,202.7,265.1z"/>
				<path class="st1" d="M181.6,271.2l5-2.9c0.2-0.1,0.6-0.1,0.8,0l5.7,3.3c0.2,0.2,0.3,0.4,0.1,0.5l-5,2.9
					c-0.2,0.1-0.5,0.1-0.8-0.1l-5.7-3.3C181.5,271.5,181.4,271.3,181.6,271.2z"/>
				<path class="st1" d="M136,226.6l5-2.9c0.2-0.1,0.6-0.1,0.8,0.1l5.7,3.3c0.2,0.1,0.3,0.3,0.1,0.5l-5,2.9c-0.2,0.1-0.5,0.1-0.8,0
					l-5.7-3.3C135.9,226.9,135.8,226.7,136,226.6z"/>
				<path class="st1" d="M127.7,221.8l5-2.9c0.2-0.1,0.6-0.1,0.8,0.1l5.7,3.3c0.2,0.1,0.3,0.3,0.1,0.5l-5,2.9
					c-0.2,0.1-0.5,0.1-0.8,0l-5.7-3.3C127.5,222.1,127.5,221.9,127.7,221.8z"/>
				<path class="st1" d="M229,289.1l5-2.9c0.2-0.1,0.6-0.1,0.8,0.1l5.7,3.3c0.2,0.1,0.3,0.3,0.1,0.5l-5,2.9c-0.2,0.1-0.5,0.1-0.8,0
					l-5.7-3.3C228.8,289.4,228.8,289.2,229,289.1z"/>
				<path class="st1" d="M123.3,237.5l5-2.9c0.2-0.1,0.5-0.1,0.8,0l5.7,3.3c0.2,0.2,0.3,0.4,0.1,0.5l-5,2.9c-0.2,0.1-0.6,0.1-0.8,0
					l-5.7-3.3C123.1,237.8,123.1,237.6,123.3,237.5z"/>
				<path class="st1" d="M114.9,232.7l5-2.9c0.2-0.1,0.6-0.1,0.8,0l5.7,3.3c0.2,0.2,0.3,0.4,0.1,0.5l-5,2.9c-0.2,0.1-0.6,0.1-0.8,0
					l-5.7-3.3C114.8,233,114.7,232.8,114.9,232.7z"/>
				<path class="st1" d="M106.6,227.9l5-2.9c0.2-0.1,0.6-0.1,0.8,0l5.7,3.3c0.2,0.2,0.3,0.4,0.1,0.5l-5,2.9c-0.2,0.1-0.5,0.1-0.8,0
					l-5.7-3.3C106.4,228.2,106.4,228,106.6,227.9z"/>
				<path class="st1" d="M98.2,223l5-2.9c0.2-0.1,0.6-0.1,0.8,0l5.7,3.3c0.2,0.2,0.3,0.4,0.1,0.5l-5,2.9c-0.2,0.1-0.5,0.1-0.8,0
					l-5.7-3.3C98.1,223.4,98.1,223.2,98.2,223z"/>
				<path class="st1" d="M119.3,216.9l5-2.9c0.2-0.1,0.6-0.1,0.8,0.1l5.7,3.3c0.2,0.1,0.3,0.3,0.1,0.5l-5,2.9
					c-0.2,0.1-0.5,0.1-0.8,0l-5.7-3.3C119.2,217.3,119.2,217.1,119.3,216.9z"/>
				<path class="st1" d="M111,212.1l5-2.9c0.2-0.1,0.6-0.1,0.8,0.1l5.7,3.3c0.2,0.1,0.3,0.3,0.1,0.5l-5,2.9c-0.2,0.1-0.5,0.1-0.8,0
					l-5.7-3.3C110.8,212.5,110.8,212.3,111,212.1z"/>
				<path class="st1" d="M236.9,284.5l5-2.9c0.2-0.1,0.6-0.1,0.8,0.1l5.7,3.3c0.2,0.1,0.3,0.3,0.1,0.5l-5,2.9
					c-0.2,0.1-0.5,0.1-0.8,0L237,285C236.8,284.9,236.7,284.6,236.9,284.5z"/>
				<path class="st1" d="M98.7,205l5-2.9c0.2-0.1,0.6-0.1,0.8,0.1l9.6,5.6c0.2,0.1,0.3,0.3,0.1,0.5l-5,2.9c-0.2,0.1-0.5,0.1-0.8,0
					l-9.7-5.6C98.6,205.4,98.5,205.1,98.7,205z"/>
				<path class="st1" d="M228.6,279.7l5-2.9c0.2-0.1,0.5-0.1,0.8,0.1l5.7,3.3c0.2,0.1,0.3,0.3,0.1,0.5l-5,2.9
					c-0.2,0.1-0.6,0.1-0.8,0l-5.7-3.3C228.4,280,228.4,279.8,228.6,279.7z"/>
				<path class="st1" d="M220.7,284.3l5-2.9c0.2-0.1,0.5-0.1,0.8,0.1l5.7,3.3c0.2,0.1,0.3,0.3,0.1,0.5l-5,2.9
					c-0.2,0.1-0.6,0.1-0.8,0l-5.7-3.3C220.5,284.6,220.5,284.4,220.7,284.3z"/>
				<polyline class="st1" points="203.7,270.6 195.6,275.3 203.7,281.7 212.6,276.6 				"/>
				<path class="st1" d="M83.5,214.1l5-2.9c0.2-0.1,0.6-0.1,0.8,0l11,6.3c0.2,0.1,0.3,0.3,0.1,0.5l-5,2.9c-0.2,0.1-0.5,0.1-0.8,0
					l-11-6.3C83.3,214.4,83.3,214.2,83.5,214.1z"/>
			</g>
			<g>
				<polygon class="st2" points="115.8,265.9 171.1,297.8 170.3,298.2 115.8,266.7 85.3,284.3 84.6,283.9 				"/>
				<polygon class="st1" points="170.3,298.2 139.9,315.8 85.3,284.3 115.8,266.7 				"/>
			</g>
		</g>
	</g>
	<g>
		<g>
			<polygon class="st6" points="307.1,255.3 215.3,202.2 215.3,225.3 306.6,277.3 			"/>
			<path class="st7" d="M306.8,277.6l-91.7-52.2V202l0.2,0.1l91.9,53.1l0,0.1L306.8,277.6z M215.4,225.2l91.1,51.9l0.5-21.7
				l-91.5-52.8V225.2z"/>
		</g>
	</g>
	<g>
		<path class="st2" d="M307.7,249.6l-0.3-0.2l-92.1-52.5v-50.5l93,54.8L307.7,249.6z M215.7,196.6l91.6,52.2l0.5-47.4l-92-54.2
			V196.6z"/>
	</g>
	<g>
		<path class="st1" d="M210.3,86.6l-17.3-10c-0.6-0.3-1-0.1-1,0.5s0.5,1.4,1,1.7l17.3,10c0.6,0.3,1,0.1,1-0.5
			C211.3,87.7,210.8,87,210.3,86.6z"/>
		<path class="st1" d="M188.2,73.4l-17.3-10c-0.6-0.3-1-0.1-1,0.5c0,0.6,0.5,1.4,1,1.7l17.3,10c0.6,0.3,1,0.1,1-0.5
			C189.3,74.5,188.8,73.8,188.2,73.4z"/>
		<path class="st1" d="M166.1,60.8l-17.3-10c-0.6-0.3-1-0.1-1,0.5c0,0.6,0.5,1.4,1,1.7l17.3,10c0.6,0.3,1,0.1,1-0.5
			C167.1,61.9,166.7,61.2,166.1,60.8z"/>
		<path class="st1" d="M143.6,48.3l-17.3-10c-0.6-0.3-1-0.1-1,0.5c0,0.6,0.5,1.4,1,1.7l17.3,10c0.6,0.3,1,0.1,1-0.5
			C144.7,49.3,144.2,48.6,143.6,48.3z"/>
	</g>
	<g>
		<path class="st2" d="M210.3,91.6l-17.3-10c-0.6-0.3-1-0.1-1,0.5c0,0.6,0.5,1.4,1,1.7l17.3,10c0.6,0.3,1,0.1,1-0.5
			C211.3,92.7,210.8,92,210.3,91.6z"/>
		<path class="st2" d="M188.2,78.5l-17.3-10c-0.6-0.3-1-0.1-1,0.5c0,0.6,0.5,1.4,1,1.7l17.3,10c0.6,0.3,1,0.1,1-0.5
			C189.3,79.5,188.8,78.8,188.2,78.5z"/>
		<path class="st2" d="M166.1,65.9l-17.3-10c-0.6-0.3-1-0.1-1,0.5c0,0.6,0.5,1.4,1,1.7l17.3,10c0.6,0.3,1,0.1,1-0.5
			C167.1,67,166.7,66.2,166.1,65.9z"/>
		<path class="st2" d="M143.6,53.3l-17.3-10c-0.6-0.3-1-0.1-1,0.5c0,0.6,0.5,1.4,1,1.7l17.3,10c0.6,0.3,1,0.1,1-0.5
			S144.2,53.6,143.6,53.3z"/>
	</g>
	<path class="st1" d="M307.1,164.3c-0.1,0-0.3,0-0.4-0.1l-39.6-23.3c-0.6-0.3-1.1-1.2-1.1-1.8V122c0-0.4,0.2-0.7,0.5-0.9
		c0.3-0.2,0.7-0.1,1,0.1l39.3,23c0.7,0.4,1.1,1.2,1.1,2.2v17.1c0,0.2,0,0.7-0.4,0.9C307.4,164.3,307.3,164.3,307.1,164.3z
		 M307.2,163.5L307.2,163.5L307.2,163.5z M266.9,121.7C266.9,121.7,266.9,121.7,266.9,121.7c0,0-0.1,0.1-0.1,0.2V139
		c0,0.4,0.3,1,0.7,1.2l39.6,23.3c0,0,0-0.1,0-0.1v-17.1c0-0.8-0.3-1.3-0.7-1.5l-39.3-23C267,121.7,266.9,121.7,266.9,121.7z"/>
	<g>
		<path id="XMLID_00000150086437771187330520000015289452485621313925_" class="st8" d="M260.9,118v17.1c0,0.2,0,0.8-0.5,0.5
			L225,114.8c-0.5-0.3-0.9-1-0.9-1.5V96.2c0-0.6,0.4-0.8,0.9-0.5l35,20.5C260.5,116.5,260.9,117.1,260.9,118z"/>
		<path class="st8" d="M260.7,136c-0.1,0-0.3,0-0.4-0.1l-35.4-20.8c-0.6-0.3-1.1-1.2-1.1-1.8V96.2c0-0.4,0.2-0.7,0.5-0.9
			c0.3-0.2,0.7-0.1,1,0.1l35,20.5c0.7,0.4,1.1,1.2,1.1,2.2v17.1c0,0.2,0,0.7-0.4,0.9C260.9,136,260.8,136,260.7,136z M224.6,96
			C224.6,96,224.6,96,224.6,96c0,0-0.1,0.1-0.1,0.2v17.1c0,0.4,0.3,1,0.7,1.2l35.3,20.7c0,0,0-0.1,0-0.1V118c0-0.8-0.3-1.3-0.7-1.5
			l-35-20.5C224.7,96,224.7,96,224.6,96z"/>
	</g>
	<g>
		<path id="XMLID_00000008143997366130763630000014201108033572520337_" class="st1" d="M307.4,173.6v17.1c0,0.2,0,0.8-0.5,0.5
			l-57.4-33.8c-0.5-0.3-0.9-1-0.9-1.5v-17.1c0-0.6,0.4-0.8,0.9-0.5l57,33.5C307,172,307.4,172.7,307.4,173.6z"/>
		<path class="st1" d="M307.1,191.6c-0.1,0-0.3,0-0.4-0.1l-57.4-33.8c-0.6-0.3-1.1-1.2-1.1-1.8v-17.1c0-0.4,0.2-0.7,0.5-0.9
			c0.3-0.2,0.7-0.1,1,0.1l57,33.5c0.7,0.4,1.1,1.2,1.1,2.2v17.1c0,0.2,0,0.7-0.4,0.9C307.4,191.6,307.3,191.6,307.1,191.6z
			 M249.1,138.5C249.1,138.5,249.1,138.5,249.1,138.5c0,0-0.1,0.1-0.1,0.2v17.1c0,0.4,0.3,1,0.7,1.2l57.3,33.8c0,0,0-0.1,0-0.1
			v-17.1c0-0.8-0.3-1.3-0.7-1.5l-57-33.5C249.2,138.5,249.2,138.5,249.1,138.5z"/>
	</g>
	<g>
		<path class="st8" d="M228.3,223.9v-2.8c0-0.1-0.1-0.3-0.3-0.4l-0.8-0.5c-0.1-0.1-0.3,0-0.3,0.1v2.8c0,0.1,0.1,0.3,0.3,0.4l0.8,0.5
			C228.1,224.1,228.2,224,228.3,223.9z"/>
		<path class="st8" d="M226.3,222.8V218c0-0.1-0.1-0.3-0.3-0.4l-0.8-0.5c-0.1-0.1-0.3,0-0.3,0.1v4.7c0,0.1,0.1,0.3,0.3,0.4l0.8,0.5
			C226.2,223,226.3,222.9,226.3,222.8z"/>
		<path class="st8" d="M232.2,226.2v-1.4c0-0.1-0.1-0.3-0.3-0.4l-0.8-0.5c-0.1-0.1-0.3,0-0.3,0.1v1.4c0,0.1,0.1,0.3,0.3,0.4l0.8,0.5
			C232.1,226.4,232.2,226.3,232.2,226.2z"/>
		<path class="st8" d="M230.2,225.1V221c0-0.1-0.1-0.3-0.3-0.4l-0.8-0.5c-0.1-0.1-0.3,0-0.3,0.1v4.1c0,0.1,0.1,0.3,0.3,0.4l0.8,0.5
			C230.1,225.2,230.2,225.2,230.2,225.1z"/>
		<path class="st8" d="M233,228.4c0-0.2-0.1-0.4-0.3-0.5l-1-0.7l-7.9-4.6v-7.9c0-0.1-0.1-0.3-0.3-0.4l-0.8-0.5
			c-0.1-0.1-0.3,0-0.3,0.1v8.2v0v0.6c0,0.2,0.1,0.4,0.3,0.5l9.6,5.5c0.4,0.2,0.7,0.1,0.7-0.3L233,228.4z"/>
	</g>
	<path id="Icon_awesome-chart-area_00000000913628150813996910000015562014504472772518_" class="st8" d="M291.7,256.5
		C291.7,256.5,291.7,256.5,291.7,256.5c-0.2-0.2-0.3-0.2-0.4-0.1l-1.9,0.5l0,2.4l8.2,4.7l-1.8-6.4c0,0,0-0.1-0.1-0.1
		c-0.1-0.1-0.3-0.2-0.4-0.2l-1.8,1.4L291.7,256.5L291.7,256.5z M288.8,260v-8.3c0-0.1,0-0.1-0.1-0.2l-0.7-0.4
		c-0.1-0.1-0.3,0-0.3,0.2v8.2v1v0.1c0,0.1,0,0.1,0.1,0.2l9.6,5.5c0.1,0.1,0.3,0,0.3-0.2l0-0.8c0-0.1,0-0.1-0.1-0.2l-8.7-5
		C288.9,260.1,288.8,260.1,288.8,260z"/>
	<path id="Icon_awesome-project-diagram_00000150084143834685847050000011360683839418762428_" class="st8" d="M241.8,230.6v1.8
		c0,0.2,0.2,0.6,0.5,0.7l1.8,1c0.2,0.1,0.5,0.1,0.5-0.2v-1.8c0-0.2-0.2-0.6-0.5-0.7l-1.8-1C242,230.2,241.8,230.3,241.8,230.6z
		 M245,228.3l-3.2-1.8v0.9l3.2,1.8v0.7l-0.9,1.1l0,0c0.3,0.2,0.6,0.5,0.8,0.9l1-1.2l1.3,0.8c0.2,0.1,0.5,0.1,0.5-0.2v-1.8
		c0-0.2-0.2-0.6-0.5-0.7l-1.8-1c-0.2-0.1-0.5-0.1-0.5,0.2V228.3z M238.7,224.2v1.8c0,0.2,0.2,0.6,0.5,0.7l1.8,1
		c0.2,0.1,0.5,0.1,0.5-0.2v-1.8c0-0.2-0.2-0.6-0.5-0.7l-1.8-1C238.9,223.9,238.7,224,238.7,224.2z"/>
	<path id="Icon_material-sync_00000103970845559183122610000000935912126253709734_" class="st8" d="M274.2,244.7
		c-1.9,0.1-2.5,2.2-1.3,4.8c0,0,0.1,0.1,0.1,0.1l0.6-0.2c0,0,0.1-0.1,0.1-0.1c-0.2-0.5-0.3-1.1-0.3-1.5c0-1.7,1.3-2.3,3-1.3
		c0,0,0.1,0.1,0.1,0.1v1.3c0,0.1,0.1,0.1,0.1,0.1l1.8-0.8c0.1,0,0.1-0.1,0-0.1l-1.8-2.8c-0.1-0.1-0.2,0-0.2,0.1v1
		c0,0.1-0.1,0.1-0.1,0.1C275.5,244.8,274.8,244.6,274.2,244.7z M276.2,251l-1.8,0.8c-0.1,0-0.1,0.1,0,0.1l1.8,2.8
		c0.1,0.1,0.2,0,0.2-0.1v-1c0-0.1,0.1-0.1,0.1-0.1c0.7,0.4,1.4,0.6,2,0.5c1.9-0.1,2.5-2.2,1.3-4.8c0,0-0.1-0.1-0.1-0.1l-0.6,0.2
		c0,0-0.1,0.1-0.1,0.1c0.2,0.5,0.3,1.1,0.3,1.5c0,1.7-1.3,2.3-3,1.3c0,0-0.1-0.1-0.1-0.1v-1.3C276.4,251,276.3,251,276.2,251z"/>
	<g id="Speech_Bubble_00000115495888070710716000000015228719599166208180_">
		<g id="Speech_Bubble_00000134248494109242051970000016441506589959730858_">
			<path id="XMLID_00000040561473140189593120000000945866703525001880_" class="st6" d="M66.2,87.7L90.9,102c0.5,0.3,0.9,1,0.9,2.3
				v30.5c0,0.9-2.6,1.6-4.2,0.9l-24.8-14.3c-0.5-0.3-0.9-1-0.9-1.5L62,89.3c0.2-0.5,2.4-1.5,2.4-1.5C64.9,87.5,65.7,87.5,66.2,87.7z
				"/>
			<g>
				<path id="XMLID_00000013169663488890014320000004001557956899159957_" class="st6" d="M96.1,124.4c0.6-0.3,2.9-1.5,3-1.5
					c0.4-0.2,0.6-0.9,0.2-1.3l-7.5-8.6l-3.4,1.8l7.9,8.4C96.6,123.6,96.5,124.1,96.1,124.4z"/>
				<path id="XMLID_00000156576573584441787220000015829301288627013791_" class="st9" d="M96.1,124.4c0.6-0.3,2.9-1.5,3-1.5
					c0.4-0.2,0.6-0.9,0.2-1.3l-7.5-8.6l-3.4,1.8l7.9,8.4C96.6,123.6,96.5,124.1,96.1,124.4z"/>
				<path class="st8" d="M62.8,89.2l24.7,14.3c0.5,0.3,0.9,1,0.9,1.5v9.8l7.9,8.4c0.5,0.5,0.1,1.3-0.5,1.4l-7.3-0.5l0,0v11.2
					c0,0.6-0.4,0.8-0.9,0.5l-24.7-14.3c-0.5-0.3-0.9-1-0.9-1.5V89.7C61.9,89.1,62.3,88.9,62.8,89.2z"/>
			</g>
		</g>
	</g>
	<g id="Speech_Bubble_00000111874026088573974570000007966344049577476260_">
		<g id="Speech_Bubble_00000011023935372887756490000002686681672886591640_">
			<path id="XMLID_00000106829599525022290240000017110351852135997365_" class="st1" d="M66.2,42.1l24.7,14.3
				c0.5,0.3,0.9,1,0.9,2.3v30.5c0,0.9-2.6,1.6-4.2,0.9L62.8,75.7c-0.5-0.3-0.9-1-0.9-1.5L62,43.6c0.2-0.5,2.4-1.5,2.4-1.5
				C64.9,41.8,65.7,41.8,66.2,42.1z"/>
			<g>
				<path id="XMLID_00000046302149633824232500000005229846789683115155_" class="st4" d="M96.1,78.7c0.6-0.3,2.9-1.5,3-1.5
					c0.4-0.2,0.6-0.9,0.2-1.3l-7.5-8.6l-3.4,1.8l7.9,8.4C96.6,77.9,96.5,78.4,96.1,78.7z"/>
				<path class="st2" d="M62.8,43.5l24.7,14.3c0.5,0.3,0.9,1,0.9,1.5v9.8l7.9,8.4c0.5,0.5,0.1,1.3-0.5,1.4l-7.3-0.5l0,0v11.2
					c0,0.6-0.4,0.8-0.9,0.5L62.8,75.7c-0.5-0.3-0.9-1-0.9-1.5V44C61.9,43.4,62.3,43.2,62.8,43.5z"/>
			</g>
		</g>
	</g>
	<g>
		<g>
			<g id="Box_00000168832191531185205220000000415449053186371509_">
				<g id="Speach_Bubble_00000076595981405767411190000005883580334724296594_">
					<path id="XMLID_00000039842341585337268740000012496435536977020838_" class="st8" d="M311.2,186.8l36.7,21.2
						c0.8,0.5,1.5,1.6,1.5,2.5v44.3c0,0.9-0.7,2.1-1.5,2.5l-2.8,1.6c-0.8,0.5-2.1,0.5-2.9,0l-36.7-21.2c-0.8-0.5-1.5-1.6-1.5-2.5
						v-44.3c0-0.9,0.7-2.1,1.5-2.5l2.8-1.6C309.1,186.3,310.4,186.3,311.2,186.8z"/>
					<path class="st6" d="M305.5,190l36.7,21.2c0.8,0.5,1.5,1.6,1.5,2.5l0,28.1l0,16.1c0,0.9-0.7,1.3-1.5,0.8l-36.7-21.2
						c-0.8-0.5-1.5-1.6-1.5-2.5v-44.3C304,190,304.7,189.6,305.5,190z"/>
				</g>
			</g>
		</g>
		<path id="Icon_awesome-pen-nib_00000160155271447119830480000004714305203213776795_" class="st5" d="M322.4,218.2l-4.7,2l1.6,6.5
			c0.2,0.9,0.8,1.8,1.5,2.5l10.3,9.4l0.5-0.2l-5.5-8.7c-0.5,0-1.1-0.4-1.6-0.9c-0.9-0.9-1.3-2.2-0.8-2.9s1.5-0.4,2.4,0.5
			c0.9,0.9,1.3,2.2,0.8,2.9l5.5,8.7l0.5-0.2l-3.4-12.3c-0.2-0.9-0.8-1.8-1.6-2.4L322.4,218.2z M314.7,215.4l2.1,3.3l4.7-2l-2.1-3.3
			c-0.7-1.1-1.8-1.7-2.5-1.4l-2.2,0.9C314,213.2,314,214.3,314.7,215.4z"/>
	</g>
	<g>
		<g>
			<polygon class="st6" points="220.3,191.6 222.7,193 222.7,192.8 220.4,191.5 220.4,189.2 220.3,189.1 			"/>
			<polygon class="st6" points="222.9,193.2 220.1,191.7 220.1,188.9 220.6,189.1 220.6,191.4 222.9,192.7 			"/>
		</g>
		<g>
			<path class="st6" d="M226.9,195.2l4.2,2.4l0,0.1l-4.2-2.4L226.9,195.2z M235.3,200.2l4.2,2.4l0-0.1l-4.2-2.4L235.3,200.2z
				 M243.6,205l4.2,2.4l0-0.1l-4.2-2.4L243.6,205z"/>
			<path class="st6" d="M248,207.6l-4.5-2.6l0-0.5l4.5,2.6L248,207.6z M239.6,202.8l-4.5-2.6l0-0.5l4.5,2.6L239.6,202.8z M231.2,198
				l-4.5-2.6l0-0.5l4.5,2.6L231.2,198z"/>
		</g>
		<g>
			<polygon class="st6" points="252,209.8 254.4,211.1 254.4,208.7 254.3,208.7 254.3,211 252,209.6 			"/>
			<polygon class="st6" points="254.6,211.4 251.8,209.9 251.8,209.4 254.1,210.7 254.1,208.4 254.6,208.6 			"/>
		</g>
		<g>
			<path class="st6" d="M254.3,200.3l0.1,0.1l0,4.2l-0.1-0.1L254.3,200.3z M254.3,196.1l0.1,0.1l0-4.2l-0.1-0.1L254.3,196.1z
				 M254.2,187.8l0.1,0.1l0-4.2l-0.1-0.1L254.2,187.8z"/>
			<path class="st6" d="M254.6,204.8l-0.4-0.2l0-4.5l0.4,0.2L254.6,204.8z M254.5,196.5l-0.4-0.2l0-4.5l0.4,0.2L254.5,196.5z
				 M254.5,188.1l-0.4-0.2l0-4.5l0.4,0.2L254.5,188.1z"/>
		</g>
		<g>
			<polygon class="st6" points="254.2,179.4 254.3,179.5 254.3,177.1 251.9,175.7 251.9,175.8 254.2,177.1 			"/>
			<polygon class="st6" points="254.5,179.8 254.1,179.5 254.1,177.2 251.8,175.9 251.7,175.4 254.5,177 			"/>
		</g>
		<g>
			<path class="st6" d="M226.8,161.3l4.2,2.4l0,0.1l-4.2-2.4L226.8,161.3z M235.2,166.2l4.2,2.4l0-0.1l-4.2-2.4L235.2,166.2z
				 M243.5,171l4.2,2.4l0-0.1l-4.2-2.4L243.5,171z"/>
			<path class="st6" d="M247.9,173.7l-4.5-2.6l0-0.5l4.5,2.6L247.9,173.7z M239.5,168.9l-4.5-2.6l0-0.5l4.5,2.6L239.5,168.9z
				 M231.2,164.1l-4.5-2.6l0-0.5l4.5,2.6L231.2,164.1z"/>
		</g>
		<g>
			<polygon class="st6" points="220.2,159.9 220.3,160 220.3,157.7 222.6,159 222.6,158.9 220.2,157.5 			"/>
			<polygon class="st6" points="220.5,160.3 220.1,160 220.1,157.2 222.8,158.8 222.8,159.3 220.5,158 			"/>
		</g>
		<g>
			<path class="st6" d="M220.3,180.8l0.1,0.1l0,4.2l-0.1-0.1L220.3,180.8z M220.3,176.6l0.1,0.1l0-4.2l-0.1-0.1L220.3,176.6z
				 M220.2,168.3l0.1,0.1l0-4.2l-0.1-0.1L220.2,168.3z"/>
			<path class="st6" d="M220.6,185.3l-0.4-0.2l0-4.5l0.4,0.2L220.6,185.3z M220.5,177l-0.4-0.2l0-4.5l0.4,0.2L220.5,177z
				 M220.5,168.6l-0.4-0.2l0-4.5l0.4,0.2L220.5,168.6z"/>
		</g>
	</g>
	<g>
		<g>
			<polygon class="st6" points="266.5,218.9 268.9,220.3 268.9,220.2 266.6,218.8 266.6,216.5 266.4,216.5 			"/>
			<polygon class="st6" points="269,220.5 266.3,219 266.3,216.2 266.7,216.4 266.7,218.7 269,220.1 			"/>
		</g>
		<g>
			<path class="st6" d="M273.1,222.6l4.2,2.4l0,0.1l-4.2-2.4L273.1,222.6z M281.4,227.5l4.2,2.4l0-0.1l-4.2-2.4L281.4,227.5z
				 M289.8,232.3l4.2,2.4l0-0.1l-4.2-2.4L289.8,232.3z"/>
			<path class="st6" d="M294.1,234.9l-4.5-2.6l0-0.5l4.5,2.6L294.1,234.9z M285.8,230.1l-4.5-2.6l0-0.5l4.5,2.6L285.8,230.1z
				 M277.4,225.3l-4.5-2.6l0-0.5l4.5,2.6L277.4,225.3z"/>
		</g>
		<g>
			<polygon class="st6" points="298.2,237.1 300.6,238.5 300.6,236.1 300.4,236 300.5,238.3 298.2,237 			"/>
			<polygon class="st6" points="300.7,238.7 298,237.2 298,236.7 300.3,238 300.3,235.7 300.7,236 			"/>
		</g>
		<g>
			<path class="st6" d="M300.4,227.6l0.1,0.1l0,4.2l-0.1-0.1L300.4,227.6z M300.4,223.5l0.1,0.1l0-4.2l-0.1-0.1L300.4,223.5z
				 M300.4,215.1l0.1,0.1l0-4.2l-0.1-0.1L300.4,215.1z"/>
			<path class="st6" d="M300.7,232.1l-0.4-0.2l0-4.5l0.4,0.2L300.7,232.1z M300.7,223.8l-0.4-0.2l0-4.5l0.4,0.2L300.7,223.8z
				 M300.7,215.4l-0.4-0.2l0-4.5l0.4,0.2L300.7,215.4z"/>
		</g>
		<g>
			<polygon class="st6" points="300.4,206.7 300.5,206.8 300.5,204.4 298.1,203 298.1,203.1 300.4,204.4 			"/>
			<polygon class="st6" points="300.6,207.1 300.2,206.8 300.2,204.5 297.9,203.2 297.9,202.7 300.6,204.3 			"/>
		</g>
		<g>
			<path class="st6" d="M273,188.6l4.2,2.4l0,0.1l-4.2-2.4L273,188.6z M281.3,193.5l4.2,2.4l0-0.1l-4.2-2.4L281.3,193.5z
				 M289.7,198.3l4.2,2.4l0-0.1l-4.2-2.4L289.7,198.3z"/>
			<path class="st6" d="M294,201l-4.5-2.6l0-0.5l4.5,2.6L294,201z M285.7,196.2l-4.5-2.6l0-0.5l4.5,2.6L285.7,196.2z M277.3,191.4
				l-4.5-2.6l0-0.5l4.5,2.6L277.3,191.4z"/>
		</g>
		<g>
			<polygon class="st6" points="266.4,187.2 266.5,187.3 266.5,185 268.8,186.3 268.8,186.2 266.4,184.8 			"/>
			<polygon class="st6" points="266.6,187.6 266.2,187.3 266.2,184.5 268.9,186.1 268.9,186.6 266.6,185.3 			"/>
		</g>
		<g>
			<path class="st6" d="M266.4,208.1l0.1,0.1l0,4.2l-0.1-0.1L266.4,208.1z M266.4,203.9l0.1,0.1l0-4.2l-0.1-0.1L266.4,203.9z
				 M266.4,195.6l0.1,0.1l0-4.2l-0.1-0.1L266.4,195.6z"/>
			<path class="st6" d="M266.7,212.6l-0.4-0.2l0-4.5l0.4,0.2L266.7,212.6z M266.7,204.3l-0.4-0.2l0-4.5l0.4,0.2L266.7,204.3z
				 M266.7,195.9l-0.4-0.2l0-4.5l0.4,0.2L266.7,195.9z"/>
		</g>
	</g>
	<path id="Icon_ionic-ios-add_00000065763567251336509720000008178318465496017561_" class="st6" d="M229.4,179.4l5.5,3.2v-5.5
		c0-0.5,0.4-0.7,0.9-0.4s0.9,0.9,0.9,1.4v5.5l5.5,3.2c0.5,0.3,0.9,0.9,0.9,1.4s-0.4,0.7-0.9,0.4l-5.5-3.2v5.5c0,0.5-0.4,0.7-0.9,0.4
		c-0.5-0.3-0.9-0.9-0.9-1.4l0,0v-5.5l-5.5-3.2c-0.5-0.3-0.9-0.9-0.9-1.4S228.9,179.1,229.4,179.4L229.4,179.4z"/>
	<path id="Icon_ionic-ios-add_00000116203872738742221220000006455696694432708773_" class="st6" d="M276.6,207l5.5,3.2v-5.5
		c0-0.5,0.4-0.7,0.9-0.4c0.5,0.3,0.9,0.9,0.9,1.4v5.5l5.5,3.2c0.5,0.3,0.9,0.9,0.9,1.4s-0.4,0.7-0.9,0.4l-5.5-3.2v5.5
		c0,0.5-0.4,0.7-0.9,0.4c-0.5-0.3-0.9-0.9-0.9-1.4l0,0V212l-5.5-3.2c-0.5-0.3-0.9-0.9-0.9-1.4S276.1,206.7,276.6,207L276.6,207z"/>
	<rect x="259.9" y="173" class="st2" width="0.5" height="49"/>
	<g>
		<path class="st8" d="M263.9,244.2c-0.4-0.5-0.6-1.2-0.3-1.4l-1-2.3c0,0-0.1,0-0.1,0c0,0-0.1,0-0.1-0.1l-1,1.1c0.2,0.4,0.2,0.8,0,1
			c-0.3,0.3-0.9,0-1.3-0.5s-0.5-1.2-0.2-1.4l-1.7-3.9c0,0,0,0-0.1,0c-0.2-0.1-0.4-0.3-0.5-0.5c-0.4-0.5-0.5-1.2-0.2-1.4
			c0.3-0.3,0.9,0,1.3,0.5c0.4,0.5,0.5,1.2,0.2,1.4l1.7,3.9c0,0,0,0,0.1,0c0,0,0.1,0,0.1,0.1l1-1.1c-0.2-0.4-0.2-0.8,0-1
			c0.3-0.3,0.9-0.1,1.3,0.5c0.4,0.5,0.6,1.2,0.3,1.4l1,2.3c0,0,0.1,0,0.1,0c0.5,0.3,0.9,1,0.9,1.5s-0.4,0.7-0.9,0.4
			C264.2,244.5,264,244.4,263.9,244.2z"/>
		<path class="st8" d="M256.6,241v-8.3c0-0.1,0-0.1-0.1-0.2l-0.7-0.4c-0.1-0.1-0.3,0-0.3,0.2v8.2v1v0.1c0,0.1,0,0.1,0.1,0.2l9.6,5.5
			c0.1,0.1,0.3,0,0.3-0.2l0-0.8c0-0.1,0-0.1-0.1-0.2l-8.7-5C256.6,241.1,256.6,241.1,256.6,241z"/>
	</g>
	<g>
		<path id="XMLID_00000055697178697017870140000014651781699469148851_" class="st6" d="M182.7,106.6v7.7c0,0.1,0,0.3-0.2,0.2
			l-18-10.6c-0.2-0.1-0.4-0.4-0.4-0.7v-7.7c0-0.3,0.2-0.4,0.4-0.2l17.8,10.4C182.5,105.9,182.7,106.2,182.7,106.6z"/>
		<path id="XMLID_00000158743405967301587310000008845472203161702825_" class="st1" d="M182.7,120.2v7.7c0,0.1,0,0.3-0.2,0.2
			l-18-10.6c-0.2-0.1-0.4-0.4-0.4-0.7v-7.7c0-0.3,0.2-0.4,0.4-0.2l17.8,10.4C182.5,119.5,182.7,119.8,182.7,120.2z"/>
		<path id="XMLID_00000100378683277747237490000010146063377793163443_" class="st10" d="M182.7,133.3v7.7c0,0.1,0,0.3-0.2,0.2
			l-18-10.6c-0.2-0.1-0.4-0.4-0.4-0.7v-7.7c0-0.3,0.2-0.4,0.4-0.2l17.8,10.4C182.5,132.6,182.7,132.9,182.7,133.3z"/>
		<g>
			<path class="st11" d="M203.7,118.9c0,0,0.1,0,0.1-0.1c0-0.1,0-0.1,0-0.2l-19-11c-0.1,0-0.1,0-0.2,0c0,0.1,0,0.1,0,0.2
				L203.7,118.9C203.7,118.9,203.7,118.9,203.7,118.9z"/>
			<path class="st11" d="M203.7,120c0,0,0.1,0,0.1-0.1c0-0.1,0-0.1,0-0.2l-19-11c-0.1,0-0.1,0-0.2,0c0,0.1,0,0.1,0,0.2L203.7,120
				C203.7,120,203.7,120,203.7,120z"/>
			<path class="st11" d="M203.7,121.2c0,0,0.1,0,0.1-0.1c0-0.1,0-0.1,0-0.2l-19-11c-0.1,0-0.1,0-0.2,0c0,0.1,0,0.1,0,0.2
				L203.7,121.2C203.7,121.2,203.7,121.2,203.7,121.2z"/>
			<path class="st11" d="M203.7,122.3c0,0,0.1,0,0.1-0.1c0-0.1,0-0.1,0-0.2l-19-11c-0.1,0-0.1,0-0.2,0c0,0.1,0,0.1,0,0.2
				L203.7,122.3C203.7,122.3,203.7,122.3,203.7,122.3z"/>
			<path class="st11" d="M193.7,117.7c0,0,0.1,0,0.1-0.1c0-0.1,0-0.1,0-0.2l-9-5.2c-0.1,0-0.1,0-0.2,0c0,0.1,0,0.1,0,0.2
				L193.7,117.7C193.7,117.7,193.7,117.7,193.7,117.7z"/>
		</g>
		<g>
			<path class="st11" d="M203.7,132.5c0,0,0.1,0,0.1-0.1c0-0.1,0-0.1,0-0.2l-19-11c-0.1,0-0.1,0-0.2,0c0,0.1,0,0.1,0,0.2
				L203.7,132.5C203.7,132.5,203.7,132.5,203.7,132.5z"/>
			<path class="st11" d="M203.7,133.6c0,0,0.1,0,0.1-0.1c0-0.1,0-0.1,0-0.2l-19-11c-0.1,0-0.1,0-0.2,0c0,0.1,0,0.1,0,0.2
				L203.7,133.6C203.7,133.6,203.7,133.6,203.7,133.6z"/>
			<path class="st11" d="M203.7,134.8c0,0,0.1,0,0.1-0.1c0-0.1,0-0.1,0-0.2l-19-11c-0.1,0-0.1,0-0.2,0c0,0.1,0,0.1,0,0.2
				L203.7,134.8C203.7,134.8,203.7,134.8,203.7,134.8z"/>
			<path class="st11" d="M203.7,135.9c0,0,0.1,0,0.1-0.1c0-0.1,0-0.1,0-0.2l-19-11c-0.1,0-0.1,0-0.2,0c0,0.1,0,0.1,0,0.2
				L203.7,135.9C203.7,135.9,203.7,135.9,203.7,135.9z"/>
			<path class="st11" d="M193.7,131.3c0,0,0.1,0,0.1-0.1c0-0.1,0-0.1,0-0.2l-9-5.2c-0.1,0-0.1,0-0.2,0c0,0.1,0,0.1,0,0.2
				L193.7,131.3C193.7,131.3,193.7,131.3,193.7,131.3z"/>
		</g>
		<g>
			<path class="st11" d="M203.7,145.9c0,0,0.1,0,0.1-0.1c0-0.1,0-0.1,0-0.2l-19-11c-0.1,0-0.1,0-0.2,0c0,0.1,0,0.1,0,0.2
				L203.7,145.9C203.7,145.9,203.7,145.9,203.7,145.9z"/>
			<path class="st11" d="M203.7,147.1c0,0,0.1,0,0.1-0.1c0-0.1,0-0.1,0-0.2l-19-11c-0.1,0-0.1,0-0.2,0c0,0.1,0,0.1,0,0.2
				L203.7,147.1C203.7,147.1,203.7,147.1,203.7,147.1z"/>
			<path class="st11" d="M203.7,148.2c0,0,0.1,0,0.1-0.1c0-0.1,0-0.1,0-0.2l-19-11c-0.1,0-0.1,0-0.2,0c0,0.1,0,0.1,0,0.2
				L203.7,148.2C203.7,148.2,203.7,148.2,203.7,148.2z"/>
			<path class="st11" d="M203.7,149.4c0,0,0.1,0,0.1-0.1c0-0.1,0-0.1,0-0.2l-19-11c-0.1,0-0.1,0-0.2,0c0,0.1,0,0.1,0,0.2
				L203.7,149.4C203.7,149.4,203.7,149.4,203.7,149.4z"/>
			<path class="st11" d="M193.7,144.8c0,0,0.1,0,0.1-0.1c0-0.1,0-0.1,0-0.2l-9-5.2c-0.1,0-0.1,0-0.2,0c0,0.1,0,0.1,0,0.2
				L193.7,144.8C193.7,144.8,193.7,144.8,193.7,144.8z"/>
		</g>
		<g>
			<path class="st11" d="M190.9,99.9c0.1,0,0.2-0.1,0.3-0.2c0.1-0.2,0-0.4-0.1-0.5l-55-31.7c-0.2-0.1-0.4,0-0.5,0.1
				c-0.1,0.2,0,0.4,0.1,0.5l55,31.7C190.8,99.9,190.9,99.9,190.9,99.9z"/>
			<path class="st8" d="M190.9,100.3c-0.1,0-0.3,0-0.4-0.1l-55-31.7c-0.2-0.1-0.3-0.3-0.4-0.5c-0.1-0.2,0-0.4,0.1-0.6
				c0.2-0.4,0.7-0.5,1.1-0.3l55,31.7c0.2,0.1,0.3,0.3,0.4,0.5c0.1,0.2,0,0.4-0.1,0.6C191.5,100.2,191.2,100.3,190.9,100.3z"/>
		</g>
		<g id="XMLID_00000174586988310222272060000014349719687259997072_">
			<path id="XMLID_00000163751655419308984610000005940337400888848812_" class="st1" d="M145.8,84.7c-2.8-1.6-5.4-1.9-7.5-1.1
				l7.5,18V84.7z"/>
			<path id="XMLID_00000151522068330305588840000015835308078198872218_" class="st6" d="M153.2,92.2c-2.1-3.2-4.7-5.9-7.5-7.6v16.9
				L153.2,92.2z"/>
			<path id="XMLID_00000034062048674263508720000009686493937288764558_" class="st7" d="M157.9,103.3c-0.8-3.9-2.5-7.8-4.6-11.1
				l-7.5,9.4L157.9,103.3z"/>
			<path id="XMLID_00000133516561952051988170000009889376226584629686_" class="st1" d="M138.3,83.6c-2.1,0.8-3.8,2.8-4.6,5.8
				l12.1,12.2L138.3,83.6z"/>
			<path id="XMLID_00000111155958427386758100000009777368582291775661_" class="st7" d="M157.9,113.8c0.4-1.4,0.6-3,0.6-4.9
				c0-1.8-0.2-3.7-0.6-5.6l-12.1-1.7L157.9,113.8z"/>
			<path id="XMLID_00000029004051861270835120000006708163885857360527_" class="st7" d="M133.7,99.9c0.8,3.9,2.5,7.8,4.6,11.1
				l7.5-9.4L133.7,99.9z"/>
			<path id="XMLID_00000028307060590022748020000009616110315515429518_" class="st7" d="M145.8,118.5c2.8,1.6,5.4,1.9,7.5,1.1
				l-7.5-18V118.5z"/>
			<path id="XMLID_00000119091321895089220910000005388556863889505412_" class="st7" d="M157.9,113.8l-12.1-12.2l7.5,18
				C155.4,118.7,157,116.7,157.9,113.8z"/>
			<path class="st9" d="M153.2,92.2c2.1,3.3,3.8,7.2,4.6,11.1c0.4,1.9,0.6,3.8,0.6,5.6c0,1.8-0.2,3.5-0.6,4.9
				c-0.8,3-2.5,4.9-4.6,5.8l-7.5-18L153.2,92.2z"/>
			<path id="XMLID_00000129184331363205567970000013895503116464386969_" class="st7" d="M133.7,89.4c-0.4,1.4-0.6,3-0.6,4.9
				c0,1.8,0.2,3.7,0.6,5.6l12.1,1.7L133.7,89.4z"/>
			<path id="XMLID_00000033353510850883369780000006895083296051801230_" class="st7" d="M138.3,111c2.1,3.2,4.7,5.9,7.5,7.6v-16.9
				L138.3,111z"/>
			<path class="st12" d="M133.7,89.4l12.1,12.2l7.5,18c-2.1,0.8-4.7,0.6-7.5-1.1c-2.8-1.6-5.4-4.3-7.5-7.6
				c-2.1-3.3-3.8-7.2-4.6-11.1c-0.4-1.9-0.6-3.8-0.6-5.6C133.1,92.4,133.3,90.8,133.7,89.4z"/>
		</g>
	</g>
	<path id="Icon_metro-pencil_00000136397897616539217520000008690421270262343350_" class="st5" d="M71.2,56.6l0.9,1.5l-3.2,1.4
		L68,58c-0.3-0.6-0.5-1.2-0.5-1.7c0-1.3,1-1.7,2.3-1C70.3,55.6,70.8,56.1,71.2,56.6z M81.4,72.7l0.9,4.7L78.1,74l-8.5-13.5l3.2-1.4
		L81.4,72.7z M72,61.8l6.5,10.2l0.8-0.3l-6.5-10.2L72,61.8L72,61.8z"/>
	<path id="Icon_material-add-box_00000106862405111256485900000004418407737532160413_" class="st6" d="M67.8,102.6V113
		c0,0.8,0.7,1.9,1.5,2.3l10.4,6c0.8,0.5,1.5,0.2,1.5-0.6v-10.4c0-0.8-0.7-1.9-1.5-2.3l-10.4-6C68.5,101.5,67.8,101.8,67.8,102.6z
		 M70.8,110.2l3,1.7v3l1.5,0.9v-3l3,1.7V113l-3-1.7v-3l-1.5-0.9v3l-3-1.7V110.2z"/>
	<polygon class="st5" points="70.7,110.2 73.7,111.9 73.7,114.9 75.2,115.7 75.2,112.8 78.2,114.5 78.2,113 75.2,111.3 75.2,108.3 
		73.7,107.5 73.7,110.4 70.7,108.7 	"/>
	<path class="st13" d="M211.1,166.6l-0.3-0.2l-85.7-48.8V51.8l0.4,0.2l86.2,49.7l0,0.1L211.1,166.6z M125.5,117.3l85.1,48.5
		l0.4-63.8l-85.6-49.4V117.3z"/>
	<g>
		<polygon class="st6" points="211.4,172.3 125.3,122.6 125.3,146.3 210.9,195 		"/>
		<path class="st8" d="M204.3,178.6v4.1c0,1.1-0.8,1.6-1.8,1l-10-5.8c-1-0.6-1.8-2-1.8-3.1l0-4.1c0-1.1,0.8-1.6,1.8-1l10,5.8
			C203.5,176.1,204.3,177.5,204.3,178.6z"/>
		<path class="st5" d="M183.3,166.1l-48-27.2c-1.2-0.7-2.2-0.2-2.2,1.1c0,1.3,1,3,2.2,3.7l48,27.2c1.2,0.7,2.2,0.2,2.2-1.1
			C185.5,168.4,184.5,166.8,183.3,166.1z"/>
	</g>
	<g>
		<polygon class="st4" points="211.4,199.9 125.3,150.2 125.3,173.9 210.9,222.6 		"/>
		<path class="st2" d="M204.3,206.2v4.1c0,1.1-0.8,1.6-1.8,1l-10-5.8c-1-0.6-1.8-2-1.8-3.1l0-4.1c0-1.1,0.8-1.6,1.8-1l10,5.8
			C203.5,203.7,204.3,205.1,204.3,206.2z"/>
		<path class="st5" d="M183.3,193.7l-48-27.2c-1.2-0.7-2.2-0.2-2.2,1.1c0,1.3,1,3,2.2,3.7l48,27.2c1.2,0.7,2.2,0.2,2.2-1.1
			C185.5,196.1,184.5,194.4,183.3,193.7z"/>
	</g>
</g>
</svg>
