<?xml version="1.0" encoding="utf-8"?>
<!-- Generator: Adobe Illustrator 25.4.1, SVG Export Plug-In . SVG Version: 6.00 Build 0)  -->
<svg version="1.1" id="Laag_1" xmlns="http://www.w3.org/2000/svg" xmlns:xlink="http://www.w3.org/1999/xlink" x="0px" y="0px"
	 viewBox="0 0 383.2 378.8" style="enable-background:new 0 0 383.2 378.8;" xml:space="preserve">
<style type="text/css">
	.st0{fill:#FFFFFF;}
	.st1{fill:#EDEDED;}
	.st2{fill:url(#XMLID_00000139272299968428720520000002461682719790967728_);}
	.st3{fill:url(#SVGID_1_);}
	.st4{fill:#F6F6F6;}
	.st5{fill:#535E6D;}
	.st6{fill:#FFBF3F;}
	.st7{fill:#37474F;}
	.st8{fill:url(#XMLID_00000139254335886696286550000005824651620732720299_);}
	.st9{fill:url(#XMLID_00000027581706227841639210000013893512089519243183_);}
	.st10{fill:#00865F;}
	.st11{fill:url(#XMLID_00000057143157405254142470000010323652270265232008_);}
	.st12{fill:#43AC9C;}
	.st13{fill:#64FFDA;}
	.st14{fill:#0A192F;}
	.st15{opacity:0.6;fill:#FFFFFF;}
	.st16{fill:#E1EFEA;}
	.st17{fill:#E6F1ED;}
	.st18{fill:url(#SVGID_00000149383155101415017850000012194667112814226571_);}
	.st19{enable-background:new    ;}
	.st20{clip-path:url(#SVGID_00000155120791849682237690000004682609652224655246_);}
	.st21{clip-path:url(#SVGID_00000048477048167434278710000017004010806565351054_);}
	.st22{clip-path:url(#SVGID_00000000916511710094557670000017433604522255782051_);}
</style>
<g>
	<g>
		<path class="st0" d="M245.6,71.1v-0.6l2.1-1.2v0.6l-0.5,0.4v1.5l2.1-1.2v-1.5l-0.5,0.2v-0.6l0.5-0.3l1-0.6l0.5-0.3v0.6l-0.5,0.4
			v3.7l0.5-0.2v0.6l-2.1,1.2v-0.6l0.5-0.4v-1.4l-2.1,1.2V74l0.5-0.2v0.6l-2.1,1.2V75l0.5-0.4v-3.7L245.6,71.1z"/>
		<path class="st0" d="M255.7,64.7V66l-0.8,0.5l0-0.5l-0.9,0.5v3.6l0.5-0.2v0.6l-2.1,1.2v-0.6l0.5-0.4v-3.6l-0.9,0.5l0,0.6l-0.8,0.5
			v-1.4L255.7,64.7z"/>
		<path class="st0" d="M261,63L261,63l-1.4,4.6l-0.7,0.4l-1.4-3l0,0l0.1,2.2V68l0.5-0.2v0.6l-2.1,1.2V69l0.5-0.4v-3.7l-0.5,0.2v-0.6
			l0.5-0.3l1.3-0.8l1.3,3l0,0l1.3-4.5l1.9-1.1v0.6l-0.5,0.4v3.7l0.5-0.2v0.6l-2.1,1.2v-0.6l0.5-0.4v-0.8L261,63z"/>
		<path class="st0" d="M262.8,65.7v-0.6l0.5-0.4V61l-0.5,0.2v-0.6l0.5-0.3l1-0.6l0.5-0.3V60l-0.5,0.4V64l1.4-0.8l0-0.7l0.8-0.5v1.4
			L262.8,65.7z"/>
	</g>
	<g id="Window_4_">
		<path class="st1" d="M353.8,172.4c0-0.1,0-0.2-0.1-0.3c0,0,0,0,0-0.1c0-0.1,0-0.2-0.1-0.3c0-0.2-0.1-0.3-0.2-0.4
			c0-0.1-0.1-0.1-0.1-0.2c0,0-0.1-0.1-0.1-0.1c-0.1-0.1-0.1-0.2-0.2-0.2c0,0,0,0,0,0c-0.1-0.1-0.2-0.1-0.3-0.2
			c-0.6-0.3-1.4-0.2-2.4,0.3l-69.8,40c-1.9,1.1-3.5,3.8-3.5,6.1v127.7c0,0,0,0,0,0v0.8c0,0.9,0.5,1.7,1.3,2.1c0,0,0.1,0.1,0.1,0.1
			c0.1,0,0.1,0.1,0.2,0.1c0.1,0,0.2,0.1,0.3,0.1c0.1,0,0.3,0.1,0.4,0.1c0.4,0,0.8-0.1,1.2-0.3l0.1-0.1c0,0,0,0,0,0l3.3-1.9
			l66.3-38.1c1.9-1.1,3.5-3.8,3.5-6.1V172.9C353.8,172.7,353.8,172.6,353.8,172.4z"/>
		<g id="XMLID_280_">
			
				<linearGradient id="XMLID_00000030476171924829223740000006233679527846979758_" gradientUnits="userSpaceOnUse" x1="315.4321" y1="79.2806" x2="315.4321" y2="523.6495">
				<stop  offset="0.1611" style="stop-color:#00865F"/>
				<stop  offset="0.3603" style="stop-color:#64FFDA"/>
				<stop  offset="0.4665" style="stop-color:#F6F6F6"/>
				<stop  offset="0.5249" style="stop-color:#64FFDA"/>
				<stop  offset="0.7179" style="stop-color:#43AC9C"/>
				<stop  offset="1" style="stop-color:#43AC9C"/>
			</linearGradient>
			<path id="XMLID_281_" style="fill:url(#XMLID_00000030476171924829223740000006233679527846979758_);" d="M353.8,172.8
				c0-2.2-1.6-3.1-3.5-2l-69.8,40c-1.9,1.1-3.5,3.8-3.5,6.1l0,11.4l76.7-44V172.8z"/>
			<linearGradient id="SVGID_1_" gradientUnits="userSpaceOnUse" x1="354.13" y1="158.7818" x2="206.5787" y2="272.3351">
				<stop  offset="0.1611" style="stop-color:#00865F"/>
				<stop  offset="0.3603" style="stop-color:#64FFDA"/>
				<stop  offset="0.4665" style="stop-color:#F6F6F6"/>
				<stop  offset="0.5249" style="stop-color:#64FFDA"/>
				<stop  offset="0.7179" style="stop-color:#43AC9C"/>
				<stop  offset="1" style="stop-color:#43AC9C"/>
			</linearGradient>
			<path class="st3" d="M348.4,168.1c-0.6-0.4-1.5-0.4-2.5,0.2l-69.8,40c-0.9,0.5-1.8,1.5-2.4,2.6c-0.6,1.1-1.1,2.4-1.1,3.5l0,11.4
				l4.5,2.6v-11.4c0-1.1,0.4-2.4,1-3.5l0,0c0.6-1.1,1.5-2,2.5-2.6l69.8-40c0.9-0.5,1.7-0.6,2.3-0.3
				C351.9,170.1,349,168.5,348.4,168.1z"/>
		</g>
		<path class="st4" d="M278.3,347.5l-0.2-0.1l-3.7-2.1c-1-0.6-1.7-1.6-1.8-2.7c0-0.2,0-0.3,0-0.5V225.7l4.5,2.6v117.1
			c0,0.9,0.5,1.6,1.1,2C278.3,347.4,278.3,347.5,278.3,347.5z"/>
	</g>
	<g>
		<path class="st5" d="M287.5,232.9l40.5-23.4c0.9-0.5,1.7-0.1,1.7,1v3.4c0,1.1-0.7,2.4-1.7,2.9l-40.5,23.4c-0.9,0.5-1.7,0.1-1.7-1
			l0-3.4C285.8,234.7,286.6,233.4,287.5,232.9z"/>
		<path class="st6" d="M286.5,244.3l30-17.3c0.4-0.2,0.7,0,0.7,0.4l0,2.1c0,0.4-0.3,0.9-0.7,1.2l-30,17.3c-0.4,0.2-0.7,0-0.7-0.4
			v-2.1C285.8,245.1,286.1,244.5,286.5,244.3z"/>
		<g>
			<g>
				<path class="st7" d="M285.8,256c-0.1,0-0.3-0.1-0.3-0.2c-0.1-0.2,0-0.4,0.1-0.5l59.4-34.3c0.2-0.1,0.4,0,0.5,0.1
					c0.1,0.2,0,0.4-0.1,0.5L286,255.9C286,255.9,285.9,256,285.8,256z"/>
				<path class="st7" d="M285.8,259.6c-0.1,0-0.3-0.1-0.3-0.2c-0.1-0.2,0-0.4,0.1-0.5l59.4-34.3c0.2-0.1,0.4,0,0.5,0.1
					c0.1,0.2,0,0.4-0.1,0.5L286,259.5C286,259.6,285.9,259.6,285.8,259.6z"/>
				<path class="st7" d="M285.8,263.2c-0.1,0-0.3-0.1-0.3-0.2c-0.1-0.2,0-0.4,0.1-0.5l59.4-34.3c0.2-0.1,0.4,0,0.5,0.1
					c0.1,0.2,0,0.4-0.1,0.5L286,263.1C286,263.2,285.9,263.2,285.8,263.2z"/>
				<path class="st7" d="M285.8,266.8c-0.1,0-0.3-0.1-0.3-0.2c-0.1-0.2,0-0.4,0.1-0.5l59.4-34.3c0.2-0.1,0.4,0,0.5,0.1
					c0.1,0.2,0,0.4-0.1,0.5L286,266.7C286,266.8,285.9,266.8,285.8,266.8z"/>
				<path class="st7" d="M285.8,270.4c-0.1,0-0.3-0.1-0.3-0.2c-0.1-0.2,0-0.4,0.1-0.5l59.4-34.3c0.2-0.1,0.4,0,0.5,0.1
					c0.1,0.2,0,0.4-0.1,0.5L286,270.4C286,270.4,285.9,270.4,285.8,270.4z"/>
				<path class="st7" d="M285.8,274c-0.1,0-0.3-0.1-0.3-0.2c-0.1-0.2,0-0.4,0.1-0.5l28.2-16.3c0.2-0.1,0.4,0,0.5,0.1
					c0.1,0.2,0,0.4-0.1,0.5L286,274C286,274,285.9,274,285.8,274z"/>
			</g>
			<g>
				<path class="st7" d="M285.8,281.3c-0.1,0-0.3-0.1-0.3-0.2c-0.1-0.2,0-0.4,0.1-0.5l59.4-34.3c0.2-0.1,0.4,0,0.5,0.1
					c0.1,0.2,0,0.4-0.1,0.5L286,281.2C286,281.2,285.9,281.3,285.8,281.3z"/>
				<path class="st7" d="M285.8,284.9c-0.1,0-0.3-0.1-0.3-0.2c-0.1-0.2,0-0.4,0.1-0.5l59.4-34.3c0.2-0.1,0.4,0,0.5,0.1
					c0.1,0.2,0,0.4-0.1,0.5L286,284.8C286,284.9,285.9,284.9,285.8,284.9z"/>
				<path class="st7" d="M285.8,288.5c-0.1,0-0.3-0.1-0.3-0.2c-0.1-0.2,0-0.4,0.1-0.5l59.4-34.3c0.2-0.1,0.4,0,0.5,0.1
					c0.1,0.2,0,0.4-0.1,0.5L286,288.4C286,288.5,285.9,288.5,285.8,288.5z"/>
				<path class="st7" d="M285.8,292.1c-0.1,0-0.3-0.1-0.3-0.2c-0.1-0.2,0-0.4,0.1-0.5l59.4-34.3c0.2-0.1,0.4,0,0.5,0.1
					c0.1,0.2,0,0.4-0.1,0.5L286,292.1C286,292.1,285.9,292.1,285.8,292.1z"/>
				<path class="st7" d="M285.8,295.7c-0.1,0-0.3-0.1-0.3-0.2c-0.1-0.2,0-0.4,0.1-0.5l59.4-34.3c0.2-0.1,0.4,0,0.5,0.1
					c0.1,0.2,0,0.4-0.1,0.5L286,295.7C286,295.7,285.9,295.7,285.8,295.7z"/>
				<path class="st7" d="M285.8,299.3c-0.1,0-0.3-0.1-0.3-0.2c-0.1-0.2,0-0.4,0.1-0.5l28.2-16.3c0.2-0.1,0.4,0,0.5,0.1
					c0.1,0.2,0,0.4-0.1,0.5L286,299.3C286,299.3,285.9,299.3,285.8,299.3z"/>
			</g>
		</g>
	</g>
	<g id="Monitor_2_">
		
			<linearGradient id="XMLID_00000089548103347905666630000010333980136127044021_" gradientUnits="userSpaceOnUse" x1="36.9989" y1="410.0268" x2="208.8375" y2="16.4206">
			<stop  offset="0.1611" style="stop-color:#00865F"/>
			<stop  offset="0.3603" style="stop-color:#64FFDA"/>
			<stop  offset="0.4665" style="stop-color:#F6F6F6"/>
			<stop  offset="0.5249" style="stop-color:#64FFDA"/>
			<stop  offset="0.7179" style="stop-color:#43AC9C"/>
			<stop  offset="1" style="stop-color:#43AC9C"/>
		</linearGradient>
		<path id="XMLID_264_" style="fill:url(#XMLID_00000089548103347905666630000010333980136127044021_);" d="M4.7,377.7
			c2.6,1.5,7,1.4,9.7-0.2c34.6-20,197.2-113.8,231.8-133.8c2.8-1.6,5-5.5,5-8.7V44.8c0-3.2-2.1-7-4.7-8.5c-2.6-1.5-7-1.4-9.7,0.2
			L5,170.3c-2.8,1.6-5,5.5-5,8.7l0,190.2C0,372.4,2.1,376.2,4.7,377.7z"/>
		
			<linearGradient id="XMLID_00000113327497605384423340000017925466754641189051_" gradientUnits="userSpaceOnUse" x1="490.8264" y1="-128.5039" x2="143.8206" y2="192.9133">
			<stop  offset="0.1611" style="stop-color:#00865F"/>
			<stop  offset="0.3603" style="stop-color:#64FFDA"/>
			<stop  offset="0.4665" style="stop-color:#F6F6F6"/>
			<stop  offset="0.5249" style="stop-color:#64FFDA"/>
			<stop  offset="0.7179" style="stop-color:#43AC9C"/>
			<stop  offset="1" style="stop-color:#43AC9C"/>
		</linearGradient>
		<path id="XMLID_263_" style="fill:url(#XMLID_00000113327497605384423340000017925466754641189051_);" d="M14.4,368.3l231.7-133.1
			c2.8-1.6,5.3-6,5.3-9.2l-0.1-181.2c0-3.2-2.2-4.5-5-2.9L14.4,175.7c-2.8,1.6-5,5.5-5,8.7l0,181C9.4,368.6,11.7,369.9,14.4,368.3z"
			/>
		<path id="XMLID_262_" class="st10" d="M16.1,355.1l0-168.5c0-2,1.4-4.4,3.1-5.3L241.6,52.9c1.7-1,3.1-0.2,3.1,1.8l0,168.5
			c0,2-1.4,4.4-3.1,5.3L19.1,356.9C17.4,357.9,16.1,357.1,16.1,355.1z"/>
		
			<linearGradient id="XMLID_00000170996619400915434410000017358525428060554430_" gradientUnits="userSpaceOnUse" x1="109.7175" y1="147.11" x2="277.9701" y2="618.5205">
			<stop  offset="0.164" style="stop-color:#FFFFFF"/>
			<stop  offset="0.3721" style="stop-color:#D6D6D6"/>
			<stop  offset="0.7294" style="stop-color:#BDBCBC"/>
			<stop  offset="1" style="stop-color:#FFFFFF"/>
		</linearGradient>
		<path id="XMLID_261_" style="fill:url(#XMLID_00000170996619400915434410000017358525428060554430_);" d="M16.1,355.1l0-168.5
			c0-2,1.4-4.4,3.1-5.3L241.6,52.9c1.7-1,3.1-0.2,3.1,1.8l0,168.5c0,2-1.4,4.4-3.1,5.3L19.1,356.9C17.4,357.9,16.1,357.1,16.1,355.1
			z"/>
	</g>
	<g>
		<polygon class="st12" points="28.6,246.2 107.9,200.4 107.9,243.8 29,288.7 		"/>
		<path class="st12" d="M29,288.8C29,288.8,29,288.8,29,288.8C29,288.8,29,288.8,29,288.8l-0.5-42.6c0,0,0,0,0,0l79.3-45.8
			c0,0,0,0,0,0c0,0,0,0,0,0v43.4c0,0,0,0,0,0L29,288.8C29,288.8,29,288.8,29,288.8z M28.6,246.2l0.4,42.4l78.8-44.9v-43.3
			L28.6,246.2z"/>
	</g>
	<path class="st13" d="M35.9,248.5l17.8-10.3c1.1-0.6,1.9-0.1,1.9,1.1l0,20.6c0,1.2-0.9,2.7-1.9,3.3l-17.8,10.3
		c-1.1,0.6-1.9,0.1-1.9-1.1l0-20.6C34,250.6,34.9,249.1,35.9,248.5z"/>
	<path class="st0" d="M60.7,235.3l41.3-23.9c0.3-0.2,0.6,0,0.6,0.3v2c0,0.4-0.3,0.8-0.6,1l-41.3,23.9c-0.3,0.2-0.6,0-0.6-0.3l0-2
		C60.2,235.9,60.4,235.5,60.7,235.3z"/>
	<path class="st0" d="M60.7,243l41.3-23.9c0.3-0.2,0.6,0,0.6,0.3v2c0,0.4-0.3,0.8-0.6,1l-41.3,23.9c-0.3,0.2-0.6,0-0.6-0.3l0-2
		C60.2,243.7,60.4,243.2,60.7,243z"/>
	<path class="st0" d="M60.7,251.6l41.3-23.9c0.3-0.2,0.6,0,0.6,0.3v2c0,0.4-0.3,0.8-0.6,1L60.7,255c-0.3,0.2-0.6,0-0.6-0.3l0-2
		C60.2,252.3,60.4,251.8,60.7,251.6z"/>
	<path class="st0" d="M60.7,259.4l41.3-23.9c0.3-0.2,0.6,0,0.6,0.3v2c0,0.4-0.3,0.8-0.6,1l-41.3,23.9c-0.3,0.2-0.6,0-0.6-0.3l0-2
		C60.2,260,60.4,259.6,60.7,259.4z"/>
	<g>
		<g>
			<polygon class="st12" points="285.5,307.5 345.6,272.8 345.6,305.6 285.8,339.7 			"/>
			<path class="st12" d="M285.8,339.8C285.8,339.8,285.8,339.8,285.8,339.8C285.8,339.7,285.8,339.7,285.8,339.8l-0.3-32.3
				c0,0,0,0,0,0l60.1-34.7c0,0,0,0,0,0c0,0,0,0,0,0v32.9c0,0,0,0,0,0L285.8,339.8C285.8,339.8,285.8,339.8,285.8,339.8z
				 M285.5,307.5l0.3,32.2l59.7-34v-32.8L285.5,307.5z"/>
		</g>
		<path class="st13" d="M291,309.2l13.5-7.8c0.8-0.5,1.5-0.1,1.5,0.8l0,15.6c0,0.9-0.7,2.1-1.5,2.5l-13.5,7.8
			c-0.8,0.5-1.5,0.1-1.5-0.8l0-15.6C289.6,310.8,290.2,309.7,291,309.2z"/>
		<path class="st4" d="M309.8,299.2l31.3-18.1c0.2-0.1,0.4,0,0.4,0.3v1.5c0,0.3-0.2,0.6-0.4,0.8l-31.3,18.1c-0.2,0.1-0.4,0-0.4-0.3
			l0-1.5C309.4,299.7,309.6,299.4,309.8,299.2z"/>
		<path class="st4" d="M309.8,305.1l31.3-18.1c0.2-0.1,0.4,0,0.4,0.3v1.5c0,0.3-0.2,0.6-0.4,0.8l-31.3,18.1c-0.2,0.1-0.4,0-0.4-0.3
			l0-1.5C309.4,305.6,309.6,305.2,309.8,305.1z"/>
		<path class="st4" d="M309.8,311.6l31.3-18.1c0.2-0.1,0.4,0,0.4,0.3v1.5c0,0.3-0.2,0.6-0.4,0.8l-31.3,18.1c-0.2,0.1-0.4,0-0.4-0.3
			l0-1.5C309.4,312.1,309.6,311.8,309.8,311.6z"/>
		<path class="st4" d="M309.8,317.5l31.3-18.1c0.2-0.1,0.4,0,0.4,0.3v1.5c0,0.3-0.2,0.6-0.4,0.8L309.8,320c-0.2,0.1-0.4,0-0.4-0.3
			l0-1.5C309.4,318,309.6,317.6,309.8,317.5z"/>
	</g>
	<g>
		<polygon class="st12" points="28.6,296.6 107.9,250.8 107.9,294.2 29,339.2 		"/>
		<path class="st12" d="M29,339.2C29,339.2,29,339.2,29,339.2C29,339.2,29,339.2,29,339.2l-0.5-42.6c0,0,0,0,0,0l79.3-45.8
			c0,0,0,0,0,0c0,0,0,0,0,0v43.4c0,0,0,0,0,0L29,339.2C29,339.2,29,339.2,29,339.2z M28.6,296.7l0.4,42.4l78.8-44.9v-43.3
			L28.6,296.7z"/>
	</g>
	<path class="st14" d="M35.9,298.9l17.8-10.3c1.1-0.6,1.9-0.1,1.9,1.1l0,20.6c0,1.2-0.9,2.7-1.9,3.3l-17.8,10.3
		c-1.1,0.6-1.9,0.1-1.9-1.1l0-20.6C34,301,34.9,299.5,35.9,298.9z"/>
	<path class="st0" d="M60.7,285.7l41.3-23.9c0.3-0.2,0.6,0,0.6,0.3v2c0,0.4-0.3,0.8-0.6,1l-41.3,23.9c-0.3,0.2-0.6,0-0.6-0.3l0-2
		C60.2,286.4,60.4,285.9,60.7,285.7z"/>
	<path class="st0" d="M60.7,293.5l41.3-23.9c0.3-0.2,0.6,0,0.6,0.3v2c0,0.4-0.3,0.8-0.6,1l-41.3,23.9c-0.3,0.2-0.6,0-0.6-0.3l0-2
		C60.2,294.1,60.4,293.6,60.7,293.5z"/>
	<path class="st0" d="M60.7,302.1l41.3-23.9c0.3-0.2,0.6,0,0.6,0.3v2c0,0.4-0.3,0.8-0.6,1l-41.3,23.9c-0.3,0.2-0.6,0-0.6-0.3l0-2
		C60.2,302.7,60.4,302.3,60.7,302.1z"/>
	<path class="st0" d="M60.7,309.8l41.3-23.9c0.3-0.2,0.6,0,0.6,0.3v2c0,0.4-0.3,0.8-0.6,1l-41.3,23.9c-0.3,0.2-0.6,0-0.6-0.3l0-2
		C60.2,310.5,60.4,310,60.7,309.8z"/>
	<g>
		<polygon class="st12" points="113.8,197.8 193.1,152 193.1,195.4 114.2,240.4 		"/>
		<path class="st12" d="M114.2,240.4C114.2,240.4,114.2,240.4,114.2,240.4C114.2,240.4,114.2,240.4,114.2,240.4l-0.5-42.6
			c0,0,0,0,0,0l79.3-45.8c0,0,0,0,0,0c0,0,0,0,0,0v43.4c0,0,0,0,0,0L114.2,240.4C114.2,240.4,114.2,240.4,114.2,240.4z M113.8,197.9
			l0.4,42.4l78.8-44.9v-43.3L113.8,197.9z"/>
	</g>
	<path class="st0" d="M121.1,200.1l17.8-10.3c1.1-0.6,1.9-0.1,1.9,1.1l0,20.6c0,1.2-0.9,2.7-1.9,3.3l-17.8,10.3
		c-1.1,0.6-1.9,0.1-1.9-1.1l0-20.6C119.2,202.2,120,200.7,121.1,200.1z"/>
	<path class="st0" d="M145.9,186.9l41.3-23.9c0.3-0.2,0.6,0,0.6,0.3v2c0,0.4-0.3,0.8-0.6,1l-41.3,23.9c-0.3,0.2-0.6,0-0.6-0.3l0-2
		C145.3,187.5,145.6,187.1,145.9,186.9z"/>
	<path class="st0" d="M145.9,194.7l41.3-23.9c0.3-0.2,0.6,0,0.6,0.3v2c0,0.4-0.3,0.8-0.6,1L145.9,198c-0.3,0.2-0.6,0-0.6-0.3l0-2
		C145.3,195.3,145.6,194.8,145.9,194.7z"/>
	<path class="st0" d="M145.9,203.3l41.3-23.9c0.3-0.2,0.6,0,0.6,0.3v2c0,0.4-0.3,0.8-0.6,1l-41.3,23.9c-0.3,0.2-0.6,0-0.6-0.3l0-2
		C145.3,203.9,145.6,203.4,145.9,203.3z"/>
	<path class="st0" d="M145.9,211l41.3-23.9c0.3-0.2,0.6,0,0.6,0.3v2c0,0.4-0.3,0.8-0.6,1l-41.3,23.9c-0.3,0.2-0.6,0-0.6-0.3l0-2
		C145.3,211.6,145.6,211.2,145.9,211z"/>
	<g>
		<polygon class="st12" points="113.8,248.3 193.1,202.5 193.1,245.8 114.2,290.8 		"/>
		<path class="st12" d="M114.2,290.8C114.2,290.8,114.2,290.8,114.2,290.8C114.2,290.8,114.2,290.8,114.2,290.8l-0.5-42.6
			c0,0,0,0,0,0l79.3-45.8c0,0,0,0,0,0c0,0,0,0,0,0v43.4c0,0,0,0,0,0L114.2,290.8C114.2,290.8,114.2,290.8,114.2,290.8z M113.8,248.3
			l0.4,42.4l78.8-44.9v-43.3L113.8,248.3z"/>
	</g>
	<path class="st6" d="M121.1,250.5l17.8-10.3c1.1-0.6,1.9-0.1,1.9,1.1l0,20.6c0,1.2-0.9,2.7-1.9,3.3l-17.8,10.3
		c-1.1,0.6-1.9,0.1-1.9-1.1l0-20.6C119.2,252.6,120,251.1,121.1,250.5z"/>
	<path class="st0" d="M145.9,237.3l41.3-23.9c0.3-0.2,0.6,0,0.6,0.3v2c0,0.4-0.3,0.8-0.6,1l-41.3,23.9c-0.3,0.2-0.6,0-0.6-0.3l0-2
		C145.3,238,145.6,237.5,145.9,237.3z"/>
	<path class="st0" d="M145.9,245.1l41.3-23.9c0.3-0.2,0.6,0,0.6,0.3v2c0,0.4-0.3,0.8-0.6,1l-41.3,23.9c-0.3,0.2-0.6,0-0.6-0.3l0-2
		C145.3,245.7,145.6,245.3,145.9,245.1z"/>
	<path class="st0" d="M145.9,253.7l41.3-23.9c0.3-0.2,0.6,0,0.6,0.3v2c0,0.4-0.3,0.8-0.6,1l-41.3,23.9c-0.3,0.2-0.6,0-0.6-0.3l0-2
		C145.3,254.3,145.6,253.9,145.9,253.7z"/>
	<path class="st0" d="M145.9,261.4l41.3-23.9c0.3-0.2,0.6,0,0.6,0.3v2c0,0.4-0.3,0.8-0.6,1l-41.3,23.9c-0.3,0.2-0.6,0-0.6-0.3l0-2
		C145.3,262.1,145.6,261.6,145.9,261.4z"/>
	<path class="st5" d="M32.3,186.4l57.4-33.1c1.3-0.8,2.4-0.1,2.4,1.4v4.8c0,1.5-1.1,3.3-2.4,4.1l-57.4,33.1
		c-1.3,0.8-2.4,0.1-2.4-1.4l0-4.8C29.9,189,31,187.1,32.3,186.4z"/>
	<path class="st6" d="M30.9,202.6L73.4,178c0.5-0.3,0.9-0.1,0.9,0.5l0,2.9c0,0.6-0.4,1.3-0.9,1.6l-42.5,24.5
		c-0.5,0.3-0.9,0.1-0.9-0.5v-2.9C29.9,203.6,30.4,202.9,30.9,202.6z"/>
	<g>
		<g>
			<path class="st7" d="M29.9,216.9c-0.2,0-0.3-0.1-0.4-0.2c-0.1-0.2-0.1-0.5,0.2-0.7l76.3-44.1c0.2-0.1,0.5-0.1,0.7,0.2
				c0.1,0.2,0.1,0.5-0.2,0.7l-76.3,44.1C30.1,216.9,30,216.9,29.9,216.9z"/>
			<path class="st7" d="M29.9,221.5c-0.2,0-0.3-0.1-0.4-0.2c-0.1-0.2-0.1-0.5,0.2-0.7l76.3-44.1c0.2-0.1,0.5-0.1,0.7,0.2
				c0.1,0.2,0.1,0.5-0.2,0.7l-76.3,44.1C30.1,221.5,30,221.5,29.9,221.5z"/>
			<path class="st7" d="M29.9,226.2c-0.2,0-0.3-0.1-0.4-0.2c-0.1-0.2-0.1-0.5,0.2-0.7l76.3-44.1c0.2-0.1,0.5-0.1,0.7,0.2
				c0.1,0.2,0.1,0.5-0.2,0.7l-76.3,44.1C30.1,226.1,30,226.2,29.9,226.2z"/>
			<path class="st7" d="M29.9,230.8c-0.2,0-0.3-0.1-0.4-0.2c-0.1-0.2-0.1-0.5,0.2-0.7l76.3-44.1c0.2-0.1,0.5-0.1,0.7,0.2
				c0.1,0.2,0.1,0.5-0.2,0.7l-76.3,44.1C30.1,230.8,30,230.8,29.9,230.8z"/>
			<path class="st7" d="M29.9,235.5c-0.2,0-0.3-0.1-0.4-0.2c-0.1-0.2-0.1-0.5,0.2-0.7l76.3-44.1c0.2-0.1,0.5-0.1,0.7,0.2
				c0.1,0.2,0.1,0.5-0.2,0.7l-76.3,44.1C30.1,235.4,30,235.5,29.9,235.5z"/>
		</g>
	</g>
	<g>
		<g>
			<path class="st7" d="M114,167.7c-0.2,0-0.3-0.1-0.4-0.3c-0.1-0.2-0.1-0.6,0.2-0.7l78-45.1c0.2-0.1,0.6-0.1,0.7,0.2
				c0.1,0.2,0.1,0.6-0.2,0.7l-78,45.1C114.2,167.7,114.1,167.7,114,167.7z"/>
			<path class="st7" d="M114,172.5c-0.2,0-0.3-0.1-0.4-0.3c-0.1-0.2-0.1-0.6,0.2-0.7l78-45.1c0.2-0.1,0.6-0.1,0.7,0.2
				c0.1,0.2,0.1,0.6-0.2,0.7l-78,45.1C114.2,172.4,114.1,172.5,114,172.5z"/>
			<path class="st7" d="M114,177.2c-0.2,0-0.3-0.1-0.4-0.3c-0.1-0.2-0.1-0.6,0.2-0.7l78-45.1c0.2-0.1,0.6-0.1,0.7,0.2
				c0.1,0.2,0.1,0.6-0.2,0.7l-78,45.1C114.2,177.2,114.1,177.2,114,177.2z"/>
			<path class="st7" d="M114,182c-0.2,0-0.3-0.1-0.4-0.3c-0.1-0.2-0.1-0.6,0.2-0.7l78-45.1c0.2-0.1,0.6-0.1,0.7,0.2
				c0.1,0.2,0.1,0.6-0.2,0.7l-78,45.1C114.2,181.9,114.1,182,114,182z"/>
			<path class="st7" d="M114,186.7c-0.2,0-0.3-0.1-0.4-0.3c-0.1-0.2-0.1-0.6,0.2-0.7l78-45.1c0.2-0.1,0.6-0.1,0.7,0.2
				c0.1,0.2,0.1,0.6-0.2,0.7l-78,45.1C114.2,186.7,114.1,186.7,114,186.7z"/>
		</g>
	</g>
	<g id="Flowchart_Window_1_">
		<g id="Window_3_">
			<path class="st5" d="M381.9,1.8c-0.3,0-0.7,0.1-1.1,0.3L220.2,94.8c-1.4,0.8-2.5,2.7-2.5,4.3v4c0.1,0.4,0.1,0.8,0.1,1.3v117.1
				c0.3,0.2,0.6,0.3,0.8,0.5c0,0,0-0.1-0.1-0.1c0.2,0.2,0.5,0.3,0.8,0.3c0.3,0,0.5-0.1,0.8-0.2l160.5-92.8c1.4-0.8,2.5-2.7,2.5-4.3
				V3.6C383.2,2.4,382.7,1.8,381.9,1.8z"/>
			<g id="Code_2_">
				<g>
					<path id="XMLID_286_" class="st13" d="M228.5,112.5l57.3-33.2c0.6-0.3,1.1-0.1,1.1,0.5c0,0.7-0.5,1.5-1.1,1.8l-57.3,33.2
						c-0.6,0.3-1.1,0.1-1.1-0.5C227.4,113.7,227.9,112.9,228.5,112.5z"/>
					<path id="XMLID_285_" class="st13" d="M270.2,148.4l57.3-33.2c0.6-0.3,1.1-0.1,1.1,0.5c0,0.7-0.5,1.5-1.1,1.8l-57.3,33.2
						c-0.6,0.3-1.1,0.1-1.1-0.5C269.1,149.5,269.6,148.7,270.2,148.4z"/>
					<path id="XMLID_284_" class="st13" d="M237.8,144l135.4-78.6c0.6-0.3,1.1-0.1,1.1,0.5c0,0.7-0.5,1.5-1.1,1.8l-135.4,78.6
						c-0.6,0.3-1.1,0.1-1.1-0.5C236.7,145.1,237.2,144.3,237.8,144z"/>
					<path id="XMLID_283_" class="st13" d="M289.9,76.8l83.9-48.4c0.6-0.3,1.1-0.1,1.1,0.5c0,0.7-0.5,1.5-1.1,1.8l-83.9,48.4
						c-0.6,0.3-1.1,0.1-1.1-0.5C288.9,78,289.3,77.2,289.9,76.8z"/>
					<g id="XMLID_278_">
						<path id="XMLID_282_" class="st13" d="M228.5,119.3l36.1-21c0.6-0.3,1.1-0.1,1.1,0.5c0,0.7-0.5,1.5-1.1,1.8l-36.1,21
							c-0.6,0.3-1.1,0.1-1.1-0.5C227.4,120.4,227.9,119.6,228.5,119.3z"/>
						<path id="XMLID_279_" class="st15" d="M228.5,119.3l36.1-21c0.6-0.3,1.1-0.1,1.1,0.5c0,0.7-0.5,1.5-1.1,1.8l-36.1,21
							c-0.6,0.3-1.1,0.1-1.1-0.5C227.4,120.4,227.9,119.6,228.5,119.3z"/>
					</g>
					<g id="XMLID_275_">
						<path id="XMLID_277_" class="st13" d="M294.4,102.8l36.1-21c0.6-0.3,1.1-0.1,1.1,0.5c0,0.7-0.5,1.5-1.1,1.8l-36.1,21
							c-0.6,0.3-1.1,0.1-1.1-0.5C293.3,103.9,293.8,103.1,294.4,102.8z"/>
						<path id="XMLID_276_" class="st15" d="M294.4,102.8l36.1-21c0.6-0.3,1.1-0.1,1.1,0.5c0,0.7-0.5,1.5-1.1,1.8l-36.1,21
							c-0.6,0.3-1.1,0.1-1.1-0.5C293.3,103.9,293.8,103.1,294.4,102.8z"/>
					</g>
					<g id="XMLID_272_">
						<path id="XMLID_274_" class="st13" d="M228.5,172.6l36.1-21c0.6-0.3,1.1-0.1,1.1,0.5c0,0.7-0.5,1.5-1.1,1.8l-36.1,21
							c-0.6,0.3-1.1,0.1-1.1-0.5C227.4,173.7,227.9,172.9,228.5,172.6z"/>
						<path id="XMLID_273_" class="st15" d="M228.5,172.6l36.1-21c0.6-0.3,1.1-0.1,1.1,0.5c0,0.7-0.5,1.5-1.1,1.8l-36.1,21
							c-0.6,0.3-1.1,0.1-1.1-0.5C227.4,173.7,227.9,172.9,228.5,172.6z"/>
					</g>
					<g id="XMLID_269_">
						<path id="XMLID_271_" class="st13" d="M228.5,126l12.6-7.3c0.6-0.3,1.1-0.1,1.1,0.5c0,0.7-0.5,1.5-1.1,1.8l-12.6,7.3
							c-0.6,0.3-1.1,0.1-1.1-0.5C227.4,127.2,227.9,126.3,228.5,126z"/>
						<path id="XMLID_270_" class="st15" d="M228.5,126l12.6-7.3c0.6-0.3,1.1-0.1,1.1,0.5c0,0.7-0.5,1.5-1.1,1.8l-12.6,7.3
							c-0.6,0.3-1.1,0.1-1.1-0.5C227.4,127.2,227.9,126.3,228.5,126z"/>
					</g>
					<g id="XMLID_266_">
						<path id="XMLID_268_" class="st13" d="M268.8,95.8l12.9-7.4c0.6-0.3,1.1-0.1,1.1,0.5s-0.5,1.5-1.1,1.8l-12.9,7.4
							c-0.6,0.3-1.1,0.1-1.1-0.5C267.7,97,268.2,96.2,268.8,95.8z"/>
						<path id="XMLID_267_" class="st15" d="M268.8,95.8l12.9-7.4c0.6-0.3,1.1-0.1,1.1,0.5s-0.5,1.5-1.1,1.8l-12.9,7.4
							c-0.6,0.3-1.1,0.1-1.1-0.5C267.7,97,268.2,96.2,268.8,95.8z"/>
					</g>
					<g id="XMLID_259_">
						<path id="XMLID_265_" class="st13" d="M334.7,79.3l12.9-7.4c0.6-0.3,1.1-0.1,1.1,0.5c0,0.7-0.5,1.5-1.1,1.8l-12.9,7.4
							c-0.6,0.3-1.1,0.1-1.1-0.5C333.6,80.5,334.1,79.7,334.7,79.3z"/>
						<path id="XMLID_260_" class="st15" d="M334.7,79.3l12.9-7.4c0.6-0.3,1.1-0.1,1.1,0.5c0,0.7-0.5,1.5-1.1,1.8l-12.9,7.4
							c-0.6,0.3-1.1,0.1-1.1-0.5C333.6,80.5,334.1,79.7,334.7,79.3z"/>
					</g>
					<g id="XMLID_257_">
						<path id="XMLID_258_" class="st0" d="M294.1,119.4l79.7-46c0.6-0.3,1.1-0.1,1.1,0.5c0,0.7-0.5,1.5-1.1,1.8l-79.7,46
							c-0.6,0.3-1.1,0.1-1.1-0.5C293,120.5,293.5,119.7,294.1,119.4z"/>
					</g>
					<g id="XMLID_255_">
						<path id="XMLID_256_" class="st0" d="M228.8,157.5l61.1-35.7c0.6-0.3,1.1-0.1,1.1,0.5c0,0.7-0.5,1.5-1.1,1.8l-61.1,35.7
							c-0.6,0.3-1.1,0.1-1.1-0.5C227.7,158.7,228.2,157.9,228.8,157.5z"/>
					</g>
					<g id="XMLID_253_">
						<path id="XMLID_254_" class="st0" d="M228.8,141l61.1-35.7c0.6-0.3,1.1-0.1,1.1,0.5c0,0.7-0.5,1.5-1.1,1.8l-61.1,35.7
							c-0.6,0.3-1.1,0.1-1.1-0.5C227.7,142.2,228.2,141.4,228.8,141z"/>
					</g>
					<g id="XMLID_251_">
						<path id="XMLID_252_" class="st6" d="M246.3,115.7l100.8-58.4c0.6-0.3,1.1-0.1,1.1,0.5c0,0.7-0.5,1.5-1.1,1.8L246.3,118
							c-0.6,0.3-1.1,0.1-1.1-0.5C245.2,116.8,245.7,116,246.3,115.7z"/>
					</g>
					<g id="XMLID_248_">
						<path id="XMLID_250_" class="st13" d="M228.5,165.7l12.6-7.3c0.6-0.3,1.1-0.1,1.1,0.5c0,0.7-0.5,1.5-1.1,1.8l-12.6,7.3
							c-0.6,0.3-1.1,0.1-1.1-0.5C227.4,166.9,227.9,166.1,228.5,165.7z"/>
						<path id="XMLID_249_" class="st15" d="M228.5,165.7l12.6-7.3c0.6-0.3,1.1-0.1,1.1,0.5c0,0.7-0.5,1.5-1.1,1.8l-12.6,7.3
							c-0.6,0.3-1.1,0.1-1.1-0.5C227.4,166.9,227.9,166.1,228.5,165.7z"/>
					</g>
					<g id="XMLID_246_">
						<path id="XMLID_247_" class="st6" d="M246.3,155.4L347.1,97c0.6-0.3,1.1-0.1,1.1,0.5c0,0.7-0.5,1.5-1.1,1.8l-100.8,58.4
							c-0.6,0.3-1.1,0.1-1.1-0.5C245.2,156.6,245.7,155.7,246.3,155.4z"/>
					</g>
					<g id="XMLID_244_">
						<path id="XMLID_245_" class="st6" d="M351.9,54.5l21.3-12c0.6-0.3,1.1-0.1,1.1,0.5c0,0.7-0.5,1.5-1.1,1.8l-21.3,12
							c-0.6,0.3-1.1,0.1-1.1-0.5C350.8,55.7,351.3,54.9,351.9,54.5z"/>
					</g>
					<g id="XMLID_241_">
						<path id="XMLID_243_" class="st13" d="M233.4,130.6l47.4-27.8c0.6-0.3,1.1-0.1,1.1,0.5c0,0.7-0.5,1.5-1.1,1.8l-47.4,27.8
							c-0.6,0.3-1.1,0.1-1.1-0.5C232.4,131.7,232.8,130.9,233.4,130.6z"/>
						<path id="XMLID_242_" class="st15" d="M233.4,130.6l47.4-27.8c0.6-0.3,1.1-0.1,1.1,0.5c0,0.7-0.5,1.5-1.1,1.8l-47.4,27.8
							c-0.6,0.3-1.1,0.1-1.1-0.5C232.4,131.7,232.8,130.9,233.4,130.6z"/>
					</g>
					<g id="XMLID_238_">
						<path id="XMLID_240_" class="st13" d="M285.1,100.4l88.1-50.6c0.6-0.3,1.1-0.1,1.1,0.5c0,0.7-0.5,1.5-1.1,1.8l-88.1,50.6
							c-0.6,0.3-1.1,0.1-1.1-0.5C284,101.5,284.5,100.7,285.1,100.4z"/>
						<path id="XMLID_239_" class="st15" d="M285.1,100.4l88.1-50.6c0.6-0.3,1.1-0.1,1.1,0.5c0,0.7-0.5,1.5-1.1,1.8l-88.1,50.6
							c-0.6,0.3-1.1,0.1-1.1-0.5C284,101.5,284.5,100.7,285.1,100.4z"/>
					</g>
					<path id="XMLID_237_" class="st6" d="M235.8,174.7l138.1-80c0.6-0.3,1.1-0.1,1.1,0.5c0,0.7-0.5,1.5-1.1,1.8l-138.1,80
						c-0.6,0.3-1.1,0.1-1.1-0.5S235.2,175.1,235.8,174.7z"/>
					<path id="XMLID_236_" class="st6" d="M235.8,181.5l138.1-80c0.6-0.3,1.1-0.1,1.1,0.5s-0.5,1.5-1.1,1.8l-138.1,80
						c-0.6,0.3-1.1,0.1-1.1-0.5C234.7,182.6,235.2,181.8,235.8,181.5z"/>
					<path id="XMLID_235_" class="st13" d="M245.2,183.9l44.4-25.8c0.6-0.3,1.1-0.1,1.1,0.5c0,0.7-0.5,1.5-1.1,1.8l-44.4,25.8
						c-0.6,0.3-1.1,0.1-1.1-0.5C244.1,185,244.6,184.2,245.2,183.9z"/>
					<path id="XMLID_234_" class="st13" d="M293.8,155.6l80-46.1c0.6-0.3,1.1-0.1,1.1,0.5c0,0.7-0.5,1.5-1.1,1.8l-80,46.1
						c-0.6,0.3-1.1,0.1-1.1-0.5C292.7,156.7,293.2,155.9,293.8,155.6z"/>
					<g id="XMLID_231_">
						<path id="XMLID_233_" class="st13" d="M229.4,192.9l10.1-5.8c0.6-0.3,1.1-0.1,1.1,0.5c0,0.7-0.5,1.5-1.1,1.8l-10.1,5.8
							c-0.6,0.3-1.1,0.1-1.1-0.5C228.4,194.1,228.8,193.3,229.4,192.9z"/>
						<path id="XMLID_232_" class="st15" d="M229.4,192.9l10.1-5.8c0.6-0.3,1.1-0.1,1.1,0.5c0,0.7-0.5,1.5-1.1,1.8l-10.1,5.8
							c-0.6,0.3-1.1,0.1-1.1-0.5C228.4,194.1,228.8,193.3,229.4,192.9z"/>
					</g>
					<g id="XMLID_228_">
						<path id="XMLID_230_" class="st13" d="M229.4,200l10.1-5.8c0.6-0.3,1.1-0.1,1.1,0.5c0,0.7-0.5,1.5-1.1,1.8l-10.1,5.8
							c-0.6,0.3-1.1,0.1-1.1-0.5S228.8,200.3,229.4,200z"/>
						<path id="XMLID_229_" class="st15" d="M229.4,200l10.1-5.8c0.6-0.3,1.1-0.1,1.1,0.5c0,0.7-0.5,1.5-1.1,1.8l-10.1,5.8
							c-0.6,0.3-1.1,0.1-1.1-0.5S228.8,200.3,229.4,200z"/>
					</g>
					<g id="XMLID_226_">
						<path id="XMLID_227_" class="st0" d="M245.2,190.6l128.6-74.2c0.6-0.3,1.1-0.1,1.1,0.5c0,0.7-0.5,1.5-1.1,1.8L245.2,193
							c-0.6,0.3-1.1,0.1-1.1-0.5C244.2,191.8,244.6,191,245.2,190.6z"/>
					</g>
				</g>
			</g>
		</g>
	</g>
	<path class="st16" d="M217.9,134.6l-0.2-27.3l-3.2-1.9V218c0,1,0.4,1.8,1,2.2c0.2,0.1,1.4,0.8,2.3,1.3V134.6z"/>
	<path class="st17" d="M383.2,3.1C383.2,3.1,383.2,3.1,383.2,3.1c0-0.1,0-0.2-0.1-0.4c0-0.1-0.1-0.2-0.1-0.3c0-0.1-0.1-0.2-0.2-0.2
		c-0.1-0.1-0.1-0.1-0.2-0.2c-0.1-0.1-0.1-0.1-0.2-0.1c-0.4-0.2-2.6-1.5-3.1-1.7c-0.1,0-0.1-0.1-0.2-0.1c-0.3-0.1-0.6-0.1-0.9,0
		c-0.2,0.1-0.4,0.1-0.7,0.3L217,93c-0.7,0.4-1.3,1-1.7,1.8c-0.5,0.8-0.8,1.7-0.8,2.5v8.2l3.2,1.8l165.5-95.6V3.5
		C383.2,3.4,383.2,3.3,383.2,3.1z"/>
	<g id="Text_Box_6_">
		<g id="_x7B__x7D__6_">
			<g id="Speech_Bubble_11_">
				<g id="Speach_Bubble_9_">
					<g id="XMLID_224_">
						<path id="XMLID_225_" class="st16" d="M264.4,51.2l-24.1,13.9c-0.3,0.2-0.6,0.7-0.6,1v17.1c0,0.4,0.3,0.9,0.6,1.1l2.4-3.5
							c0.3,0.2,0.9,0.2,1.2,0L268,66.9c0.3-0.2,0.6-0.7,0.6-1V53.6c0-0.4-0.3-0.8-0.6-1l-2.4-1.4C265.3,51,264.8,51,264.4,51.2z"/>
					</g>
				</g>
			</g>
		</g>
	</g>
	<path id="XMLID_217_" class="st16" d="M233.7,68.3l-16.1,9.3c-0.3,0.2-0.6,0.7-0.6,1v16.6c0,0.4,0.3-1.3,0.6-1.1l2.4-0.8
		c0.3,0.2,0.9,0.2,1.2,0l16.1-9.3c0.3-0.2,0.6-0.7,0.6-1V70.7c0-0.4-0.3-0.8-0.6-1l-2.4-1.4C234.6,68.1,234,68.1,233.7,68.3z"/>
	<g>
		<path class="st12" d="M237.3,70.4l-16.1,9.3c-0.3,0.2-0.6,0.7-0.6,1V93c0,0.4,0.3,0.5,0.6,0.3l16.1-9.3c0.3-0.2,0.6-0.7,0.6-1
			V70.7C237.9,70.3,237.6,70.2,237.3,70.4z"/>
	</g>
	<path id="XMLID_211_" class="st16" d="M294.4,33.3l-24.1,13.9c-0.3,0.2-0.6,0.7-0.6,1v15.2c0,0.4,0.3-0.2,0.6,0l2.4-0.5
		c0.3,0.2,0.9,0.2,1.2,0L298,49c0.3-0.2,0.6-0.7,0.6-1V35.7c0-0.4-0.3-0.8-0.6-1l-2.4-1.4C295.3,33.2,294.8,33.2,294.4,33.3z"/>
	<g>
		<path class="st12" d="M298,35.4l-24.1,13.9c-0.3,0.2-0.6,0.7-0.6,1v12.3c0,0.4,0.3,0.5,0.6,0.3L298,49c0.3-0.2,0.6-0.7,0.6-1V35.7
			C298.6,35.3,298.3,35.2,298,35.4z"/>
	</g>
	
		<linearGradient id="SVGID_00000058554194138235888370000009819679586833901235_" gradientUnits="userSpaceOnUse" x1="427.9412" y1="177.8219" x2="230.3921" y2="-12.5922">
		<stop  offset="0.2283" style="stop-color:#E3AC0C"/>
		<stop  offset="0.4665" style="stop-color:#FBE7BD"/>
		<stop  offset="0.5249" style="stop-color:#F9D995"/>
		<stop  offset="0.6892" style="stop-color:#FFBF3F"/>
		<stop  offset="0.9637" style="stop-color:#E3AC0C"/>
	</linearGradient>
	<path style="fill:url(#SVGID_00000058554194138235888370000009819679586833901235_);" d="M383.2,3.1C383.2,3.1,383.2,3.1,383.2,3.1
		c0-0.1,0-0.2-0.1-0.4c0-0.1-0.1-0.2-0.1-0.3c0-0.1-0.1-0.2-0.2-0.2c-0.1-0.1-0.1-0.1-0.2-0.2c-0.5-0.4-1.1-0.4-1.9,0.1L268.6,66.9
		V53.6c0-0.4-0.3-0.5-0.6-0.3l-24.1,13.9c-0.3,0.2-0.6,0.7-0.6,1v13.3l-23.1,13.4c-0.7,0.4-1.3,1.1-1.7,1.8
		c-0.1,0.2-0.2,0.4-0.3,0.7c0,0.1-0.1,0.2-0.1,0.3c-0.2,0.5-0.3,1-0.3,1.5v8.2l165.5-95.6V3.5C383.2,3.4,383.2,3.3,383.2,3.1z"/>
	<g>
		<g>
			<g class="st19">
				<defs>
					<polygon id="SVGID_00000171700312582630599240000002857564668075405746_" class="st19" points="280.5,56.3 280.6,48.1 
						293.3,40.5 293.3,48.7 					"/>
				</defs>
				<clipPath id="SVGID_00000049935299970500907040000016780932550667559827_">
					<use xlink:href="#SVGID_00000171700312582630599240000002857564668075405746_"  style="overflow:visible;"/>
				</clipPath>
				<g style="clip-path:url(#SVGID_00000049935299970500907040000016780932550667559827_);">
					<g>
						<g>
							<g>
								<polyline class="st0" points="283.2,46.6 282.5,47 282.5,50.3 281.3,51.1 281.3,47.7 280.6,48.1 280.5,56.3 281.2,55.9 
									281.3,52.5 282.5,51.7 282.5,55.2 283.2,54.8 283.2,46.6 								"/>
								<polyline class="st0" points="286.3,44.7 283.7,46.2 283.7,47.6 284.7,47.1 284.7,53.9 285.4,53.4 285.4,46.7 286.3,46.1 
									286.3,44.7 								"/>
								<polyline class="st0" points="290.1,42.4 289.4,42.8 288.5,47.8 287.6,43.9 286.9,44.3 286.9,52.5 287.6,52.1 287.6,47.3 
									288.3,50 288.7,49.7 289.4,46.2 289.4,51 290.1,50.6 290.1,42.4 								"/>
								<polyline class="st0" points="291.7,41.5 291,41.9 291,50.1 293.3,48.7 293.3,47.3 291.7,48.2 291.7,41.5 								"/>
							</g>
						</g>
					</g>
				</g>
			</g>
		</g>
	</g>
	<g>
		<g>
			<g class="st19">
				<defs>
					<polygon id="SVGID_00000042719663323478646430000006322696928329399987_" class="st19" points="250,74.8 250.1,66.5 
						261.8,59.5 261.8,67.8 					"/>
				</defs>
				<clipPath id="SVGID_00000037662399341273595570000008807450554273577402_">
					<use xlink:href="#SVGID_00000042719663323478646430000006322696928329399987_"  style="overflow:visible;"/>
				</clipPath>
				<g style="clip-path:url(#SVGID_00000037662399341273595570000008807450554273577402_);">
					<g>
						<g>
							<g>
								<path class="st0" d="M251.4,65.6c-0.8,0.5-1.2,1.8-1.3,3.2c0,0.7,0.1,1.2,0.3,1.5c0.2,0.3,0.4,0.3,0.7,0.3l0.4-0.1
									c0.2,0,0.2,0,0.3,0.1c0.1,0.1,0.1,0.3,0.1,0.6c0,0.7-0.2,1.1-0.6,1.4c-0.3,0.2-0.6,0.2-0.9-0.2l-0.5,1.3
									c0.3,0.6,0.8,0.6,1.3,0.3c0.8-0.5,1.3-1.7,1.3-3.3c0-0.7-0.1-1.3-0.3-1.6c-0.2-0.2-0.4-0.3-0.7-0.2l-0.4,0.1
									c-0.1,0-0.3,0-0.3-0.1c-0.1-0.1-0.1-0.3-0.1-0.5c0-0.6,0.2-1.1,0.6-1.4c0.2-0.1,0.5-0.2,0.7,0.1l0.4-1.3
									C252.3,65.4,251.9,65.3,251.4,65.6"/>
								<path class="st0" d="M254.6,63.8c-0.4,0.2-0.7,0.7-1,1.5c-0.2,0.5-0.3,0.9-0.3,1.4c0,0.5-0.1,1.2-0.1,2.1c0,0.9,0,1.6,0.1,2
									c0,0.4,0.1,0.8,0.3,1.1c0.3,0.4,0.6,0.5,1,0.3c0.7-0.4,1.2-1.6,1.3-3.4l-0.7,0.4c-0.1,0.8-0.3,1.3-0.6,1.5
									c-0.2,0.1-0.3,0.1-0.4-0.2c-0.1-0.3-0.2-0.6-0.2-2.2c0-1.6,0-2,0.2-2.4c0.1-0.4,0.3-0.6,0.4-0.7c0.3-0.2,0.5,0.1,0.6,0.8
									l0.7-0.4C255.8,64,255.2,63.4,254.6,63.8"/>
								<path class="st0" d="M257.5,62c-0.8,0.5-1.2,1.8-1.3,3.2c0,0.7,0.1,1.2,0.2,1.5c0.2,0.3,0.4,0.3,0.7,0.3l0.4-0.1
									c0.2,0,0.2,0,0.3,0.1c0.1,0.1,0.1,0.3,0.1,0.6c0,0.7-0.2,1.1-0.6,1.4c-0.3,0.2-0.6,0.2-0.9-0.2l-0.5,1.3
									c0.4,0.6,0.8,0.6,1.3,0.3c0.7-0.4,1.3-1.7,1.3-3.3c0-0.7-0.1-1.3-0.3-1.6c-0.2-0.2-0.4-0.3-0.7-0.2l-0.4,0.1
									c-0.1,0-0.3,0-0.3-0.1c-0.1-0.1-0.1-0.3-0.1-0.5c0-0.6,0.2-1.1,0.6-1.4c0.2-0.1,0.5-0.2,0.7,0.1l0.4-1.3
									C258.4,61.8,258,61.7,257.5,62"/>
								<path class="st0" d="M260.5,60.2c-0.8,0.5-1.3,1.8-1.3,3.2c0,0.7,0.1,1.2,0.3,1.5c0.2,0.3,0.4,0.3,0.7,0.3l0.4-0.1
									c0.2,0,0.2,0,0.3,0.1c0.1,0.1,0.1,0.3,0.1,0.6c0,0.7-0.2,1.1-0.6,1.4c-0.3,0.2-0.6,0.2-0.9-0.2l-0.5,1.3
									c0.3,0.6,0.8,0.6,1.3,0.3c0.7-0.4,1.3-1.7,1.3-3.3c0-0.7-0.1-1.3-0.3-1.6c-0.2-0.2-0.4-0.3-0.7-0.2l-0.4,0.1
									c-0.1,0-0.3,0-0.3-0.1c-0.1-0.1-0.1-0.3-0.1-0.5c0-0.6,0.2-1.1,0.6-1.4c0.2-0.1,0.5-0.2,0.7,0.1l0.4-1.3
									C261.4,60,261,59.9,260.5,60.2"/>
							</g>
						</g>
					</g>
				</g>
			</g>
		</g>
	</g>
	<g>
		<g>
			<g class="st19">
				<defs>
					<polygon id="SVGID_00000182523541054540372170000016219944082814791041_" class="st19" points="227.1,87.4 227.1,79.1 
						232.4,75.9 232.4,84.3 					"/>
				</defs>
				<clipPath id="SVGID_00000033335246018490625280000007321706474492128161_">
					<use xlink:href="#SVGID_00000182523541054540372170000016219944082814791041_"  style="overflow:visible;"/>
				</clipPath>
				<g style="clip-path:url(#SVGID_00000033335246018490625280000007321706474492128161_);">
					<g>
						<g>
							<g>
								<path class="st0" d="M229.3,77.8l-0.7,0.4l0,5.4c0,0.9-0.2,1.5-0.6,1.7c-0.2,0.1-0.3,0-0.5-0.2l-0.5,1.3
									c0.3,0.4,0.5,0.5,0.9,0.3c0.7-0.4,1.3-1.7,1.3-3.5L229.3,77.8"/>
								<path class="st0" d="M231.2,76.7c-0.8,0.5-1.2,1.8-1.3,3.2c0,0.7,0.1,1.2,0.3,1.5c0.2,0.3,0.4,0.3,0.7,0.3l0.4-0.1
									c0.2,0,0.2,0,0.3,0.1c0.1,0.1,0.1,0.3,0.1,0.6c0,0.7-0.2,1.2-0.6,1.4c-0.3,0.2-0.6,0.2-0.9-0.2l-0.5,1.3
									c0.3,0.6,0.8,0.6,1.3,0.3c0.8-0.5,1.3-1.7,1.3-3.3c0-0.7-0.1-1.3-0.3-1.6c-0.2-0.2-0.4-0.3-0.7-0.2l-0.4,0.1
									c-0.1,0-0.3,0-0.3-0.1c-0.1-0.1-0.1-0.3-0.1-0.5c0-0.6,0.2-1.1,0.6-1.4c0.2-0.1,0.5-0.2,0.7,0.1l0.4-1.3
									C232,76.4,231.7,76.4,231.2,76.7"/>
							</g>
						</g>
					</g>
				</g>
			</g>
		</g>
	</g>
</g>
</svg>
