<?xml version="1.0" encoding="utf-8"?>
<!-- Generator: Adobe Illustrator 25.4.1, SVG Export Plug-In . SVG Version: 6.00 Build 0)  -->
<svg version="1.1" id="Laag_1" xmlns="http://www.w3.org/2000/svg" xmlns:xlink="http://www.w3.org/1999/xlink" x="0px" y="0px"
	 viewBox="0 0 397.4 408.2" style="enable-background:new 0 0 397.4 408.2;" xml:space="preserve">
<style type="text/css">
	.st0{fill:none;}
	.st1{fill:#2A2E33;}
	.st2{fill:url(#SVGID_1_);}
	.st3{fill:url(#SVGID_00000016046599885242283650000001738596493079070594_);}
	.st4{fill:url(#SVGID_00000128486478790112068960000005077694204936785798_);}
	.st5{fill:url(#SVGID_00000021801123013891251860000004649769488040817568_);}
	.st6{fill:url(#SVGID_00000170975455499616885270000016783377601829254302_);}
	.st7{fill:url(#SVGID_00000058560117380132683500000006668173117515472804_);}
	.st8{fill:url(#SVGID_00000041260072734128522140000008731503693044691615_);}
	.st9{fill:url(#SVGID_00000153681419141962528690000003616379127218002874_);}
	.st10{fill:url(#SVGID_00000025407533815319460950000016101209847427675557_);}
	.st11{fill:url(#SVGID_00000086677486853681266220000006303138950630517929_);}
	.st12{fill:url(#SVGID_00000018219090916015163010000009970997690749879733_);}
	.st13{fill:url(#SVGID_00000138542773028758095960000012926918585724896954_);}
	.st14{fill:url(#SVGID_00000016760622822800292060000012123844932111287193_);}
	.st15{fill:url(#SVGID_00000174576706573039935620000006400188287505746338_);}
	.st16{fill:url(#SVGID_00000098935166478207462520000016249729585690193800_);}
	.st17{fill:url(#SVGID_00000182490709440549193450000017250528845523530171_);}
	.st18{fill:url(#SVGID_00000004507400780091374810000001529562481842303918_);}
	.st19{fill:url(#SVGID_00000152247338555213300570000009131097352181639307_);}
	.st20{fill:#64FFDA;}
	.st21{fill:#FFBF3F;}
	.st22{fill:#43AC9C;}
	.st23{fill:#808283;}
	.st24{fill:#E3AC0C;}
	.st25{fill:#FFCA60;}
	.st26{fill:#263238;}
	.st27{opacity:0.93;fill:#504F4E;}
	.st28{fill:#5E676C;}
	.st29{fill:#535E6D;}
	.st30{fill:#F0F0F0;}
	.st31{fill:#FFFFFF;}
	.st32{fill:#E0E0E0;}
	.st33{fill:#4E5256;}
	.st34{fill:#3E4245;}
	.st35{fill:#E6E6E6;}
	.st36{fill:#B8B9B9;}
	.st37{fill:#196D51;}
	.st38{fill:#FBFBFB;}
	.st39{fill:#CFD2D3;}
	.st40{fill:#BABBBB;}
	.st41{fill:#A9B0B3;}
	.st42{fill:#6F7B80;}
	.st43{fill:#8CFFE4;}
	.st44{fill:url(#SVGID_00000159448272247337070290000010850385960489416069_);}
	.st45{fill:#C3960B;}
	.st46{fill:#544200;}
	.st47{fill:url(#SVGID_00000036223552977406633160000007752916412506526600_);}
	.st48{fill:#82C4B1;}
	.st49{fill:url(#SVGID_00000080164097659642350860000000330709473673029540_);}
	.st50{fill:url(#SVGID_00000053509926915583391100000001888122154015053500_);}
	.st51{fill:url(#SVGID_00000069382130018391796850000001435414443172711841_);}
	.st52{fill:url(#SVGID_00000054264019320563184330000016169603988990420374_);}
	.st53{fill:url(#SVGID_00000115507332136910213960000016427556842782555817_);}
	.st54{fill:url(#SVGID_00000134930483410874136940000007081263985958132150_);}
	.st55{fill:url(#SVGID_00000104678571321812549210000003647083242041591457_);}
	.st56{fill:url(#SVGID_00000116924932397869951540000000321726078491565232_);}
	.st57{fill:url(#SVGID_00000062173872243018123900000001706959272763224974_);}
	.st58{fill:#FAFAFA;}
</style>
<g>
	<polygon class="st0" points="270.6,261.8 270.6,401.9 380.7,338 380.7,198.9 	"/>
	<path class="st1" d="M127.9,296.5v53.6c0,1.4,0.7,2.7,1.9,3.4l9.1,5.2c2.7,1.5,6-0.4,6-3.5v-58.7H127.9z"/>
	
		<linearGradient id="SVGID_1_" gradientUnits="userSpaceOnUse" x1="11460.0811" y1="81.0653" x2="11538.7354" y2="398.3298" gradientTransform="matrix(-1 0 0 1 11789.624 0)">
		<stop  offset="0.164" style="stop-color:#FFFFFF"/>
		<stop  offset="0.3721" style="stop-color:#D6D6D6"/>
		<stop  offset="0.7294" style="stop-color:#BDBCBC"/>
		<stop  offset="1" style="stop-color:#FFFFFF"/>
	</linearGradient>
	<path class="st2" d="M267.3,263.7c-0.9,0.5-2.1,0.8-3.3,0.7l0,141.4l4.8-2.8c1.2-0.7,1.9-2,1.9-3.3V261.8L267.3,263.7z"/>
	
		<linearGradient id="SVGID_00000165236976022483584540000002549198553081609908_" gradientUnits="userSpaceOnUse" x1="11466.6318" y1="81.8575" x2="11544.3281" y2="395.2537" gradientTransform="matrix(-1 0 0 1 11789.624 0)">
		<stop  offset="0.1611" style="stop-color:#00865F"/>
		<stop  offset="0.3603" style="stop-color:#9FD1C3"/>
		<stop  offset="0.4665" style="stop-color:#DEEFEA"/>
		<stop  offset="0.5249" style="stop-color:#C7E4DC"/>
		<stop  offset="0.7179" style="stop-color:#01835D"/>
		<stop  offset="1" style="stop-color:#11543E"/>
	</linearGradient>
	<path style="fill:url(#SVGID_00000165236976022483584540000002549198553081609908_);" d="M263.9,264.4c-0.9-0.1-1.8-0.3-2.5-0.7
		l-4.1-2.4v145c0,1.5,1.6,2.4,2.8,1.6l3.8-2.2L263.9,264.4z"/>
	
		<linearGradient id="SVGID_00000060022990198861854670000005879436511889769346_" gradientUnits="userSpaceOnUse" x1="260.5935" y1="153.8307" x2="260.5935" y2="792.3849">
		<stop  offset="0.164" style="stop-color:#FFFFFF"/>
		<stop  offset="0.3721" style="stop-color:#D6D6D6"/>
		<stop  offset="0.7294" style="stop-color:#BDBCBC"/>
		<stop  offset="1" style="stop-color:#FFFFFF"/>
	</linearGradient>
	<path style="fill:url(#SVGID_00000060022990198861854670000005879436511889769346_);" d="M263.9,264.4c-0.9-0.1-1.8-0.3-2.5-0.7
		l-4.1-2.4v145c0,1.5,1.6,2.4,2.9,1.7l3.8-2.2L263.9,264.4z"/>
	
		<linearGradient id="SVGID_00000004542347079236910340000015094042977527341723_" gradientUnits="userSpaceOnUse" x1="11656.3516" y1="-117.9328" x2="11807.7617" y2="285.1974" gradientTransform="matrix(-1 0 0 1 11789.624 0)">
		<stop  offset="0.164" style="stop-color:#FFFFFF"/>
		<stop  offset="0.3721" style="stop-color:#D6D6D6"/>
		<stop  offset="0.7294" style="stop-color:#BDBCBC"/>
		<stop  offset="1" style="stop-color:#FFFFFF"/>
	</linearGradient>
	<path style="fill:url(#SVGID_00000004542347079236910340000015094042977527341723_);" d="M9.9,118.7l0,165.6l3.2,1.9
		c1.5,0.9,3.5-0.2,3.5-2V122.5L9.9,118.7z"/>
	
		<linearGradient id="SVGID_00000052784740249959917510000016135234617141439648_" gradientUnits="userSpaceOnUse" x1="11662.5059" y1="-121.3696" x2="11814.5186" y2="283.3638" gradientTransform="matrix(-1 0 0 1 11789.624 0)">
		<stop  offset="0.1611" style="stop-color:#00865F"/>
		<stop  offset="0.3603" style="stop-color:#9FD1C3"/>
		<stop  offset="0.4665" style="stop-color:#DEEFEA"/>
		<stop  offset="0.5249" style="stop-color:#C7E4DC"/>
		<stop  offset="0.7179" style="stop-color:#01835D"/>
		<stop  offset="1" style="stop-color:#11543E"/>
	</linearGradient>
	<path style="fill:url(#SVGID_00000052784740249959917510000016135234617141439648_);" d="M9.9,118.7l-6.7-3.8v164.6
		c0,0.6,0.3,1.2,0.9,1.5l5.8,3.3L9.9,118.7z"/>
	
		<linearGradient id="SVGID_00000070804029427588578260000001224328049107742905_" gradientUnits="userSpaceOnUse" x1="6.5914" y1="49.7464" x2="6.5914" y2="619.8123">
		<stop  offset="0.164" style="stop-color:#FFFFFF"/>
		<stop  offset="0.3721" style="stop-color:#D6D6D6"/>
		<stop  offset="0.7294" style="stop-color:#BDBCBC"/>
		<stop  offset="1" style="stop-color:#FFFFFF"/>
	</linearGradient>
	<path style="fill:url(#SVGID_00000070804029427588578260000001224328049107742905_);" d="M9.9,118.7l-6.7-3.8v164.6
		c0,0.6,0.3,1.2,0.9,1.5l5.8,3.4L9.9,118.7z"/>
	
		<linearGradient id="SVGID_00000007389072246134394870000007977507303207706010_" gradientUnits="userSpaceOnUse" x1="11290.4238" y1="76.5046" x2="11423.1133" y2="302.9019" gradientTransform="matrix(-1 0 0 1 11789.624 0)">
		<stop  offset="0.164" style="stop-color:#FFFFFF"/>
		<stop  offset="0.3721" style="stop-color:#D6D6D6"/>
		<stop  offset="0.7294" style="stop-color:#BDBCBC"/>
		<stop  offset="1" style="stop-color:#FFFFFF"/>
	</linearGradient>
	<path style="fill:url(#SVGID_00000007389072246134394870000007977507303207706010_);" d="M387.3,334.2l3.3-1.9
		c2.1-1.2,3.3-3.4,3.3-5.8V191.3l-6.7,3.8L387.3,334.2z"/>
	
		<linearGradient id="SVGID_00000061457401651019972480000000720450350425549453_" gradientUnits="userSpaceOnUse" x1="11295.1309" y1="78.0191" x2="11424.7422" y2="299.1633" gradientTransform="matrix(-1 0 0 1 11789.624 0)">
		<stop  offset="0.1611" style="stop-color:#00865F"/>
		<stop  offset="0.3603" style="stop-color:#9FD1C3"/>
		<stop  offset="0.4665" style="stop-color:#DEEFEA"/>
		<stop  offset="0.5249" style="stop-color:#C7E4DC"/>
		<stop  offset="0.7179" style="stop-color:#01835D"/>
		<stop  offset="1" style="stop-color:#11543E"/>
	</linearGradient>
	<path style="fill:url(#SVGID_00000061457401651019972480000000720450350425549453_);" d="M387.3,195.1l-6.7,3.8v134
		c0,2.3,2.4,3.7,4.4,2.5l2.3-1.3L387.3,195.1z"/>
	
		<linearGradient id="SVGID_00000020361087250628649480000005919258990751085445_" gradientUnits="userSpaceOnUse" x1="11349.5381" y1="254.4963" x2="11592.2031" y2="303.7875" gradientTransform="matrix(-1 0 0 1 11789.624 0)">
		<stop  offset="0.164" style="stop-color:#FFFFFF"/>
		<stop  offset="0.3721" style="stop-color:#D6D6D6"/>
		<stop  offset="0.7294" style="stop-color:#BDBCBC"/>
		<stop  offset="1" style="stop-color:#FFFFFF"/>
	</linearGradient>
	<path style="fill:url(#SVGID_00000020361087250628649480000005919258990751085445_);" d="M387.3,195.1l-6.7,3.8v134.4
		c0,2.1,2.3,3.4,4,2.3l2.6-1.5L387.3,195.1z"/>
	
		<linearGradient id="SVGID_00000047048954134705955300000007700422357574747042_" gradientUnits="userSpaceOnUse" x1="11477.5068" y1="76.7451" x2="11556.1611" y2="394.0096" gradientTransform="matrix(-1 0 0 1 11789.624 0)">
		<stop  offset="0.1611" style="stop-color:#00865F"/>
		<stop  offset="0.3603" style="stop-color:#9FD1C3"/>
		<stop  offset="0.4665" style="stop-color:#DEEFEA"/>
		<stop  offset="0.5249" style="stop-color:#C7E4DC"/>
		<stop  offset="0.7179" style="stop-color:#01835D"/>
		<stop  offset="1" style="stop-color:#11543E"/>
	</linearGradient>
	<path style="fill:url(#SVGID_00000047048954134705955300000007700422357574747042_);" d="M263.2,256.4c0.4,0.6,0.7,1.3,0.7,1.9
		l0,6.1c1.2,0.1,2.4-0.2,3.3-0.7l3.3-1.9v-7.4c0-0.2,0-0.4-0.1-0.6l-3.2,1.9C266.2,256.4,264.6,256.6,263.2,256.4z"/>
	
		<linearGradient id="SVGID_00000116196593788421501310000002133021050640884112_" gradientUnits="userSpaceOnUse" x1="11483.4062" y1="75.2824" x2="11562.0615" y2="392.5468" gradientTransform="matrix(-1 0 0 1 11789.624 0)">
		<stop  offset="0.1611" style="stop-color:#00865F"/>
		<stop  offset="0.3603" style="stop-color:#9FD1C3"/>
		<stop  offset="0.4665" style="stop-color:#DEEFEA"/>
		<stop  offset="0.5249" style="stop-color:#C7E4DC"/>
		<stop  offset="0.7179" style="stop-color:#01835D"/>
		<stop  offset="1" style="stop-color:#11543E"/>
	</linearGradient>
	<path style="fill:url(#SVGID_00000116196593788421501310000002133021050640884112_);" d="M257.3,254.5v6.9l4.1,2.4
		c0.7,0.4,1.6,0.6,2.5,0.7l0-6.1c0-0.6-0.3-1.4-0.7-1.9c-0.7-0.1-1.3-0.3-1.8-0.6l-3.8-2.2C257.4,253.7,257.3,254,257.3,254.5z"/>
	
		<linearGradient id="SVGID_00000003101900979202075960000008887406145628805534_" gradientUnits="userSpaceOnUse" x1="11744.8271" y1="684.4869" x2="11474.4912" y2="151.747" gradientTransform="matrix(-1 0 0 1 11789.624 0)">
		<stop  offset="0.1611" style="stop-color:#00865F"/>
		<stop  offset="0.3603" style="stop-color:#9FD1C3"/>
		<stop  offset="0.4665" style="stop-color:#DEEFEA"/>
		<stop  offset="0.5249" style="stop-color:#C7E4DC"/>
		<stop  offset="0.7179" style="stop-color:#01835D"/>
		<stop  offset="1" style="stop-color:#11543E"/>
	</linearGradient>
	<path style="fill:url(#SVGID_00000003101900979202075960000008887406145628805534_);" d="M257.3,254.5v6.9l4.1,2.4
		c0.7,0.4,1.6,0.6,2.5,0.7l0-6.1c0-0.6-0.3-1.4-0.7-1.9c-0.7-0.1-1.3-0.3-1.8-0.6l-3.8-2.2C257.4,253.7,257.3,254,257.3,254.5z"/>
	
		<linearGradient id="SVGID_00000145752602983066119220000008333509487622254261_" gradientUnits="userSpaceOnUse" x1="11684.3359" y1="-129.5684" x2="11836.3486" y2="275.1649" gradientTransform="matrix(-1 0 0 1 11789.624 0)">
		<stop  offset="0.1611" style="stop-color:#00865F"/>
		<stop  offset="0.3603" style="stop-color:#9FD1C3"/>
		<stop  offset="0.4665" style="stop-color:#DEEFEA"/>
		<stop  offset="0.5249" style="stop-color:#C7E4DC"/>
		<stop  offset="0.7179" style="stop-color:#01835D"/>
		<stop  offset="1" style="stop-color:#11543E"/>
	</linearGradient>
	<path style="fill:url(#SVGID_00000145752602983066119220000008333509487622254261_);" d="M16.6,114.6l-4.1-2.4l-0.9,0.5
		c-0.9,0.5-2.3,0.5-3.2,0c0.9,0.5,1.6,1.8,1.6,2.8v3.2l6.7,3.8V114.6z"/>
	
		<linearGradient id="SVGID_00000056420450751610885780000004803354273362375309_" gradientUnits="userSpaceOnUse" x1="11690.332" y1="-131.8205" x2="11842.3447" y2="272.9128" gradientTransform="matrix(-1 0 0 1 11789.624 0)">
		<stop  offset="0.1611" style="stop-color:#00865F"/>
		<stop  offset="0.3603" style="stop-color:#9FD1C3"/>
		<stop  offset="0.4665" style="stop-color:#DEEFEA"/>
		<stop  offset="0.5249" style="stop-color:#C7E4DC"/>
		<stop  offset="0.7179" style="stop-color:#01835D"/>
		<stop  offset="1" style="stop-color:#11543E"/>
	</linearGradient>
	<path style="fill:url(#SVGID_00000056420450751610885780000004803354273362375309_);" d="M9.9,115.5c0-1-0.7-2.3-1.6-2.8l-3.4-2
		c-0.9-0.5-1.6-0.1-1.6,0.9v3.2l6.7,3.8V115.5z"/>
	
		<linearGradient id="SVGID_00000081648756853719386180000017762417236360744586_" gradientUnits="userSpaceOnUse" x1="12072.0068" y1="666.4731" x2="11747.0098" y2="46.1984" gradientTransform="matrix(-1 0 0 1 11789.624 0)">
		<stop  offset="0.1611" style="stop-color:#00865F"/>
		<stop  offset="0.3603" style="stop-color:#9FD1C3"/>
		<stop  offset="0.4665" style="stop-color:#DEEFEA"/>
		<stop  offset="0.5249" style="stop-color:#C7E4DC"/>
		<stop  offset="0.7179" style="stop-color:#01835D"/>
		<stop  offset="1" style="stop-color:#11543E"/>
	</linearGradient>
	<path style="fill:url(#SVGID_00000081648756853719386180000017762417236360744586_);" d="M9.9,115.5c0-1-0.7-2.3-1.6-2.8l-3.4-2
		c-0.9-0.5-1.6-0.1-1.6,0.9v3.2l6.7,3.8V115.5z"/>
	
		<linearGradient id="SVGID_00000074413692185541194650000001435479085535301810_" gradientUnits="userSpaceOnUse" x1="11321.8955" y1="58.0589" x2="11454.5859" y2="284.4562" gradientTransform="matrix(-1 0 0 1 11789.624 0)">
		<stop  offset="0.1611" style="stop-color:#00865F"/>
		<stop  offset="0.3603" style="stop-color:#9FD1C3"/>
		<stop  offset="0.4665" style="stop-color:#DEEFEA"/>
		<stop  offset="0.5249" style="stop-color:#C7E4DC"/>
		<stop  offset="0.7179" style="stop-color:#01835D"/>
		<stop  offset="1" style="stop-color:#11543E"/>
	</linearGradient>
	<path style="fill:url(#SVGID_00000074413692185541194650000001435479085535301810_);" d="M392.4,188.5l-3.4,2
		c-0.9,0.5-2.3,0.5-3.2,0c0.9,0.5,1.6,1.8,1.6,2.8v1.8l6.7-3.8v-1.8C394,188.4,393.3,188,392.4,188.5z"/>
	
		<linearGradient id="SVGID_00000098218242428195961300000014466485323518351532_" gradientUnits="userSpaceOnUse" x1="11325.4922" y1="55.9511" x2="11458.1826" y2="282.3484" gradientTransform="matrix(-1 0 0 1 11789.624 0)">
		<stop  offset="0.1611" style="stop-color:#00865F"/>
		<stop  offset="0.3603" style="stop-color:#9FD1C3"/>
		<stop  offset="0.4665" style="stop-color:#DEEFEA"/>
		<stop  offset="0.5249" style="stop-color:#C7E4DC"/>
		<stop  offset="0.7179" style="stop-color:#01835D"/>
		<stop  offset="1" style="stop-color:#11543E"/>
	</linearGradient>
	<path style="fill:url(#SVGID_00000098218242428195961300000014466485323518351532_);" d="M387.3,195.1v-1.8c0-1-0.7-2.3-1.6-2.8
		l-2.8-1.6l-2.3,1.3v8.7L387.3,195.1z"/>
	
		<linearGradient id="SVGID_00000088100729921125042990000017207663663561744294_" gradientUnits="userSpaceOnUse" x1="11362.6602" y1="184.7529" x2="11611.5547" y2="235.3096" gradientTransform="matrix(-1 0 0 1 11789.624 0)">
		<stop  offset="0.1611" style="stop-color:#00865F"/>
		<stop  offset="0.3603" style="stop-color:#9FD1C3"/>
		<stop  offset="0.4665" style="stop-color:#DEEFEA"/>
		<stop  offset="0.5249" style="stop-color:#C7E4DC"/>
		<stop  offset="0.7179" style="stop-color:#01835D"/>
		<stop  offset="1" style="stop-color:#11543E"/>
	</linearGradient>
	<path style="fill:url(#SVGID_00000088100729921125042990000017207663663561744294_);" d="M387.3,195.1v-1.8c0-1-0.7-2.3-1.6-2.8
		l-2.8-1.6l-2.3,1.3v8.7L387.3,195.1z"/>
	<path class="st20" d="M394.4,179.7L136,30.6c-1.5-0.8-3.7-0.9-5.3-0.3c1.1,0,2.3,0.2,3.2,0.7l258.4,149.1c1.6,0.9,1.6,2.5,0,3.4
		l-9.3,5.4l-2.3,1.3l-110.2,63.6l-3.2,1.9c-1.1,0.6-2.6,0.8-4,0.6c-0.7-0.1-1.3-0.3-1.8-0.6l-3.8-2.2l-241-139l-4.1-2.4l-9.5-5.5
		c-1.6-0.9-1.6-2.5,0-3.4c-1.6,0.9-2.9,3.2-2.9,5.1v1.2c0,1.9,1.3,4.2,2.9,5.1l0.3,0.2l6.7,3.8l6.7,3.8l240.7,138.8l4.1,2.4
		c0.7,0.4,1.6,0.6,2.5,0.7c1.2,0.1,2.4-0.2,3.3-0.7l3.3-1.9l110.1-62.9l6.7-3.8l6.7-3.8l0.4-0.2c1.6-0.9,2.9-3.2,2.9-5.1v-1.2
		C397.4,182.9,396,180.6,394.4,179.7z"/>
	<path class="st21" d="M130.6,30.4c-1,0-2,0.3-2.7,0.7l-125,72.2l127.2-72.6C130.3,30.5,130.5,30.5,130.6,30.4z"/>
	<path class="st22" d="M392.2,180.1L133.8,31.1c-0.9-0.5-2-0.7-3.2-0.7c-0.2,0.1-0.4,0.2-0.5,0.3L2.9,103.3c-1.6,0.9-1.6,2.5,0,3.4
		l9.5,5.5l4.1,2.4l241,139l3.8,2.2c0.5,0.3,1.2,0.5,1.8,0.6c1.4,0.2,2.9,0,4-0.6l3.2-1.9l110.2-63.6l2.3-1.3l9.3-5.4
		C393.9,182.6,393.9,181.1,392.2,180.1z"/>
	<polygon class="st23" points="138.9,300.5 209.9,262.4 134.6,218.6 	"/>
	<g>
		<g>
			<path id="XMLID_00000016045537139689997540000013652795212784039308_" class="st24" d="M310.1,203.8c-0.7,2.2-3.2,3.2-4.5,4
				l-44.4,25.5c-1.3,0.8-3.6,1.3-4.9,0.6l-134.5-77.5c-1.3-0.8-2.4-2.3-2.4-3.7c0-1.4,0.6-1,0.6,0.2l93.9-3.8c1.3-0.8,3.4-0.8,4.7,0
				l90.8,52.4C310.2,202,310.4,202.9,310.1,203.8z"/>
			<path id="XMLID_00000126296710617149905720000012338458453140607652_" class="st25" d="M309.4,204.2l-48.7,28.1
				c-1.3,0.8-3.4,0.8-4.7,0L111.2,149c-1.3-0.8-2.9-2.3-1.6-3l49.3-29.2c1.3-0.8,3.4-0.8,4.7,0l145.7,84.7
				C310.7,202.2,310.7,203.4,309.4,204.2z"/>
		</g>
	</g>
	<g>
		<g>
			<path id="XMLID_00000131338357461769413090000013452858368039965059_" class="st26" d="M242.3,115.5c-0.2,0.9-1.3,1.3-1.8,1.6
				l-17.6,10.1c-0.5,0.3-1.4,0.5-2,0.2l-35.7-20.3c-0.5-0.3-0.9-0.9-0.9-1.5c0-0.6,0.1-1.5,0.1-1.1l19.7-11.8c0.5-0.3,1.4-0.3,1.9,0
				l36,20.8C242.5,113.8,242.4,114.9,242.3,115.5z"/>
			<path id="XMLID_00000147203956571583402990000009337067137726737327_" class="st27" d="M242,114.6l-19.3,11.1
				c-0.5,0.3-1.4,0.3-1.9,0l-35.6-20.2c-0.5-0.3-1.1-0.9-0.6-1.2l19.5-11.6c0.5-0.3,1.4-0.3,1.9,0l36,20.8
				C242.5,113.8,242.5,114.3,242,114.6z"/>
		</g>
		<path class="st26" d="M214.8,111.8l-3.5-2c-1.1-0.6-1.8-1.8-1.8-3.1V85h11.3v23.4C220.8,111.5,217.4,113.4,214.8,111.8z"/>
		<g>
			<path class="st26" d="M248.8,113.2v-59c0-1.3-0.9-2.8-2-3.4L170.7,7.5c0.9-0.6,2.7-1.4,3.7-0.8l74.3,43.4c1.1,0.6,2,2.1,2,3.4
				l0,58.1c0,1.3,0,2.2-1,2.8c-1,0.7-2.2,1-3.8-0.1l-74.3-43.4l75.2,43.4C248.2,114.7,248.8,113.9,248.8,113.2z"/>
			<path class="st28" d="M170.9,7.4c0.5-0.2,0.7-0.5,3.1,0.9l72.9,42.5c1.1,0.6,2,2.1,2,3.4v59c0,1.1-1.3,1.4-2,1.1l-75.2-43.4
				c-1.1-0.6-2-2.2-2-3.4V9.7c0-0.3,0-0.6,0.1-0.9C169.9,8.1,170.5,7.5,170.9,7.4z"/>
		</g>
		<path id="XMLID_00000109000186044337296320000013676808933195967109_" class="st29" d="M247.7,55.6v56.2c0,0.5,0,1.7-1.1,1
			l-73.7-42.7c-1-0.6-1.9-2.1-1.9-3.3V10.6c0-1.2,0.9-1.7,1.9-1.1l72.8,42.1C246.8,52.2,247.7,53.6,247.7,55.6z"/>
	</g>
	<g>
		<g id="XMLID_00000127731697368426750900000000983051360784146576_">
			<path id="XMLID_00000033344215860778634330000003174072666494443660_" class="st30" d="M254.4,185.5l-80.5-44.4
				c-0.6-0.4-1.5-0.4-2.1-0.1l-21.1,9.6c-0.2,0.2-0.4,1.6-0.3,2.6c0.1,0.4,0.3,0.8,0.7,1l80,46.1c0.6,0.4,1.5,0.4,2.1,0.1l20.9-12
				C254.5,188.3,254.4,187.4,254.4,185.5z"/>
			<path id="XMLID_00000057865175453303938540000007013294922264420500_" class="st31" d="M253.8,184.8l-80-46.2
				c-0.6-0.4-1.5-0.4-2.1-0.1l-20.8,12c-0.5,0.3-0.4,0.8,0.2,1.2l79.9,46.1c0.6,0.4,1.5,0.4,2.1,0.1l20.9-12
				C254.5,185.7,254.5,185.1,253.8,184.8z"/>
			<path class="st32" d="M182.1,147.6l2.5,1.4c0.1,0.1,0.3,0.1,0.3,0l2.2-1.3c0.1-0.1,0.1-0.1,0-0.2l-2.5-1.4
				c-0.1-0.1-0.3-0.1-0.3,0l-2.2,1.3C182,147.5,182,147.6,182.1,147.6z"/>
			<path class="st32" d="M228.9,190.4l2.2-1.3c0.1,0,0.2,0,0.3,0l2.5,1.4c0.1,0.1,0.1,0.2,0,0.2l-2.2,1.3c-0.1,0-0.2,0-0.3,0
				l-2.5-1.4C228.8,190.5,228.8,190.4,228.9,190.4z"/>
			<path class="st32" d="M243.2,186.7l2.2-1.3c0.1-0.1,0.2,0,0.3,0l2.5,1.4c0.1,0.1,0.1,0.1,0,0.2l-2.2,1.3c-0.1,0.1-0.2,0-0.3,0
				l-2.5-1.4C243.1,186.8,243.1,186.7,243.2,186.7z"/>
			<path class="st32" d="M174.8,143.2l2.2-1.3c0.1-0.1,0.2,0,0.3,0l2.5,1.4c0.1,0.1,0.1,0.1,0,0.2l-2.2,1.3c-0.1,0-0.2,0-0.3,0
				l-2.5-1.4C174.7,143.4,174.7,143.3,174.8,143.2z"/>
			<path class="st32" d="M178.4,145.3l2.2-1.3c0.1-0.1,0.2,0,0.3,0l2.5,1.4c0.1,0.1,0.1,0.1,0,0.2l-2.2,1.3c-0.1,0-0.2,0-0.3,0
				l-2.5-1.4C178.4,145.5,178.3,145.4,178.4,145.3z"/>
			<path class="st32" d="M227.8,173.7l2.2-1.3c0.1,0,0.2,0,0.3,0l2.5,1.4c0.1,0.1,0.1,0.1,0,0.2l-2.2,1.3c-0.1,0-0.2,0-0.4,0
				l-2.5-1.4C227.7,173.9,227.7,173.8,227.8,173.7z"/>
			<path class="st32" d="M171.2,141.1l2.2-1.3c0.1-0.1,0.2,0,0.3,0l2.5,1.4c0.1,0.1,0.1,0.1,0,0.2l-2.2,1.3c-0.1,0-0.2,0-0.3,0
				l-2.5-1.4C171.1,141.3,171.1,141.2,171.2,141.1z"/>
			<path class="st32" d="M239,180.3l2.2-1.3c0.1-0.1,0.2,0,0.3,0l2.5,1.4c0.1,0.1,0.1,0.1,0,0.2l-2.2,1.3c-0.1,0.1-0.2,0-0.3,0
				l-2.5-1.4C239,180.4,238.9,180.3,239,180.3z"/>
			<path class="st32" d="M242.8,182.3l2.2-1.3c0.1-0.1,0.2,0,0.3,0l2.5,1.4c0.1,0.1,0.1,0.1,0,0.2l-2.2,1.3c-0.1,0-0.2,0-0.3,0
				l-2.5-1.4C242.8,182.4,242.8,182.3,242.8,182.3z"/>
			<path class="st32" d="M235.4,178.2l2.2-1.3c0.1-0.1,0.2,0,0.3,0l2.5,1.4c0.1,0.1,0.1,0.1,0,0.2l-2.2,1.3c-0.1,0-0.2,0-0.3,0
				l-2.5-1.4C235.3,178.3,235.3,178.2,235.4,178.2z"/>
			<path class="st32" d="M246.7,184.6l2.2-1.3c0.1-0.1,0.2,0,0.3,0l2.5,1.4c0.1,0.1,0.1,0.1,0,0.2l-2.2,1.3c-0.1,0-0.2,0-0.3,0
				l-2.5-1.4C246.7,184.7,246.7,184.6,246.7,184.6z"/>
			<path class="st32" d="M224.2,171.6l2.2-1.3c0.1,0,0.2,0,0.3,0l2.5,1.4c0.1,0.1,0.1,0.1,0,0.2l-2.2,1.3c-0.1,0-0.2,0-0.3,0
				l-2.5-1.4C224.1,171.8,224.1,171.7,224.2,171.6z"/>
			<path class="st32" d="M231.5,175.8l2.2-1.3c0.1,0,0.2,0,0.3,0l2.5,1.4c0.1,0.1,0.1,0.1,0,0.2l-2.2,1.3c-0.1,0-0.2,0-0.4,0
				l-2.5-1.4C231.4,176,231.4,175.9,231.5,175.8z"/>
			<path class="st32" d="M169,156.3l2.2-1.3c0.1,0,0.2,0,0.3,0l2.5,1.4c0.1,0.1,0.1,0.1,0,0.2l-2.2,1.3c-0.1,0.1-0.2,0-0.3,0
				l-2.5-1.4C168.9,156.4,168.9,156.3,169,156.3z"/>
			<path class="st32" d="M176.3,160.5l2.2-1.3c0.1,0,0.2,0,0.3,0l2.5,1.4c0.1,0.1,0.1,0.1,0,0.2l-2.2,1.3c-0.1,0.1-0.2,0-0.3,0
				l-2.5-1.4C176.2,160.6,176.2,160.5,176.3,160.5z"/>
			<path class="st32" d="M172.6,158.4l2.2-1.3c0.1,0,0.2,0,0.3,0l2.5,1.4c0.1,0.1,0.1,0.1,0,0.2l-2.2,1.3c-0.1,0.1-0.2,0-0.3,0
				l-2.5-1.4C172.6,158.5,172.6,158.4,172.6,158.4z"/>
			<path class="st32" d="M187.2,166.8l2.2-1.3c0.1,0,0.2,0,0.3,0l2.5,1.4c0.1,0.1,0.1,0.1,0,0.2l-2.2,1.3c-0.1,0.1-0.2,0-0.4,0
				l-2.5-1.4C187.1,166.9,187.1,166.8,187.2,166.8z"/>
			<path class="st32" d="M179.9,162.6l2.2-1.3c0.1,0,0.2,0,0.3,0l2.5,1.4c0.1,0.1,0.1,0.1,0,0.2l-2.2,1.3c-0.1,0.1-0.2,0-0.3,0
				l-2.5-1.4C179.9,162.7,179.8,162.6,179.9,162.6z"/>
			<path class="st32" d="M183.6,164.7l2.2-1.3c0.1,0,0.2,0,0.3,0l2.5,1.4c0.1,0.1,0.1,0.1,0,0.2l-2.2,1.3c-0.1,0.1-0.2,0-0.3,0
				l-2.5-1.4C183.5,164.8,183.5,164.7,183.6,164.7z"/>
			<path class="st32" d="M213.6,181.9l2.2-1.3c0.1-0.1,0.2,0,0.4,0l2.5,1.4c0.1,0.1,0.1,0.1,0,0.2l-2.2,1.3c-0.1,0-0.2,0-0.4,0
				l-2.5-1.4C213.6,182,213.6,182,213.6,181.9z"/>
			<path class="st32" d="M165.4,154.2l2.2-1.3c0.1,0,0.2,0,0.3,0l2.5,1.4c0.1,0.1,0.1,0.1,0,0.2l-2.2,1.3c-0.1,0.1-0.2,0-0.3,0
				l-2.5-1.4C165.3,154.3,165.3,154.2,165.4,154.2z"/>
			<path class="st32" d="M228.6,186.4l2.2-1.3c0.1-0.1,0.2,0,0.3,0l2.5,1.4c0.1,0.1,0.1,0.1,0,0.2l-2.2,1.3c-0.1,0-0.2,0-0.3,0
				l-2.5-1.4C228.5,186.5,228.5,186.4,228.6,186.4z"/>
			<path class="st32" d="M225.1,188.4l2.2-1.3c0.1,0,0.2,0,0.3,0l2.5,1.4c0.1,0.1,0.1,0.2,0,0.2L228,190c-0.1,0-0.2,0-0.3,0
				l-2.5-1.4C225,188.5,225,188.4,225.1,188.4z"/>
			<path class="st32" d="M156.9,149.3l2.2-1.3c0.1-0.1,0.2,0,0.3,0l7.3,4.2c0.1,0.1,0.1,0.1,0,0.2l-2.2,1.3c-0.1,0.1-0.2,0-0.3,0
				l-7.3-4.2C156.9,149.4,156.8,149.3,156.9,149.3z"/>
			<path class="st32" d="M201.8,175l2.2-1.3c0.1-0.1,0.2,0,0.3,0l6.9,4c0.1,0.1,0.1,0.1,0,0.2l-2.2,1.3c-0.1,0.1-0.2,0-0.3,0l-6.9-4
				C201.7,175.2,201.7,175.1,201.8,175z"/>
			<path class="st32" d="M216.9,175.8l2.2-1.3c0.1,0,0.2,0,0.3,0l2.5,1.4c0.1,0.1,0.1,0.1,0,0.2l-2.2,1.3c-0.1,0.1-0.2,0-0.4,0
				l-2.5-1.4C216.8,176,216.8,175.9,216.9,175.8z"/>
			<path class="st32" d="M221.5,186.3l2.2-1.3c0.1,0,0.2,0,0.3,0l2.5,1.4c0.1,0.1,0.1,0.2,0,0.2l-2.2,1.3c-0.1,0-0.2,0-0.3,0
				l-2.5-1.4C221.4,186.4,221.4,186.3,221.5,186.3z"/>
			<path class="st32" d="M210.2,183.9l2.2-1.3c0.1,0,0.2,0,0.4,0l2.5,1.4c0.1,0.1,0.1,0.2,0,0.2l-2.2,1.3c-0.1,0-0.2,0-0.3,0
				l-2.5-1.4C210.1,184,210.1,183.9,210.2,183.9z"/>
			<path class="st32" d="M158.5,154.2l2.2-1.3c0.1,0,0.2,0,0.3,0l3.1,1.8c0.1,0.1,0.1,0.1,0,0.2l-2.2,1.3c-0.1,0.1-0.2,0-0.3,0
				l-3.1-1.8C158.4,154.3,158.4,154.2,158.5,154.2z"/>
			<path class="st32" d="M197,176.4l2.2-1.3c0.1,0,0.2,0,0.4,0l3.1,1.8c0.1,0.1,0.1,0.1,0,0.2l-2.2,1.3c-0.1,0.1-0.2,0-0.3,0
				l-3.1-1.8C196.9,176.5,196.9,176.5,197,176.4z"/>
			<path class="st32" d="M166.9,159l2.2-1.3c0.1-0.1,0.2,0,0.3,0l3.1,1.8c0.1,0.1,0.1,0.1,0,0.2l-2.2,1.3c-0.1,0.1-0.2,0-0.3,0
				l-3.1-1.8C166.8,159.2,166.8,159.1,166.9,159z"/>
			<path class="st32" d="M192.8,174l2.2-1.3c0.1-0.1,0.2,0,0.4,0l3.1,1.8c0.1,0.1,0.1,0.1,0,0.2l-2.2,1.3c-0.1,0-0.2,0-0.3,0
				l-3.1-1.8C192.7,174.1,192.7,174,192.8,174z"/>
			<path class="st32" d="M171.1,161.5l2.2-1.3c0.1,0,0.2,0,0.3,0l20.5,11.8c0.1,0.1,0.1,0.1,0,0.2l-2.2,1.3c-0.1,0-0.2,0-0.3,0
				l-20.5-11.8C171,161.6,171,161.5,171.1,161.5z"/>
			<path class="st32" d="M153.5,151.3l2.2-1.3c0.1-0.1,0.2,0,0.3,0l3.8,2.2c0.1,0.1,0.1,0.1,0,0.2l-2.2,1.3c-0.1,0-0.2,0-0.3,0
				l-3.8-2.2C153.4,151.4,153.4,151.3,153.5,151.3z"/>
			<path class="st32" d="M162.7,156.6l2.2-1.3c0.1,0,0.2,0,0.3,0l3.1,1.8c0.1,0.1,0.1,0.2,0,0.2l-2.2,1.3c-0.1,0-0.2,0-0.3,0
				l-3.1-1.8C162.6,156.7,162.6,156.7,162.7,156.6z"/>
			<path class="st32" d="M229.4,194.7l5.6-3.3c0.1,0,0.2,0,0.3,0l2.5,1.4c0.1,0.1,0.1,0.2,0,0.2l-5.6,3.3c-0.1,0-0.2,0-0.3,0
				l-2.5-1.4C229.3,194.8,229.3,194.7,229.4,194.7z"/>
			<path class="st32" d="M225.5,192.4l2.2-1.3c0.1,0,0.2,0,0.3,0l2.5,1.4c0.1,0.1,0.1,0.1,0,0.2l-2.2,1.3c-0.1,0-0.2,0-0.3,0
				l-2.5-1.4C225.4,192.5,225.4,192.4,225.5,192.4z"/>
			<path class="st32" d="M213.8,186l2.2-1.3c0.1,0,0.2,0,0.4,0l2.5,1.4c0.1,0.1,0.1,0.2,0,0.2l-2.2,1.3c-0.1,0-0.2,0-0.3,0l-2.5-1.4
				C213.8,186.1,213.7,186.1,213.8,186z"/>
			<path class="st32" d="M190.9,168.9l2.2-1.3c0.1,0,0.2,0,0.3,0l2.5,1.4c0.1,0.1,0.1,0.1,0,0.2l-2.2,1.3c-0.1,0.1-0.2,0-0.4,0
				l-2.5-1.4C190.8,169,190.8,168.9,190.9,168.9z"/>
			<path class="st32" d="M206.5,181.8l2.2-1.3c0.1,0,0.2,0,0.3,0l2.5,1.4c0.1,0.1,0.1,0.2,0,0.2l-2.2,1.3c-0.1,0-0.2,0-0.4,0
				l-2.5-1.4C206.5,181.9,206.5,181.8,206.5,181.8z"/>
			<path class="st32" d="M218,188.3l2.2-1.3c0.1,0,0.2,0,0.3,0l6.1,3.5c0.1,0.1,0.1,0.1,0,0.2l-2.2,1.3c-0.1,0-0.2,0-0.4,0l-6.1-3.5
				C217.9,188.4,217.9,188.3,218,188.3z"/>
			<path class="st32" d="M207.1,161.9l2.2-1.3c0.1-0.1,0.2,0,0.3,0l2.5,1.4c0.1,0.1,0.1,0.2,0,0.2l-2.2,1.3c-0.1,0-0.2,0-0.3,0
				l-2.5-1.4C207,162,207,161.9,207.1,161.9z"/>
			<path class="st32" d="M203.4,159.8l2.2-1.3c0.1-0.1,0.2,0,0.3,0l2.5,1.4c0.1,0.1,0.1,0.2,0,0.2l-2.2,1.3c-0.1,0-0.2,0-0.3,0
				l-2.5-1.4C203.4,159.9,203.4,159.8,203.4,159.8z"/>
			<path class="st32" d="M201.2,178.8l2.2-1.3c0.1,0,0.2,0,0.3,0l3.8,2.2c0.1,0.1,0.1,0.1,0,0.2l-2.2,1.3c-0.1,0-0.2,0-0.3,0
				l-3.8-2.2C201.1,179,201.1,178.9,201.2,178.8z"/>
			<path class="st32" d="M198.2,156.8l2.2-1.3c0.1,0,0.2,0,0.3,0l2.5,1.4c0.1,0.1,0.1,0.1,0,0.2l-2.2,1.3c-0.1,0-0.2,0-0.3,0
				l-2.5-1.4C198.2,156.9,198.1,156.8,198.2,156.8z"/>
			<path class="st32" d="M190.9,152.6l2.2-1.3c0.1,0,0.2,0,0.3,0l2.5,1.4c0.1,0.1,0.1,0.1,0,0.2l-2.2,1.3c-0.1,0-0.2,0-0.3,0
				l-2.5-1.4C190.9,152.7,190.9,152.6,190.9,152.6z"/>
			<path class="st32" d="M210.7,164l2.2-1.3c0.1-0.1,0.2,0,0.3,0l2.5,1.4c0.1,0.1,0.1,0.2,0,0.2l-2.2,1.3c-0.1,0-0.2,0-0.3,0
				l-2.5-1.4C210.7,164.1,210.6,164,210.7,164z"/>
			<path class="st32" d="M194.6,154.7l2.2-1.3c0.1,0,0.2,0,0.3,0l2.5,1.4c0.1,0.1,0.1,0.1,0,0.2l-2.2,1.3c-0.1,0-0.2,0-0.3,0
				l-2.5-1.4C194.5,154.8,194.5,154.7,194.6,154.7z"/>
			<path class="st32" d="M187.3,150.5l2.2-1.3c0.1,0,0.2,0,0.3,0l2.5,1.4c0.1,0.1,0.1,0.1,0,0.2l-2.2,1.3c-0.1,0.1-0.2,0-0.3,0
				l-2.5-1.4C187.2,150.6,187.2,150.5,187.3,150.5z"/>
			<path class="st32" d="M207.1,174.3l2.2-1.3c0.1-0.1,0.2,0,0.3,0l4.8,2.8c0.1,0.1,0.1,0.1,0,0.2l-2.2,1.3c-0.1,0.1-0.2,0-0.3,0
				l-4.8-2.8C207.1,174.4,207.1,174.3,207.1,174.3z"/>
			<path class="st32" d="M214.4,166.1l2.2-1.3c0.1-0.1,0.2,0,0.3,0l2.5,1.4c0.1,0.1,0.1,0.2,0,0.2l-2.2,1.3c-0.1,0-0.2,0-0.3,0
				l-2.5-1.4C214.3,166.2,214.3,166.1,214.4,166.1z"/>
			<path class="st32" d="M219.6,169.1l2.2-1.3c0.1,0,0.2,0,0.4,0l3.1,1.8c0.1,0.1,0.1,0.2,0,0.2l-2.2,1.3c-0.1,0-0.2,0-0.3,0
				l-3.1-1.8C219.5,169.2,219.5,169.2,219.6,169.1z"/>
			<path class="st32" d="M211.6,172.9l2.2-1.3c0.1,0,0.2,0,0.3,0l3.8,2.2c0.1,0.1,0.1,0.1,0,0.2l-2.2,1.3c-0.1,0.1-0.2,0-0.3,0
				l-3.8-2.2C211.5,173,211.5,172.9,211.6,172.9z"/>
			<path class="st32" d="M216.4,171.6l2.2-1.3c0.1,0,0.2,0,0.3,0l2.5,1.4c0.1,0.1,0.1,0.1,0,0.2l-2.2,1.3c-0.1,0-0.2,0-0.3,0
				l-2.5-1.4C216.3,171.8,216.3,171.7,216.4,171.6z"/>
			<path class="st32" d="M194.5,171l2.2-1.3c0.1,0,0.2,0,0.4,0l2.5,1.4c0.1,0.1,0.1,0.1,0,0.2l-2.2,1.3c-0.1,0.1-0.2,0-0.3,0
				l-2.5-1.4C194.4,171.1,194.4,171,194.5,171z"/>
			<path class="st32" d="M189.7,160.2l2.2-1.3c0.1,0,0.2,0,0.3,0l2.5,1.4c0.1,0.1,0.1,0.1,0,0.2l-2.2,1.3c-0.1,0-0.2,0-0.3,0
				l-2.5-1.4C189.6,160.4,189.6,160.3,189.7,160.2z"/>
			<path class="st32" d="M193.4,162.3l2.2-1.3c0.1,0,0.2,0,0.3,0l2.5,1.4c0.1,0.1,0.1,0.1,0,0.2l-2.2,1.3c-0.1,0-0.2,0-0.4,0
				l-2.5-1.4C193.3,162.5,193.3,162.4,193.4,162.3z"/>
			<path class="st32" d="M178.8,153.9l2.2-1.3c0.1,0,0.2,0,0.3,0l2.5,1.4c0.1,0.1,0.1,0.1,0,0.2l-2.2,1.3c-0.1,0-0.2,0-0.3,0
				l-2.5-1.4C178.7,154.1,178.7,154,178.8,153.9z"/>
			<path class="st32" d="M186.1,158.1l2.2-1.3c0.1,0,0.2,0,0.3,0l2.5,1.4c0.1,0.1,0.1,0.1,0,0.2l-2.2,1.3c-0.1,0-0.2,0-0.3,0
				l-2.5-1.4C186,158.3,186,158.2,186.1,158.1z"/>
			<path class="st32" d="M182.4,156l2.2-1.3c0.1,0,0.2,0,0.3,0l2.5,1.4c0.1,0.1,0.1,0.1,0,0.2l-2.2,1.3c-0.1,0-0.2,0-0.3,0l-2.5-1.4
				C182.4,156.2,182.4,156.1,182.4,156z"/>
			<path class="st32" d="M197,164.4l2.2-1.3c0.1,0,0.2,0,0.3,0l2.5,1.4c0.1,0.1,0.1,0.1,0,0.2l-2.2,1.3c-0.1,0-0.2,0-0.4,0l-2.5-1.4
				C196.9,164.6,196.9,164.5,197,164.4z"/>
			<path class="st32" d="M200.6,166.5l2.2-1.3c0.1,0,0.2,0,0.3,0l2.5,1.4c0.1,0.1,0.1,0.1,0,0.2l-2.2,1.3c-0.1,0-0.2,0-0.4,0
				l-2.5-1.4C200.6,166.7,200.6,166.6,200.6,166.5z"/>
			<path class="st32" d="M188.9,163.8l2.2-1.3c0.1,0,0.2,0,0.3,0l2.5,1.4c0.1,0.1,0.1,0.2,0,0.2l-2.2,1.3c-0.1,0-0.2,0-0.3,0
				L189,164C188.9,163.9,188.9,163.8,188.9,163.8z"/>
			<path class="st32" d="M192.6,165.9l2.2-1.3c0.1,0,0.2,0,0.3,0l2.5,1.4c0.1,0.1,0.1,0.2,0,0.2l-2.2,1.3c-0.1,0-0.2,0-0.4,0
				l-2.5-1.4C192.5,166,192.5,165.9,192.6,165.9z"/>
			<path class="st32" d="M196.2,168l2.2-1.3c0.1,0,0.2,0,0.3,0l2.5,1.4c0.1,0.1,0.1,0.2,0,0.2l-2.2,1.3c-0.1,0-0.2,0-0.4,0l-2.5-1.4
				C196.2,168.1,196.1,168,196.2,168z"/>
			<path class="st32" d="M204.3,168.7l2.2-1.3c0.1,0,0.2,0,0.4,0l2.5,1.4c0.1,0.1,0.1,0.1,0,0.2l-2.2,1.3c-0.1,0-0.2,0-0.3,0
				l-2.5-1.4C204.2,168.8,204.2,168.7,204.3,168.7z"/>
			<path class="st32" d="M199.9,170.1l2.2-1.3c0.1-0.1,0.2,0,0.4,0l2.5,1.4c0.1,0.1,0.1,0.2,0,0.2l-2.2,1.3c-0.1,0-0.2,0-0.3,0
				l-2.5-1.4C199.8,170.2,199.8,170.1,199.9,170.1z"/>
			<path class="st32" d="M171.5,149.7l2.2-1.3c0.1,0,0.2,0,0.3,0l2.5,1.4c0.1,0.1,0.1,0.1,0,0.2l-2.2,1.3c-0.1,0.1-0.2,0-0.3,0
				l-2.5-1.4C171.4,149.9,171.4,149.8,171.5,149.7z"/>
			<path class="st32" d="M224.9,184.3l2.2-1.3c0.1-0.1,0.2,0,0.3,0l2.5,1.4c0.1,0.1,0.1,0.2,0,0.2l-2.2,1.3c-0.1,0-0.2,0-0.3,0
				l-2.5-1.4C224.8,184.4,224.8,184.3,224.9,184.3z"/>
			<path class="st32" d="M175.2,151.8l2.2-1.3c0.1,0,0.2,0,0.3,0l2.5,1.4c0.1,0.1,0.1,0.1,0,0.2l-2.2,1.3c-0.1,0-0.2,0-0.3,0
				l-2.5-1.4C175.1,152,175.1,151.9,175.2,151.8z"/>
			<path class="st32" d="M232,184.4l2.2-1.3c0.1-0.1,0.2,0,0.3,0l2.5,1.4c0.1,0.1,0.1,0.1,0,0.2l-2.2,1.3c-0.1,0-0.2,0-0.3,0
				l-2.5-1.4C231.9,184.5,231.9,184.4,232,184.4z"/>
			<path class="st32" d="M236.3,190.7l5.6-3.3c0.1-0.1,0.2,0,0.3,0l2.5,1.4c0.1,0.1,0.1,0.1,0,0.2l-5.6,3.3c-0.1,0-0.2,0-0.3,0
				l-2.5-1.4C236.2,190.8,236.2,190.7,236.3,190.7z"/>
			<path class="st32" d="M235.8,186.4l2.2-1.3c0.1-0.1,0.2,0,0.3,0l2.5,1.4c0.1,0.1,0.1,0.1,0,0.2l-2.2,1.3c-0.1,0-0.2,0-0.3,0
				l-2.5-1.4C235.7,186.5,235.7,186.4,235.8,186.4z"/>
			<path class="st32" d="M228.4,182.3l2.2-1.3c0.1-0.1,0.2,0,0.3,0l2.5,1.4c0.1,0.1,0.1,0.1,0,0.2l-2.2,1.3c-0.1,0-0.2,0-0.3,0
				l-2.5-1.4C228.3,182.4,228.3,182.3,228.4,182.3z"/>
			<path class="st32" d="M232.4,188.4l2.2-1.3c0.1-0.1,0.2,0,0.3,0l2.5,1.4c0.1,0.1,0.1,0.2,0,0.2l-2.2,1.3c-0.1,0-0.2,0-0.3,0
				l-2.5-1.4C232.3,188.5,232.3,188.4,232.4,188.4z"/>
			<path class="st32" d="M181.7,159.6l2.2-1.3c0.1,0,0.2,0,0.3,0l2.5,1.4c0.1,0.1,0.1,0.2,0,0.2l-2.2,1.3c-0.1,0-0.2,0-0.3,0
				l-2.5-1.4C181.6,159.7,181.6,159.6,181.7,159.6z"/>
			<path class="st32" d="M239.3,184.4l2.2-1.3c0.1-0.1,0.2,0,0.3,0l2.5,1.4c0.1,0.1,0.1,0.1,0,0.2l-2.2,1.3c-0.1,0.1-0.2,0-0.3,0
				l-2.5-1.4C239.2,184.5,239.2,184.4,239.3,184.4z"/>
			<path class="st32" d="M167.9,147.6l2.2-1.3c0.1,0,0.2,0,0.3,0l2.5,1.4c0.1,0.1,0.1,0.1,0,0.2l-2.2,1.3c-0.1,0.1-0.2,0-0.3,0
				l-2.5-1.4C167.8,147.8,167.8,147.7,167.9,147.6z"/>
			<path class="st32" d="M163.9,145.4l2.2-1.3c0.1,0,0.2,0,0.3,0l2.5,1.4c0.1,0.1,0.1,0.1,0,0.2l-2.2,1.3c-0.1,0.1-0.2,0-0.3,0
				l-2.5-1.4C163.8,145.5,163.8,145.5,163.9,145.4z"/>
			<path class="st32" d="M231.8,180.3l2.2-1.3c0.1,0,0.2,0,0.3,0l2.5,1.4c0.1,0.1,0.1,0.1,0,0.2l-2.2,1.3c-0.1,0.1-0.2,0-0.3,0
				l-2.5-1.4C231.8,180.4,231.7,180.3,231.8,180.3z"/>
			<path class="st32" d="M220.4,173.8l2.2-1.3c0.1,0,0.2,0,0.3,0l2.5,1.4c0.1,0.1,0.1,0.1,0,0.2l-2.2,1.3c-0.1,0.1-0.2,0-0.4,0
				l-2.5-1.4C220.3,174,220.3,173.9,220.4,173.8z"/>
			<path class="st32" d="M235.5,182.4l2.2-1.3c0.1,0,0.2,0,0.3,0l2.5,1.4c0.1,0.1,0.1,0.1,0,0.2l-2.2,1.3c-0.1,0.1-0.2,0-0.3,0
				l-2.5-1.4C235.4,182.5,235.4,182.4,235.5,182.4z"/>
			<path class="st32" d="M185.3,161.7l2.2-1.3c0.1,0,0.2,0,0.3,0l2.5,1.4c0.1,0.1,0.1,0.2,0,0.2l-2.2,1.3c-0.1,0-0.2,0-0.3,0
				l-2.5-1.4C185.2,161.8,185.2,161.7,185.3,161.7z"/>
			<path class="st32" d="M201.8,163.2l2.2-1.3c0.1,0,0.2,0,0.3,0l2.5,1.4c0.1,0.1,0.1,0.1,0,0.2l-2.2,1.3c-0.1,0.1-0.2,0-0.4,0
				l-2.5-1.4C201.7,163.4,201.7,163.3,201.8,163.2z"/>
			<path class="st32" d="M198.2,161.1l2.2-1.3c0.1,0,0.2,0,0.3,0l2.5,1.4c0.1,0.1,0.1,0.1,0,0.2l-2.2,1.3c-0.1,0.1-0.2,0-0.4,0
				l-2.5-1.4C198.1,161.3,198.1,161.2,198.2,161.1z"/>
			<path class="st32" d="M194.5,159l2.2-1.3c0.1,0,0.2,0,0.3,0l2.5,1.4c0.1,0.1,0.1,0.1,0,0.2l-2.2,1.3c-0.1,0.1-0.2,0-0.3,0
				l-2.5-1.4C194.4,159.2,194.4,159.1,194.5,159z"/>
			<path class="st32" d="M187.2,154.8l2.2-1.3c0.1,0,0.2,0,0.3,0l2.5,1.4c0.1,0.1,0.1,0.1,0,0.2l-2.2,1.3c-0.1,0.1-0.2,0-0.3,0
				l-2.5-1.4C187.2,155,187.1,154.9,187.2,154.8z"/>
			<path class="st32" d="M205.4,165.3l2.2-1.3c0.1,0,0.2,0,0.4,0l2.5,1.4c0.1,0.1,0.1,0.1,0,0.2l-2.2,1.3c-0.1,0.1-0.2,0-0.4,0
				l-2.5-1.4C205.4,165.5,205.4,165.4,205.4,165.3z"/>
			<path class="st32" d="M190.9,156.9l2.2-1.3c0.1,0,0.2,0,0.3,0l2.5,1.4c0.1,0.1,0.1,0.1,0,0.2l-2.2,1.3c-0.1,0.1-0.2,0-0.3,0
				l-2.5-1.4C190.8,157.1,190.8,157,190.9,156.9z"/>
			<path class="st32" d="M209.1,167.4l2.2-1.3c0.1,0,0.2,0,0.4,0l2.5,1.4c0.1,0.1,0.1,0.1,0,0.2l-2.2,1.3c-0.1,0-0.2,0-0.3,0
				l-2.5-1.4C209,167.6,209,167.5,209.1,167.4z"/>
			<path class="st32" d="M198.1,173.1l2.2-1.3c0.1,0,0.2,0,0.4,0l2.5,1.4c0.1,0.1,0.1,0.1,0,0.2l-2.2,1.3c-0.1,0.1-0.2,0-0.3,0
				l-2.5-1.4C198.1,173.2,198.1,173.1,198.1,173.1z"/>
			<path class="st32" d="M207.9,170.8l2.2-1.3c0.1,0,0.2,0,0.4,0l2.5,1.4c0.1,0.1,0.1,0.1,0,0.2l-2.2,1.3c-0.1,0-0.2,0-0.3,0
				L208,171C207.9,170.9,207.8,170.8,207.9,170.8z"/>
			<path class="st32" d="M212.7,169.5l2.2-1.3c0.1,0,0.2,0,0.4,0l2.5,1.4c0.1,0.1,0.1,0.1,0,0.2l-2.2,1.3c-0.1,0-0.2,0-0.3,0
				l-2.5-1.4C212.7,169.7,212.6,169.6,212.7,169.5z"/>
			<path class="st32" d="M203.5,172.2l2.2-1.3c0.1-0.1,0.2,0,0.4,0l2.5,1.4c0.1,0.1,0.1,0.2,0,0.2l-2.2,1.3c-0.1,0-0.2,0-0.3,0
				l-2.5-1.4C203.4,172.3,203.4,172.2,203.5,172.2z"/>
			<path class="st32" d="M183.6,152.7l2.2-1.3c0.1,0,0.2,0,0.3,0l2.5,1.4c0.1,0.1,0.1,0.1,0,0.2l-2.2,1.3c-0.1,0.1-0.2,0-0.3,0
				l-2.5-1.4C183.5,152.9,183.5,152.8,183.6,152.7z"/>
			<path class="st32" d="M180,150.6l2.2-1.3c0.1,0,0.2,0,0.3,0l2.5,1.4c0.1,0.1,0.1,0.1,0,0.2l-2.2,1.3c-0.1,0.1-0.2,0-0.3,0
				l-2.5-1.4C179.9,150.8,179.9,150.7,180,150.6z"/>
			<path class="st32" d="M224.2,180l2.2-1.3c0.1,0,0.2,0,0.4,0l2.5,1.4c0.1,0.1,0.1,0.1,0,0.2l-2.2,1.3c-0.1,0.1-0.2,0-0.3,0
				l-2.5-1.4C224.1,180.2,224.1,180.1,224.2,180z"/>
			<path class="st32" d="M178,157.5l2.2-1.3c0.1,0,0.2,0,0.3,0l2.5,1.4c0.1,0.1,0.1,0.2,0,0.2l-2.2,1.3c-0.1,0-0.2,0-0.3,0l-2.5-1.4
				C178,157.6,177.9,157.5,178,157.5z"/>
			<path class="st32" d="M174.4,155.4l2.2-1.3c0.1,0,0.2,0,0.3,0l2.5,1.4c0.1,0.1,0.1,0.2,0,0.2l-2.2,1.3c-0.1,0-0.2,0-0.3,0
				l-2.5-1.4C174.3,155.5,174.3,155.4,174.4,155.4z"/>
			<path class="st32" d="M170.7,153.3l2.2-1.3c0.1,0,0.2,0,0.3,0l2.5,1.4c0.1,0.1,0.1,0.2,0,0.2l-2.2,1.3c-0.1,0-0.2,0-0.3,0
				l-2.5-1.4C170.7,153.4,170.7,153.3,170.7,153.3z"/>
			<path class="st32" d="M167.1,151.2l2.2-1.3c0.1,0,0.2,0,0.3,0l2.5,1.4c0.1,0.1,0.1,0.2,0,0.2l-2.2,1.3c-0.1,0-0.2,0-0.3,0
				l-2.5-1.4C167,151.3,167,151.2,167.1,151.2z"/>
			<path class="st32" d="M176.3,148.5l2.2-1.3c0.1,0,0.2,0,0.3,0l2.5,1.4c0.1,0.1,0.1,0.1,0,0.2l-2.2,1.3c-0.1,0.1-0.2,0-0.3,0
				l-2.5-1.4C176.2,148.7,176.2,148.6,176.3,148.5z"/>
			<path class="st32" d="M172.7,146.4l2.2-1.3c0.1,0,0.2,0,0.3,0l2.5,1.4c0.1,0.1,0.1,0.1,0,0.2l-2.2,1.3c-0.1,0.1-0.2,0-0.3,0
				l-2.5-1.4C172.6,146.6,172.6,146.5,172.7,146.4z"/>
			<path class="st32" d="M227.6,178l2.2-1.3c0.1,0,0.2,0,0.4,0l2.5,1.4c0.1,0.1,0.1,0.1,0,0.2l-2.2,1.3c-0.1,0.1-0.2,0-0.3,0
				l-2.5-1.4C227.6,178.2,227.6,178.1,227.6,178z"/>
			<path class="st32" d="M167.3,143.3l2.2-1.3c0.1,0,0.2,0,0.4,0l4.2,2.4c0.1,0.1,0.1,0.1,0,0.2l-2.2,1.3c-0.1,0.1-0.2,0-0.3,0
				l-4.2-2.4C167.2,143.4,167.2,143.4,167.3,143.3z"/>
			<path class="st32" d="M224,175.9l2.2-1.3c0.1,0,0.2,0,0.3,0l2.5,1.4c0.1,0.1,0.1,0.1,0,0.2l-2.2,1.3c-0.1,0.1-0.2,0-0.4,0
				l-2.5-1.4C223.9,176.1,223.9,176,224,175.9z"/>
			<path class="st32" d="M220.6,177.9l2.2-1.3c0.1,0,0.2,0,0.3,0l2.5,1.4c0.1,0.1,0.1,0.1,0,0.2l-2.2,1.3c-0.1,0.1-0.2,0-0.4,0
				l-2.5-1.4C220.5,178.1,220.5,178,220.6,177.9z"/>
			<polyline class="st32" points="213.2,171.9 209.6,174 213.2,176.8 217,174.6 			"/>
			<path class="st32" d="M160.6,147.3l2.2-1.3c0.1-0.1,0.2,0,0.3,0l4.8,2.8c0.1,0.1,0.1,0.1,0,0.2l-2.2,1.3c-0.1,0.1-0.2,0-0.3,0
				l-4.8-2.8C160.6,147.4,160.6,147.3,160.6,147.3z"/>
		</g>
	</g>
	<path class="st33" d="M206.7,262.3l-67.8,38.2l-7.5-148.6c0-6.2-3.3-11.9-8.7-15L48.2,94.3C42.5,91.1,25.4,99,25.4,106l6.4,107.4
		l9.4,5.6v23.5L121,332l87-45.6c2-1,3.2-3.1,3.2-5.3V265C211.2,262.6,208.7,261.2,206.7,262.3z"/>
	<path class="st34" d="M30.5,104l79.3,45.3c3.5,2,5.7,5.7,5.7,9.8l7.2,169.8c0.1,2.7-2.8,4.4-5.1,3.1l-77-44.4
		c-3.6-2.1-5.9-5.8-6.1-10l-9.2-170.5C25.3,104.4,28.2,102.7,30.5,104z"/>
	<path class="st35" d="M161.9,300.9c-1.3,0-2.7-0.4-3.9-1.1c-2.5-1.4-4-4-4-6.9v-45.4h2.9V293c0,1.8,0.9,3.5,2.5,4.4
		c1.6,0.9,3.5,0.9,5,0l19.4-11.4c3.7-2.2,6-6.2,6-10.5v-47.4h2.9v47.4c0,5.3-2.9,10.3-7.4,13l-19.4,11.4
		C164.6,300.6,163.2,300.9,161.9,300.9z"/>
	<g>
		<path id="XMLID_00000005981979437634543950000017934717115759790502_" class="st36" d="M332.1,168.9c-0.2,0.9-1.3,1.3-1.8,1.6
			l-17.6,10.1c-0.5,0.3-1.4,0.5-2,0.2l-35.7-20.3c-0.5-0.3-0.9-0.9-0.9-1.5c0-0.6,0.1-1.5,0.1-1.1l19.7-11.8c0.5-0.3,1.4-0.3,1.9,0
			l36,20.8C332.3,167.1,332.3,168.2,332.1,168.9z"/>
		<path id="XMLID_00000043436677028990521810000000223442931564380598_" class="st32" d="M331.8,167.9L312.5,179
			c-0.5,0.3-1.4,0.3-1.9,0L275,158.8c-0.5-0.3-1.1-0.9-0.6-1.2l19.5-11.6c0.5-0.3,1.4-0.3,1.9,0l36,20.8
			C332.3,167.1,332.3,167.6,331.8,167.9z"/>
	</g>
	<path class="st1" d="M195.8,229.4l-45.5,25.5c-2.4,1.3-5.4-0.4-5.4-3.1v0c0-2.2,1.2-4.1,3-5.2l45.2-26.1c2.5-1.4,5.6,0.4,5.6,3.3
		v0.7C198.8,226.5,197.7,228.4,195.8,229.4z"/>
	<path class="st37" d="M64.4,47.1l48.7-29.2c1.1-0.6,2.4-0.6,3.5,0l33.2,19.9L120,67.9l-26.1,8.4L64.4,47.1z"/>
	<path class="st38" d="M304.6,165.2l-3.5-2c-1.1-0.6-1.8-1.8-1.8-3.1v-21.8h11.3v23.4C310.6,164.8,307.3,166.7,304.6,165.2z"/>
	<g>
		<g>
			<path class="st39" d="M347,171.2v-67.8c0-1.4-1-3.2-2.3-3.9l-87.5-49.7c1-0.7,3.1-1.6,4.3-0.9l85.3,49.9c1.2,0.7,2.3,2.5,2.3,3.9
				l0,66.7c0,1.4,0,2.5-1.1,3.2c-1.2,0.8-2.5,1.2-4.4-0.1l-85.3-49.9l86.4,49.9C346.2,173,347,172.1,347,171.2z"/>
			<path class="st38" d="M257.5,49.7c0.6-0.2,0.8-0.5,3.6,1l83.7,48.8c1.2,0.7,2.3,2.5,2.3,3.9v67.8c0,1.3-1.5,1.7-2.3,1.3
				l-86.4-49.9c-1.2-0.7-2.3-2.5-2.3-3.9V52.5c0-0.4,0-0.7,0.1-1C256.3,50.6,257.1,49.9,257.5,49.7z"/>
		</g>
		<path id="XMLID_00000036222425267550253130000015713095294777177479_" class="st29" d="M345.7,105.1v64.5c0,0.6,0,1.9-1.3,1.2
			l-84.6-49.1c-1.2-0.7-2.2-2.4-2.2-3.8V53.5c0-1.4,1-2,2.2-1.3l83.6,48.3C344.7,101.2,345.7,102.9,345.7,105.1z"/>
	</g>
	<path class="st32" d="M261.6,192.8c-1.1-0.5-2.4-0.5-3.4,0c-4.1,2.1-14.2,6.6-14.9,11.4c-0.2,1.1,0.2,3.4,1.3,4.4
		c5.3,4.8,20.5-3.8,26.8-7.7c0.7-0.4,1.1-1.7,0.9-3c-0.2-2-0.5,0-1.1-0.3L261.6,192.8z"/>
	<path class="st30" d="M261.6,191.3c-1.1-0.5-2.4-0.5-3.4,0c-5.1,2.6-19.1,10.7-13.6,15.7c5.3,4.8,20.5-3.8,26.8-7.7
		c1.3-0.8,1.2-2.6-0.2-3.3L261.6,191.3z"/>
	<polygon class="st40" points="265.8,193.4 258.3,197.3 258.8,197.5 266.2,193.6 	"/>
	<path class="st41" d="M264,194.6c0,0-1-0.8-2.1-0.1c-1,0.6-0.8,1.4-0.8,1.4l0.4,0.1"/>
	<path class="st42" d="M261.6,196c0,0-0.3-0.9,1-1.6c0.9-0.4,1.6,0.2,1.6,0.2"/>
	<path class="st43" d="M99.4,66.5L65.6,46.9C64.9,46.5,64,47,64,47.9l0.6,40.3c0,0.4,0.2,0.7,0.5,0.9l33,19c1.1,0.6,2.5,0.6,3.6,0
		L150,80.3c0.3-0.2,0.5-0.5,0.5-0.9V38.7c0-0.8-0.9-1.3-1.6-0.9l-48.5,28.6C100.1,66.7,99.7,66.7,99.4,66.5z"/>
	
		<linearGradient id="SVGID_00000139978542062715113070000009440853922770103695_" gradientUnits="userSpaceOnUse" x1="220.9734" y1="-22.5902" x2="-186.6548" y2="385.038">
		<stop  offset="0.1611" style="stop-color:#00865F"/>
		<stop  offset="0.3603" style="stop-color:#64FFDA"/>
		<stop  offset="0.4665" style="stop-color:#F6F6F6"/>
		<stop  offset="0.5249" style="stop-color:#64FFDA"/>
		<stop  offset="0.7179" style="stop-color:#43AC9C"/>
		<stop  offset="1" style="stop-color:#43AC9C"/>
	</linearGradient>
	<path style="fill:url(#SVGID_00000139978542062715113070000009440853922770103695_);" d="M149,37.8l-48.5,28.6
		c-0.2,0.1-0.4,0.2-0.6,0.1v41.9c0.7,0,1.3-0.1,1.9-0.5L150,80.3c0.3-0.2,0.5-0.5,0.5-0.9V38.7C150.6,37.9,149.7,37.4,149,37.8z"/>
	<path class="st37" d="M77.6,63.8l10.6,5.7c0.2,0.1,0.4,0.4,0.4,0.6v2.1c0,0.5-0.6,0.9-1.1,0.6l-10.6-5.8c-0.2-0.1-0.4-0.4-0.4-0.6
		v-2.1C76.6,63.9,77.1,63.5,77.6,63.8z"/>
	<polyline class="st21" points="112.1,44.9 112.9,59.1 137.8,44.4 138.3,37 	"/>
	<ellipse transform="matrix(0.8923 -0.4515 0.4515 0.8923 -5.1319 61.0019)" class="st45" cx="125.3" cy="41.3" rx="14" ry="9"/>
	<path class="st46" d="M135.5,35.4c1.7,3.4-2.4,9.6-7.7,12.3s-11,2.1-12.8-1.3c-1.7-3.4,1.2-8.4,6.5-11.1S133.7,31.9,135.5,35.4z"/>
	
		<linearGradient id="SVGID_00000029764010959073758510000003053254469391840672_" gradientUnits="userSpaceOnUse" x1="113.0636" y1="-49.3969" x2="114.7291" y2="25.1358">
		<stop  offset="0.1611" style="stop-color:#00865F"/>
		<stop  offset="0.3603" style="stop-color:#9FD1C3"/>
		<stop  offset="0.4665" style="stop-color:#DEEFEA"/>
		<stop  offset="0.5249" style="stop-color:#C7E4DC"/>
		<stop  offset="0.7179" style="stop-color:#01835D"/>
		<stop  offset="1" style="stop-color:#11543E"/>
	</linearGradient>
	<path style="fill:url(#SVGID_00000029764010959073758510000003053254469391840672_);" d="M127.5,43c0,0,0.8-25.4-25-34.5
		C102.4,8.5,97.1,18.2,127.5,43z"/>
	<path class="st48" d="M127.5,43c0,0-12.2-26.8-37.7-24.6C89.8,18.4,101.2,31.2,127.5,43z"/>
	
		<linearGradient id="SVGID_00000034084936926741874300000012972416554006640278_" gradientUnits="userSpaceOnUse" x1="130.1908" y1="65.7202" x2="31.1422" y2="-66.9765">
		<stop  offset="0.1611" style="stop-color:#00865F"/>
		<stop  offset="0.3603" style="stop-color:#64FFDA"/>
		<stop  offset="0.4665" style="stop-color:#F6F6F6"/>
		<stop  offset="0.5249" style="stop-color:#64FFDA"/>
		<stop  offset="0.7179" style="stop-color:#43AC9C"/>
		<stop  offset="1" style="stop-color:#43AC9C"/>
	</linearGradient>
	<path style="fill:url(#SVGID_00000034084936926741874300000012972416554006640278_);" d="M127.5,43c0,0-18.3-19.1-33.8-7.3
		C93.6,35.8,105,36.2,127.5,43z"/>
	
		<linearGradient id="SVGID_00000136375578460298112840000015758124801447004555_" gradientUnits="userSpaceOnUse" x1="127.2712" y1="46.915" x2="99.1314" y2="-67.52">
		<stop  offset="0.1611" style="stop-color:#00865F"/>
		<stop  offset="0.3603" style="stop-color:#9FD1C3"/>
		<stop  offset="0.4665" style="stop-color:#DEEFEA"/>
		<stop  offset="0.5249" style="stop-color:#C7E4DC"/>
		<stop  offset="0.7179" style="stop-color:#01835D"/>
		<stop  offset="1" style="stop-color:#11543E"/>
	</linearGradient>
	<path style="fill:url(#SVGID_00000136375578460298112840000015758124801447004555_);" d="M127.5,43c0,0-17-21.9-13-43
		C114.5,0,128.6,9.1,127.5,43z"/>
	
		<linearGradient id="SVGID_00000090987758769068535880000000609037967604920238_" gradientUnits="userSpaceOnUse" x1="127.2537" y1="-61.4348" x2="129.1297" y2="22.5155">
		<stop  offset="0.1611" style="stop-color:#00865F"/>
		<stop  offset="0.3603" style="stop-color:#64FFDA"/>
		<stop  offset="0.4665" style="stop-color:#F6F6F6"/>
		<stop  offset="0.5249" style="stop-color:#64FFDA"/>
		<stop  offset="0.7179" style="stop-color:#43AC9C"/>
		<stop  offset="1" style="stop-color:#43AC9C"/>
	</linearGradient>
	<path style="fill:url(#SVGID_00000090987758769068535880000000609037967604920238_);" d="M127.5,43c0,0-12.7-31.5,6.9-43
		C134.3,0,134.2,24.1,127.5,43z"/>
	
		<radialGradient id="SVGID_00000181774942395570711040000001480913361291221417_" cx="148.1438" cy="-16.1065" r="39.53" gradientUnits="userSpaceOnUse">
		<stop  offset="0.2486" style="stop-color:#DCE9E5"/>
		<stop  offset="1" style="stop-color:#8AC7B5"/>
	</radialGradient>
	<path style="fill:url(#SVGID_00000181774942395570711040000001480913361291221417_);" d="M127.5,43c0,0-2.9-30.9,21.9-31.9
		C149.3,11.1,134.2,25.7,127.5,43z"/>
	
		<linearGradient id="SVGID_00000119107369841721176540000010647283479337709979_" gradientUnits="userSpaceOnUse" x1="167.4447" y1="-12.2395" x2="128.9871" y2="42.5809">
		<stop  offset="0.1611" style="stop-color:#00865F"/>
		<stop  offset="0.3603" style="stop-color:#9FD1C3"/>
		<stop  offset="0.4665" style="stop-color:#DEEFEA"/>
		<stop  offset="0.5249" style="stop-color:#C7E4DC"/>
		<stop  offset="0.7179" style="stop-color:#01835D"/>
		<stop  offset="1" style="stop-color:#11543E"/>
	</linearGradient>
	<path style="fill:url(#SVGID_00000119107369841721176540000010647283479337709979_);" d="M127.5,43c0,0-1.8-23.9,24.9-23.2
		C152.3,19.8,140.5,38,127.5,43z"/>
	<path class="st48" d="M127.5,43c0,0,11.4-21.9,30.1-7.3C157.6,35.8,142.6,36.6,127.5,43z"/>
	
		<linearGradient id="SVGID_00000050623407673801132620000006885217689680113829_" gradientUnits="userSpaceOnUse" x1="161.1911" y1="20.9525" x2="128.0964" y2="55.6893">
		<stop  offset="0.1611" style="stop-color:#00865F"/>
		<stop  offset="0.3603" style="stop-color:#64FFDA"/>
		<stop  offset="0.4665" style="stop-color:#F6F6F6"/>
		<stop  offset="0.5249" style="stop-color:#64FFDA"/>
		<stop  offset="0.7179" style="stop-color:#43AC9C"/>
		<stop  offset="1" style="stop-color:#43AC9C"/>
	</linearGradient>
	<path style="fill:url(#SVGID_00000050623407673801132620000006885217689680113829_);" d="M127.5,43c0,0,3.2,5.1,18.6,7.2
		c0,0-3.7-10.6-15.1-8.5L127.5,43z"/>
	
		<linearGradient id="SVGID_00000078045263001489689480000006030179494116420751_" gradientUnits="userSpaceOnUse" x1="129.7663" y1="83.8982" x2="124.2084" y2="41.0771">
		<stop  offset="0.1611" style="stop-color:#00865F"/>
		<stop  offset="0.3603" style="stop-color:#64FFDA"/>
		<stop  offset="0.4665" style="stop-color:#F6F6F6"/>
		<stop  offset="0.5249" style="stop-color:#64FFDA"/>
		<stop  offset="0.7179" style="stop-color:#43AC9C"/>
		<stop  offset="1" style="stop-color:#43AC9C"/>
	</linearGradient>
	<path style="fill:url(#SVGID_00000078045263001489689480000006030179494116420751_);" d="M125.2,42.4c0,0-6.8,6.9-0.6,17.9
		c0,0,3.9-3.4,3.7-16.3c0,0-0.7-0.6-0.8-0.9L125.2,42.4z"/>
	
		<linearGradient id="SVGID_00000088838527464257426860000015440499478933046180_" gradientUnits="userSpaceOnUse" x1="100.5696" y1="12.3522" x2="123.0538" y2="60.6048">
		<stop  offset="0.1611" style="stop-color:#00865F"/>
		<stop  offset="0.3603" style="stop-color:#64FFDA"/>
		<stop  offset="0.4665" style="stop-color:#F6F6F6"/>
		<stop  offset="0.5249" style="stop-color:#64FFDA"/>
		<stop  offset="0.7179" style="stop-color:#43AC9C"/>
		<stop  offset="1" style="stop-color:#43AC9C"/>
	</linearGradient>
	<path style="fill:url(#SVGID_00000088838527464257426860000015440499478933046180_);" d="M122,41.4l3.2,0.9c0,0-1.3,1.6-1.9,3
		c0,0-4.9,6.4-13.9,8.6C109.3,53.9,110.7,44.6,122,41.4z"/>
	
		<linearGradient id="SVGID_00000079471456681387721940000012224598406088949156_" gradientUnits="userSpaceOnUse" x1="104.3917" y1="17.8785" x2="115.5075" y2="54.2575">
		<stop  offset="0.1611" style="stop-color:#00865F"/>
		<stop  offset="0.3603" style="stop-color:#64FFDA"/>
		<stop  offset="0.4665" style="stop-color:#F6F6F6"/>
		<stop  offset="0.5249" style="stop-color:#64FFDA"/>
		<stop  offset="0.7179" style="stop-color:#43AC9C"/>
		<stop  offset="1" style="stop-color:#43AC9C"/>
	</linearGradient>
	<path style="fill:url(#SVGID_00000079471456681387721940000012224598406088949156_);" d="M127.5,43c0,0-18.3,5-29.7,3.4
		c0,0,5.1-7,22.3-5.6l5.2,1.4L127.5,43z"/>
	<path class="st58" d="M181.5,92.6c0-13.5,7.5-16,8.8-16.2c0,0-8.8-2.8-8.8-16.3c0,0-1,15.6-9.6,16.2v0
		C180.5,76.9,181.5,92.6,181.5,92.6z"/>
	<path class="st58" d="M272.1,189.5c0,6.2-3.5,7.4-4.1,7.5c0,0,4.1,1.3,4.1,7.5c0,0,0.5-7.2,4.5-7.5v0
		C272.5,196.7,272.1,189.5,272.1,189.5z"/>
	<path class="st58" d="M90.1,11.2c0,6.2-3.5,7.4-4.1,7.5c0,0,4.1,1.3,4.1,7.5c0,0,0.5-7.2,4.5-7.5v0C90.6,18.4,90.1,11.2,90.1,11.2z
		"/>
	<path class="st58" d="M336.2,110.6c0-9.9,5.5-11.7,6.4-11.9c0,0-6.4-2-6.4-11.9c0,0-0.7,11.4-7,11.9v0
		C335.5,99.2,336.2,110.6,336.2,110.6z"/>
	<path class="st58" d="M25.6,113c0-7.1,3.9-8.4,4.6-8.5c0,0-4.6-1.4-4.6-8.5c0,0-0.5,8.2-5,8.5v0C25.1,104.8,25.6,113,25.6,113z"/>
	<path class="st58" d="M358.6,108.1c0,0.2,0,0.3,0,0.5C358.6,108.4,358.6,108.3,358.6,108.1L358.6,108.1z"/>
</g>
</svg>
